<?xml version="1.0" encoding="UTF-8"?>
<svg version="1.1" xmlns="http://www.w3.org/2000/svg" width="600" height="600">
<path d="M0 0 C2.06318021 0.29047856 4.12310643 0.50337681 6.19677734 0.70410156 C20.95395829 2.33678978 34.51540748 7.73805854 48.32568359 12.90161133 C57.18067221 16.19386553 66.08211267 19.34898781 75.06005859 22.29003906 C75.06005859 22.95003906 75.06005859 23.61003906 75.06005859 24.29003906 C75.82318359 24.43441406 76.58630859 24.57878906 77.37255859 24.72753906 C80.06005859 25.29003906 80.06005859 25.29003906 83.06005859 26.29003906 C83.06005859 26.95003906 83.06005859 27.61003906 83.06005859 28.29003906 C83.76130859 28.39316406 84.46255859 28.49628906 85.18505859 28.60253906 C91.60605801 30.13799545 97.33869476 34.07336117 103.06005859 37.29003906 C103.06005859 37.95003906 103.06005859 38.61003906 103.06005859 39.29003906 C103.78193359 39.55816406 104.50380859 39.82628906 105.24755859 40.10253906 C108.05772242 41.28905268 110.54422416 42.56489545 113.06005859 44.29003906 C113.06005859 44.95003906 113.06005859 45.61003906 113.06005859 46.29003906 C113.65818359 46.57878906 114.25630859 46.86753906 114.87255859 47.16503906 C117.06005859 48.29003906 117.06005859 48.29003906 120.06005859 50.29003906 C120.72005859 50.29003906 121.38005859 50.29003906 122.06005859 50.29003906 C122.39005859 51.28003906 122.72005859 52.27003906 123.06005859 53.29003906 C124.05005859 53.62003906 125.04005859 53.95003906 126.06005859 54.29003906 C126.72005859 54.95003906 127.38005859 55.61003906 128.06005859 56.29003906 C131.68357453 59.7128062 135.26472701 62.52061122 139.68505859 64.85253906 C143.48857031 66.86692006 146.11894488 69.11045667 149.06005859 72.29003906 C150.1540802 73.19823403 151.25848681 74.09405423 152.37255859 74.97753906 C153.25943359 75.74066406 154.14630859 76.50378906 155.06005859 77.29003906 C155.06005859 77.95003906 155.06005859 78.61003906 155.06005859 79.29003906 C155.69943359 79.41378906 156.33880859 79.53753906 156.99755859 79.66503906 C157.67818359 79.87128906 158.35880859 80.07753906 159.06005859 80.29003906 C159.7270507 81.62402328 160.35257705 82.97954685 160.93505859 84.35253906 C161.970464 86.62774177 161.970464 86.62774177 165.06005859 87.29003906 C166.08740234 88.96191406 166.08740234 88.96191406 166.99755859 91.04003906 C168.13732673 93.62548712 169.18153474 95.43036907 171.04833984 97.58691406 C173.44916937 100.81288305 174.407839 103.9403218 175.31005859 107.79003906 C175.47989258 108.48548828 175.64972656 109.1809375 175.82470703 109.89746094 C177.29161882 116.37312386 177.46838411 122.66609186 177.06005859 129.29003906 C176.40005859 129.29003906 175.74005859 129.29003906 175.06005859 129.29003906 C175.28693359 129.99128906 175.51380859 130.69253906 175.74755859 131.41503906 C176.16072921 135.21620869 174.94036849 137.01690702 173.06005859 140.29003906 C172.75068359 140.95003906 172.44130859 141.61003906 172.12255859 142.29003906 C168.04740037 149.96092514 168.04740037 149.96092514 164.06005859 151.29003906 C164.06005859 151.95003906 164.06005859 152.61003906 164.06005859 153.29003906 C163.40005859 153.29003906 162.74005859 153.29003906 162.06005859 153.29003906 C161.71974609 154.16402344 161.71974609 154.16402344 161.37255859 155.05566406 C159.70054239 157.9020726 157.78029049 159.18964876 155.06005859 161.04003906 C154.17318359 161.65363281 153.28630859 162.26722656 152.37255859 162.89941406 C150.06005859 164.29003906 150.06005859 164.29003906 148.06005859 164.29003906 C148.06005859 164.95003906 148.06005859 165.61003906 148.06005859 166.29003906 C145.47915092 167.6075024 142.89555402 168.91913524 140.31005859 170.22753906 C139.58044922 170.60072266 138.85083984 170.97390625 138.09912109 171.35839844 C137.39013672 171.71611328 136.68115234 172.07382813 135.95068359 172.44238281 C134.97663574 172.93726196 134.97663574 172.93726196 133.98291016 173.44213867 C132.0271278 174.30456022 130.14465165 174.83378085 128.06005859 175.29003906 C128.07576904 176.20817383 128.09147949 177.12630859 128.10766602 178.07226562 C128.1588673 181.48654855 128.19644338 184.9004221 128.22485352 188.31494141 C128.23991783 189.79124397 128.26037342 191.26750194 128.28637695 192.74365234 C128.32286598 194.86860164 128.33980792 196.99295807 128.35302734 199.11816406 C128.36873779 200.39594727 128.38444824 201.67373047 128.40063477 202.99023438 C128.03314991 206.55075428 127.32507814 207.64539512 125.06005859 210.29003906 C124.59837103 212.9360859 124.27715443 215.43788206 124.06005859 218.10253906 C123.25605936 226.30921417 121.81880372 234.23498637 120.06005859 242.29003906 C120.97658203 242.27972656 121.89310547 242.26941406 122.83740234 242.25878906 C126.77480552 242.29696994 129.43035945 242.70617035 133.06005859 244.29003906 C139.10247585 250.6581931 141.15874571 260.20989404 141.43505859 268.72753906 C141.27379389 274.33515249 140.57900197 279.86355531 139.81005859 285.41503906 C139.70097168 286.2380249 139.59188477 287.06101074 139.47949219 287.90893555 C138.67997481 293.16971799 137.23751743 297.74169512 135.16162109 302.63378906 C133.96983145 305.50760806 132.93193078 308.40969729 131.91162109 311.34863281 C131.36248047 312.91774414 131.36248047 312.91774414 130.80224609 314.51855469 C130.05950919 316.65197554 129.32249272 318.78739682 128.59130859 320.92480469 C121.62687658 340.71012291 121.62687658 340.71012291 114.06005859 345.29003906 C113.37943359 345.70253906 112.69880859 346.11503906 111.99755859 346.54003906 C110.06005859 347.29003906 110.06005859 347.29003906 106.06005859 347.29003906 C108.45500971 360.24798512 111.1386037 373.03179495 114.68505859 385.72753906 C121.29020589 409.77324382 124.7092205 434.76922736 118.06005859 459.29003906 C117.65630958 461.10079222 117.25938037 462.91309447 116.87255859 464.72753906 C116.60443359 465.90316406 116.33630859 467.07878906 116.06005859 468.29003906 C115.40005859 468.29003906 114.74005859 468.29003906 114.06005859 468.29003906 C113.97755859 469.11503906 113.89505859 469.94003906 113.81005859 470.79003906 C112.89558591 475.05757827 111.13782681 478.482408 109.06005859 482.29003906 C107.74005859 482.29003906 106.42005859 482.29003906 105.06005859 482.29003906 C104.40005859 480.97003906 103.74005859 479.65003906 103.06005859 478.29003906 C102.89570312 479.41539062 102.89570312 479.41539062 102.72802734 480.56347656 C101.28205676 489.89762812 99.11775237 498.41623783 95.12255859 506.98925781 C94.26976326 508.83593594 93.49531654 510.718702 92.74755859 512.61035156 C91.03429039 516.62609296 88.65088707 519.98373066 86.06005859 523.47753906 C85.40263672 524.38149414 85.40263672 524.38149414 84.73193359 525.30371094 C83.51612248 526.97178914 82.28849941 528.63123987 81.06005859 530.29003906 C80.22474609 531.49080078 80.22474609 531.49080078 79.37255859 532.71582031 C78.93943359 533.2353125 78.50630859 533.75480469 78.06005859 534.29003906 C77.40005859 534.29003906 76.74005859 534.29003906 76.06005859 534.29003906 C75.68880859 535.21816406 75.68880859 535.21816406 75.31005859 536.16503906 C73.8537722 538.64072593 72.68193353 539.24128909 70.06005859 540.29003906 C70.06005859 541.28003906 70.06005859 542.27003906 70.06005859 543.29003906 C69.44130859 543.57878906 68.82255859 543.86753906 68.18505859 544.16503906 C65.92680094 545.22723948 65.92680094 545.22723948 64.06005859 547.29003906 C62.77089191 548.04000015 61.45505067 548.74507098 60.12255859 549.41503906 C59.43291016 549.76824219 58.74326172 550.12144531 58.03271484 550.48535156 C56.06005859 551.29003906 56.06005859 551.29003906 53.06005859 551.29003906 C52.72568583 545.04841423 53.67460983 541.05487357 56.06005859 535.29003906 C56.06005859 534.63003906 56.06005859 533.97003906 56.06005859 533.29003906 C55.81771484 533.96550781 55.57537109 534.64097656 55.32568359 535.33691406 C52.09932928 543.92398016 52.09932928 543.92398016 48.06005859 547.29003906 C47.40005859 548.28003906 46.74005859 549.27003906 46.06005859 550.29003906 C42.37978581 554.28549894 38.48659554 558.12822696 34.06005859 561.29003906 C33.40005859 561.29003906 32.74005859 561.29003906 32.06005859 561.29003906 C32.06005859 561.95003906 32.06005859 562.61003906 32.06005859 563.29003906 C31.34720703 563.67675781 30.63435547 564.06347656 29.89990234 564.46191406 C28.94212891 564.98269531 27.98435547 565.50347656 26.99755859 566.04003906 C25.98177734 566.59175781 24.96599609 567.14347656 23.91943359 567.71191406 C21.83745406 568.86098473 19.78330111 570.0609115 17.74755859 571.29003906 C14.48247978 573.19014431 11.05416498 574.54937688 7.56005859 575.97753906 C2.02954476 578.30023607 -3.1087609 580.95593679 -8.25244141 584.04003906 C-8.90470703 584.42893311 -9.55697266 584.81782715 -10.22900391 585.21850586 C-13.6534301 587.19029257 -13.6534301 587.19029257 -15.93994141 590.29003906 C-17.25994141 590.29003906 -18.57994141 590.29003906 -19.93994141 590.29003906 C-20.26994141 591.28003906 -20.59994141 592.27003906 -20.93994141 593.29003906 C-22.62744141 595.10253906 -22.62744141 595.10253906 -24.93994141 596.29003906 C-30.31572146 595.53993022 -33.94317599 592.12067691 -37.98681641 588.75097656 C-39.80035335 587.09038089 -39.80035335 587.09038089 -41.93994141 587.29003906 C-41.93994141 586.63003906 -41.93994141 585.97003906 -41.93994141 585.29003906 C-42.99181641 585.16628906 -42.99181641 585.16628906 -44.06494141 585.04003906 C-47.62080787 584.11242172 -49.89099246 582.34221624 -52.93994141 580.29003906 C-55.11099396 579.2462638 -57.31278699 578.29974422 -59.52587891 577.34863281 C-67.57173268 573.8204348 -75.25902892 569.53936517 -82.93994141 565.29003906 C-82.93994141 564.63003906 -82.93994141 563.97003906 -82.93994141 563.29003906 C-85.27208289 562.08375899 -87.43636279 561.12456527 -89.93994141 560.29003906 C-91.62353516 558.54785156 -91.62353516 558.54785156 -93.37744141 556.41503906 C-95.17239331 554.23860968 -96.75196543 552.42812235 -99.02978516 550.75488281 C-101.05391184 549.20263842 -101.90988811 547.97455452 -103.06494141 545.72753906 C-104.70421496 542.33765463 -104.70421496 542.33765463 -106.93994141 540.29003906 C-106.60994141 539.63003906 -106.27994141 538.97003906 -105.93994141 538.29003906 C-106.92994141 538.29003906 -107.91994141 538.29003906 -108.93994141 538.29003906 C-107.94994141 542.58003906 -106.95994141 546.87003906 -105.93994141 551.29003906 C-111.93994141 552.29003906 -111.93994141 552.29003906 -113.68994141 551.10253906 C-114.98192067 549.22916914 -116.00947479 547.36569536 -116.93994141 545.29003906 C-117.59994141 545.29003906 -118.25994141 545.29003906 -118.93994141 545.29003906 C-119.92994141 543.80503906 -119.92994141 543.80503906 -120.93994141 542.29003906 C-123.49177545 541.08553602 -123.49177545 541.08553602 -125.93994141 540.29003906 C-125.93994141 539.63003906 -125.93994141 538.97003906 -125.93994141 538.29003906 C-127.01308594 537.68869141 -127.01308594 537.68869141 -128.10791016 537.07519531 C-131.69681908 534.81294513 -133.74864989 532.09931164 -136.25244141 528.72753906 C-136.9340332 527.84291992 -136.9340332 527.84291992 -137.62939453 526.94042969 C-140.93994141 522.56453389 -140.93994141 522.56453389 -140.93994141 520.29003906 C-141.59994141 520.29003906 -142.25994141 520.29003906 -142.93994141 520.29003906 C-149.89553808 506.78402611 -149.89553808 506.78402611 -151.93994141 500.29003906 C-151.60994141 499.63003906 -151.27994141 498.97003906 -150.93994141 498.29003906 C-151.59994141 497.96003906 -152.25994141 497.63003906 -152.93994141 497.29003906 C-153.56547888 494.94352527 -154.06844352 492.67287913 -154.50244141 490.29003906 C-154.63175049 489.61320068 -154.76105957 488.9363623 -154.89428711 488.23901367 C-155.82142439 483.26640212 -156.49815181 478.32644048 -156.93994141 473.29003906 C-157.26994141 475.93003906 -157.59994141 478.57003906 -157.93994141 481.29003906 C-160.93994141 481.29003906 -160.93994141 481.29003906 -162.43115234 480.11474609 C-166.77578499 475.19187097 -168.57855379 470.47435971 -170.18994141 464.16503906 C-170.56542114 462.77224731 -170.56542114 462.77224731 -170.94848633 461.35131836 C-172.77686961 454.39184157 -174.18657278 447.45157935 -174.93994141 440.29003906 C-175.03621826 439.56768066 -175.13249512 438.84532227 -175.23168945 438.10107422 C-176.02410459 431.6169788 -175.7780306 425.52737391 -175.12744141 419.04003906 C-175.03269531 418.03730957 -174.93794922 417.03458008 -174.84033203 416.00146484 C-172.8500845 395.54211566 -172.8500845 395.54211566 -169.93994141 388.29003906 C-169.49742084 385.85796316 -169.49742084 385.85796316 -169.31494141 383.47753906 C-169.24017578 382.68734375 -169.16541016 381.89714844 -169.08837891 381.08300781 C-169.03939453 380.49132812 -168.99041016 379.89964844 -168.93994141 379.29003906 C-168.27994141 379.29003906 -167.61994141 379.29003906 -166.93994141 379.29003906 C-167.43494141 377.80503906 -167.43494141 377.80503906 -167.93994141 376.29003906 C-167.31112251 374.27781859 -166.64375298 372.27727174 -165.93994141 370.29003906 C-165.93994141 369.30003906 -165.93994141 368.31003906 -165.93994141 367.29003906 C-165.27994141 367.29003906 -164.61994141 367.29003906 -163.93994141 367.29003906 C-163.79556641 366.23816406 -163.65119141 365.18628906 -163.50244141 364.10253906 C-163.19047612 361.98810769 -162.8466095 359.87523058 -162.37744141 357.79003906 C-161.81939851 354.60122249 -161.87660657 351.52011548 -161.93994141 348.29003906 C-162.61541016 347.99871094 -163.29087891 347.70738281 -163.98681641 347.40722656 C-169.60969906 344.82330072 -173.04408533 342.97449728 -175.93994141 337.29003906 C-176.32408203 336.61585938 -176.70822266 335.94167969 -177.10400391 335.24707031 C-180.8830941 328.32646649 -183.10277782 320.97459987 -185.30615234 313.44726562 C-185.94476292 311.27362807 -186.60062753 309.10582038 -187.26025391 306.93847656 C-198.65667514 269.27779182 -198.65667514 269.27779182 -192.93994141 255.29003906 C-188.90737955 248.43142308 -184.18963957 243.9053308 -176.50244141 241.54003906 C-175.98681641 241.45753906 -175.47119141 241.37503906 -174.93994141 241.29003906 C-175.1730603 240.20215088 -175.1730603 240.20215088 -175.41088867 239.09228516 C-175.89463651 236.53000658 -176.193521 234.05081474 -176.40478516 231.45410156 C-176.48277344 230.55433594 -176.56076172 229.65457031 -176.64111328 228.72753906 C-176.79798635 226.86061993 -176.95166069 224.99342911 -177.10205078 223.12597656 C-177.62043657 217.22565056 -178.25626097 211.65739993 -180.93994141 206.29003906 C-181.92511808 199.40758103 -182.06218253 192.67129614 -182.00244141 185.72753906 C-181.99792969 184.71884766 -181.99341797 183.71015625 -181.98876953 182.67089844 C-181.9771091 180.21054759 -181.96074519 177.75032667 -181.93994141 175.29003906 C-182.78685547 175.20367187 -183.63376953 175.11730469 -184.50634766 175.02832031 C-188.4460217 174.18122316 -191.4754036 172.53972039 -194.87744141 170.47753906 C-195.45945313 170.13400391 -196.04146484 169.79046875 -196.64111328 169.43652344 C-197.81478342 168.74375911 -198.98643177 168.04755778 -200.15600586 167.34790039 C-202.00231537 166.25305174 -203.86282795 165.18656347 -205.72900391 164.12597656 C-210.89270832 161.17349351 -210.89270832 161.17349351 -212.93994141 159.29003906 C-212.93994141 158.30003906 -212.93994141 157.31003906 -212.93994141 156.29003906 C-213.53806641 156.02449219 -214.13619141 155.75894531 -214.75244141 155.48535156 C-220.68824945 152.24185645 -224.64554174 145.49841462 -226.93994141 139.29003906 C-226.93994141 138.30003906 -226.93994141 137.31003906 -226.93994141 136.29003906 C-227.59994141 135.96003906 -228.25994141 135.63003906 -228.93994141 135.29003906 C-230.28745575 130.03473313 -230.03570792 124.67424508 -229.93994141 119.29003906 C-230.59994141 118.96003906 -231.25994141 118.63003906 -231.93994141 118.29003906 C-231.27994141 118.29003906 -230.61994141 118.29003906 -229.93994141 118.29003906 C-230.34212891 117.14535156 -230.34212891 117.14535156 -230.75244141 115.97753906 C-231.03383598 110.4434457 -228.67892668 106.03276577 -225.93994141 101.29003906 C-224.94994141 100.79503906 -224.94994141 100.79503906 -223.93994141 100.29003906 C-223.79556641 99.53078125 -223.65119141 98.77152344 -223.50244141 97.98925781 C-222.50360966 93.1962527 -219.04255444 89.95623536 -215.93994141 86.29003906 C-215.23095703 85.44570312 -214.52197266 84.60136719 -213.79150391 83.73144531 C-202.61419194 70.84812257 -202.61419194 70.84812257 -194.93994141 68.29003906 C-194.25507415 66.96596238 -193.59123938 65.63094666 -192.93994141 64.29003906 C-189.95848049 60.59302753 -186.31291461 58.77979997 -182.19384766 56.59472656 C-180.08209935 55.37232806 -178.33896952 54.07491241 -176.50244141 52.47753906 C-173.93994141 50.29003906 -173.93994141 50.29003906 -171.93994141 50.29003906 C-171.60994141 49.30003906 -171.27994141 48.31003906 -170.93994141 47.29003906 C-168.49853516 45.64160156 -168.49853516 45.64160156 -165.37744141 43.91503906 C-160.10116122 40.9487219 -160.10116122 40.9487219 -154.93994141 37.79003906 C-147.14689169 32.90123148 -139.71889529 28.36219036 -130.95947266 25.44238281 C-127.27176777 24.03504395 -123.86875812 22.24619385 -120.37744141 20.41503906 C-113.05480693 16.60382778 -105.57497161 13.9650181 -97.70556641 11.51660156 C-94.86767065 10.59222473 -92.55993488 9.63198694 -89.93994141 8.29003906 C-62.28495139 -1.87316977 -29.06751169 -4.4270882 0 0 Z M-46.93994141 19.29003906 C-46.93994141 19.95003906 -46.93994141 20.61003906 -46.93994141 21.29003906 C-48.00728516 21.45439453 -48.00728516 21.45439453 -49.09619141 21.62207031 C-57.00860351 23.48061766 -63.1676302 27.87724588 -67.93994141 34.29003906 C-68.92994141 34.62003906 -69.91994141 34.95003906 -70.93994141 35.29003906 C-71.97967324 37.42330743 -71.97967324 37.42330743 -72.93994141 40.29003906 C-73.57692255 41.73148346 -74.22364446 43.16864349 -74.87744141 44.60253906 C-75.56737437 46.1639663 -76.25489571 47.72646147 -76.93994141 49.29003906 C-77.25705078 49.99902344 -77.57416016 50.70800781 -77.90087891 51.43847656 C-79.72459302 55.80535164 -80.1998735 58.70846782 -78.93994141 63.29003906 C-79.92994141 63.78503906 -79.92994141 63.78503906 -80.93994141 64.29003906 C-81.60994002 77.74584451 -79.9541773 89.05989959 -71.93994141 100.29003906 C-71.23140977 101.43574979 -70.5230614 102.58157388 -69.81494141 103.72753906 C-68.13076191 106.54803253 -68.13076191 106.54803253 -64.93994141 107.29003906 C-64.93994141 107.95003906 -64.93994141 108.61003906 -64.93994141 109.29003906 C-56.58320393 117.50175723 -46.47137467 122.51286546 -34.93994141 124.29003906 C-34.17294922 124.42410156 -33.40595703 124.55816406 -32.61572266 124.69628906 C-18.81254545 126.65229485 -6.14845287 122.48533638 5.14990234 114.75488281 C6.96318048 113.3643321 8.56532583 112.01905596 10.06005859 110.29003906 C10.06005859 109.63003906 10.06005859 108.97003906 10.06005859 108.29003906 C10.98818359 107.91878906 10.98818359 107.91878906 11.93505859 107.54003906 C14.48509784 106.04001598 14.82228208 104.92031416 16.06005859 102.29003906 C16.67494141 101.70351562 17.28982422 101.11699219 17.92333984 100.51269531 C24.03312301 94.15718047 26.70217748 85.91497389 27.06005859 77.29003906 C27.33849609 76.02160156 27.33849609 76.02160156 27.62255859 74.72753906 C28.25129289 71.22459085 28.12034246 67.8467869 28.06005859 64.29003906 C27.40005859 64.29003906 26.74005859 64.29003906 26.06005859 64.29003906 C26.39005859 63.30003906 26.72005859 62.31003906 27.06005859 61.29003906 C26.40005859 61.29003906 25.74005859 61.29003906 25.06005859 61.29003906 C25.39005859 60.30003906 25.72005859 59.31003906 26.06005859 58.29003906 C25.47150682 53.05192826 24.04308425 48.6498458 21.06005859 44.29003906 C20.41097697 43.0834475 19.76534751 41.87499466 19.12255859 40.66503906 C17.23453919 37.57555276 15.96660217 36.26233649 13.06005859 34.29003906 C13.06005859 33.63003906 13.06005859 32.97003906 13.06005859 32.29003906 C12.07005859 31.96003906 11.08005859 31.63003906 10.06005859 31.29003906 C10.06005859 30.63003906 10.06005859 29.97003906 10.06005859 29.29003906 C3.67807729 24.36402308 -3.35391006 20.90976511 -10.93994141 18.29003906 C-12.26832031 17.7525 -12.26832031 17.7525 -13.62353516 17.20410156 C-18.02723064 15.99036217 -22.14243616 15.95037964 -26.68994141 15.97753906 C-27.57649414 15.97882812 -28.46304688 15.98011719 -29.37646484 15.98144531 C-35.5997236 16.07293019 -41.18825291 16.74718731 -46.93994141 19.29003906 Z M-68.93994141 142.29003906 C-71.21721184 142.52252916 -73.49455906 142.75426809 -75.77197266 142.98535156 C-100.79836409 145.58105402 -126.39037255 148.98894884 -149.93994141 158.29003906 C-151.4137109 158.79821256 -152.8904186 159.29792762 -154.36962891 159.79003906 C-155.10181641 160.03753906 -155.83400391 160.28503906 -156.58837891 160.54003906 C-158.09381981 161.04713494 -159.60172988 161.54694959 -161.11181641 162.04003906 C-165.78380433 163.59588486 -165.78380433 163.59588486 -168.93994141 167.29003906 C-169.10693373 170.4152574 -169.10693373 170.4152574 -168.93994141 173.29003906 C-167.45494141 172.79503906 -167.45494141 172.79503906 -165.93994141 172.29003906 C-165.93994141 171.63003906 -165.93994141 170.97003906 -165.93994141 170.29003906 C-164.91900391 170.38285156 -164.91900391 170.38285156 -163.87744141 170.47753906 C-160.79459606 170.2807617 -158.6805848 169.35213698 -155.88647461 168.11206055 C-152.68373889 166.75954441 -149.38584209 165.74716998 -146.06494141 164.72753906 C-145.36385254 164.5099292 -144.66276367 164.29231934 -143.94042969 164.06811523 C-138.97926529 162.55083249 -134.01861177 161.35492156 -128.93994141 160.29003906 C-127.45494141 159.76410156 -127.45494141 159.76410156 -125.93994141 159.22753906 C-122.61483542 158.18844344 -119.4924854 157.83550659 -116.03759766 157.50097656 C-112.45638013 157.14085413 -109.1740307 156.36132082 -105.73291016 155.31347656 C-102.06996988 154.32512398 -98.6449333 153.7685082 -94.87744141 153.35253906 C-94.18497314 153.27463135 -93.49250488 153.19672363 -92.77905273 153.11645508 C-87.62324549 152.54816236 -82.46123838 152.04134731 -77.29931641 151.53222656 C-76.62941177 151.4659758 -75.95950714 151.39972504 -75.26930237 151.33146667 C-71.879316 150.99672725 -68.48901483 150.66613638 -65.09790039 150.34301758 C-63.84307861 150.22112061 -62.58825684 150.09922363 -61.29541016 149.97363281 C-60.16772217 149.86591553 -59.04003418 149.75819824 -57.87817383 149.6472168 C-55.09286862 149.38073712 -55.09286862 149.38073712 -53.05688477 148.77580261 C-50.68506454 148.23155385 -48.5637094 148.16296432 -46.13061523 148.16064453 C-44.70311699 148.15591629 -44.70311699 148.15591629 -43.2467804 148.15109253 C-42.22384384 148.15311676 -41.20090729 148.15514099 -40.14697266 148.15722656 C-39.08637131 148.15626984 -38.02576996 148.15531311 -36.93302917 148.15432739 C-34.68785544 148.153647 -32.44267972 148.15549151 -30.19750977 148.15966797 C-26.78283182 148.16499168 -23.36828699 148.15973192 -19.95361328 148.15332031 C-17.76806612 148.15398164 -15.58251904 148.15526392 -13.39697266 148.15722656 C-11.87774956 148.15419022 -11.87774956 148.15419022 -10.32783508 148.15109253 C-4.45642893 148.1702233 1.24126792 148.52319639 7.06005859 149.29003906 C8.38789912 149.4467179 9.71594112 149.60169963 11.04418945 149.75488281 C12.37112531 149.91216885 13.6980288 150.06972819 15.02490234 150.22753906 C16.49950769 150.40205224 17.9741172 150.57653033 19.44873047 150.75097656 C21.72376086 151.02044285 23.9987579 151.29018159 26.27368164 151.56054688 C28.50315969 151.82535908 30.73274786 152.08921674 32.96240234 152.35253906 C33.67407562 152.43681152 34.3857489 152.52108398 35.11898804 152.60791016 C39.80031735 153.15713132 44.48316443 153.64273765 49.17944336 154.04394531 C51.06005859 154.29003906 51.06005859 154.29003906 54.06005859 155.29003906 C56.18030671 155.82989116 58.30605936 156.3483024 60.43505859 156.85253906 C61.55654297 157.12195313 62.67802734 157.39136719 63.83349609 157.66894531 C66.70128682 158.22097767 69.1609916 158.30465621 72.06005859 158.29003906 C73.95458984 158.80566406 73.95458984 158.80566406 75.87255859 159.54003906 C82.78077542 161.99551069 89.94168265 163.56940095 97.06005859 165.29003906 C97.06005859 165.95003906 97.06005859 166.61003906 97.06005859 167.29003906 C103.00005859 169.27003906 108.94005859 171.25003906 115.06005859 173.29003906 C114.73005859 170.65003906 114.40005859 168.01003906 114.06005859 165.29003906 C108.09525533 162.74108843 102.1951493 160.65888461 95.89599609 159.09863281 C93.58915568 158.44089732 91.44278379 157.68798104 89.21240234 156.82128906 C85.29727882 155.32619782 81.33383519 154.26764103 77.24755859 153.35253906 C76.5225415 153.18633057 75.79752441 153.02012207 75.05053711 152.84887695 C66.41043823 150.88551154 57.74261399 149.0550418 49.06005859 147.29003906 C48.33866699 147.14147461 47.61727539 146.99291016 46.87402344 146.83984375 C38.94420861 145.21762811 31.11920631 143.94770556 23.02490234 143.50097656 C19.6691209 143.26222531 16.38873607 142.77810464 13.06005859 142.29003906 C-14.01060182 138.72085214 -41.84803985 139.32873815 -68.93994141 142.29003906 Z M-41.93994141 166.29003906 C-45.12969372 166.34751208 -48.30198183 166.31171448 -51.49072266 166.25097656 C-54.602594 166.21414968 -56.96105199 166.29707592 -59.93994141 167.29003906 C-61.29338378 167.33432348 -62.6488453 167.32934494 -64.00244141 167.29003906 C-71.40697229 167.2180339 -78.39680972 168.09116135 -85.58447266 169.82128906 C-88.24680001 170.35110545 -90.8588883 170.58330104 -93.56494141 170.79003906 C-97.923053 171.12947474 -101.7459896 172.0239404 -105.93994141 173.29003906 C-107.88061415 173.51775013 -109.82128718 173.74545878 -111.76196289 173.97314453 C-115.99323451 174.58879194 -120.08335225 175.79680833 -124.20361328 176.91699219 C-127.89344786 177.88650599 -131.13532365 178.39140543 -134.93994141 178.29003906 C-135.92994141 178.62003906 -136.91994141 178.95003906 -137.93994141 179.29003906 C-137.93994141 179.95003906 -137.93994141 180.61003906 -137.93994141 181.29003906 C-138.74431641 180.94972656 -138.74431641 180.94972656 -139.56494141 180.60253906 C-143.04140004 180.1451103 -144.89949727 181.62077561 -147.93994141 183.29003906 C-151.98353273 185.13448423 -155.60767318 186.42358542 -159.93994141 187.29003906 C-163.72371263 188.26865276 -163.72371263 188.26865276 -166.93994141 190.29003906 C-168.0015356 193.8786743 -168.0015356 193.8786743 -167.93994141 197.29003906 C-162.18442824 195.7398394 -156.44195341 194.15393131 -150.71728516 192.49316406 C-114.21735993 182.00107662 -77.02037708 174.80357191 -38.93994141 174.29003906 C-38.08271484 174.27489258 -37.22548828 174.25974609 -36.34228516 174.24414062 C-30.20547696 174.145702 -24.07651342 174.19744873 -17.93994141 174.29003906 C-16.18665527 174.3088916 -16.18665527 174.3088916 -14.39794922 174.328125 C19.89675302 174.7571371 52.84327131 179.69418762 85.74755859 189.41503906 C88.51567153 190.22615263 91.28447391 191.03479769 94.05415344 191.84054565 C95.75374602 192.33564312 97.45239036 192.83401373 99.14982605 193.3364563 C104.41216722 194.87781525 109.69311215 196.16631233 115.06005859 197.29003906 C115.06005859 194.98003906 115.06005859 192.67003906 115.06005859 190.29003906 C85.85716666 179.8167712 56.09326752 171.00571095 25.06005859 168.22753906 C24.08810547 168.13666016 23.11615234 168.04578125 22.11474609 167.95214844 C18.26623927 167.60347582 14.48898613 167.28955164 10.62255859 167.29394531 C8.18128639 167.29022386 6.40252541 166.90227471 4.06005859 166.29003906 C1.73052633 166.04280097 -0.60374005 165.83827433 -2.93994141 165.66503906 C-4.76525391 165.52195313 -4.76525391 165.52195313 -6.62744141 165.37597656 C-9.44859121 165.30278636 -11.27758628 165.58879374 -13.93994141 166.29003906 C-14.92994141 165.96003906 -15.91994141 165.63003906 -16.93994141 165.29003906 C-17.89900391 165.53753906 -17.89900391 165.53753906 -18.87744141 165.79003906 C-20.93994141 166.29003906 -20.93994141 166.29003906 -22.62744141 165.82910156 C-25.77911601 165.09442066 -28.76981095 165.15824068 -32.00244141 165.16503906 C-33.23091797 165.16246094 -34.45939453 165.15988281 -35.72509766 165.15722656 C-38.95779349 165.14221231 -38.95779349 165.14221231 -41.93994141 166.29003906 Z M-143.93994141 215.29003906 C-143.84712891 216.80597656 -143.84712891 216.80597656 -143.75244141 218.35253906 C-143.75244141 228.2992732 -146.91249502 238.50194881 -149.29150391 248.09472656 C-155.6295926 279.32699492 -150.60456931 319.71368558 -133.62744141 347.13378906 C-131.93994141 350.29003906 -131.93994141 350.29003906 -132.01025391 352.52832031 C-133.06087813 354.51920908 -134.229608 355.88037481 -135.81494141 357.47753906 C-140.11014529 362.29931842 -141.6226588 367.38161519 -142.31494141 373.72753906 C-141.36150472 382.78518762 -138.51134232 389.84216072 -131.93994141 396.29003906 C-122.41285179 403.61119182 -112.37451843 405.79711829 -100.56494141 405.54003906 C-99.59427734 405.53488281 -98.62361328 405.52972656 -97.62353516 405.52441406 C-93.55685906 405.4795404 -89.86863406 405.41833698 -85.93994141 404.29003906 C-86.04693359 404.9075 -86.15392578 405.52496094 -86.26416016 406.16113281 C-87.15445772 412.45065433 -87.18820111 417.67563491 -83.93994141 423.29003906 C-80.16631272 427.4716276 -76.49093254 430.91134945 -70.70556641 431.52832031 C-64.89743858 431.69967812 -60.51503842 431.15465042 -55.93994141 427.29003906 C-52.07105212 423.43723663 -48.28618374 419.25855225 -45.93994141 414.29003906 C-45.93994141 412.97003906 -45.93994141 411.65003906 -45.93994141 410.29003906 C-50.88994141 407.81503906 -50.88994141 407.81503906 -55.93994141 405.29003906 C-55.93994141 404.63003906 -55.93994141 403.97003906 -55.93994141 403.29003906 C-54.05275391 403.53367187 -54.05275391 403.53367187 -52.12744141 403.78222656 C-44.59874576 404.53244518 -37.05739839 404.4392831 -29.49951172 404.42041016 C-26.94574039 404.41505123 -24.39214489 404.42038076 -21.83837891 404.42675781 C-13.80457655 404.42969414 -5.92206169 404.32051771 2.06005859 403.29003906 C1.06005859 406.29003906 1.06005859 406.29003906 -1.00634766 407.45800781 C-1.83005859 407.79445313 -2.65376953 408.13089844 -3.50244141 408.47753906 C-4.32873047 408.82171875 -5.15501953 409.16589844 -6.00634766 409.52050781 C-6.64443359 409.77445313 -7.28251953 410.02839844 -7.93994141 410.29003906 C-6.9207361 417.10072862 -3.01413369 422.7691986 2.18505859 427.22753906 C7.87781024 431.31146959 12.09991241 432.10641711 19.06005859 431.29003906 C25.04319959 429.65167463 28.10027518 426.58295129 31.14990234 421.29003906 C33.60668033 415.89145395 33.94005821 409.93003791 32.06005859 404.29003906 C33.13791626 404.53234253 33.13791626 404.53234253 34.23754883 404.77954102 C38.8491241 405.61362145 43.44777633 405.4744936 48.12255859 405.47753906 C49.11578125 405.48978516 50.10900391 405.50203125 51.13232422 405.51464844 C52.08945312 405.51658203 53.04658203 405.51851562 54.03271484 405.52050781 C54.90162354 405.5246167 55.77053223 405.52872559 56.66577148 405.53295898 C59.24576785 405.27119735 60.80940782 404.53193202 63.06005859 403.29003906 C63.86572266 403.13792969 64.67138672 402.98582031 65.50146484 402.82910156 C72.21040421 401.4156151 78.63699808 396.70345216 82.81005859 391.33300781 C86.8791715 384.68255141 89.39089333 377.08684863 88.06005859 369.29003906 C86.41472176 363.34219039 84.62585032 358.51233954 79.06005859 355.29003906 C78.40005859 355.29003906 77.74005859 355.29003906 77.06005859 355.29003906 C78.73547458 348.47851178 81.72093338 342.55757822 84.87060547 336.31738281 C87.19958887 331.56793384 88.54275252 327.62025605 89.06005859 322.29003906 C89.46894134 320.81707591 89.92196279 319.35501762 90.43505859 317.91503906 C90.83144531 316.76261719 90.83144531 316.76261719 91.23583984 315.58691406 C91.75767521 314.13269987 92.29490277 312.6838403 92.85302734 311.24316406 C99.24863818 293.97176831 98.44793127 273.11725875 95.06005859 255.29003906 C94.74319073 253.06148908 94.43073792 250.83230716 94.12255859 248.60253906 C93.52324426 244.61350285 92.70818923 240.92790812 91.43505859 237.10253906 C90.02976989 232.79532917 89.8319447 229.02543678 90.05224609 224.51660156 C90.15350491 222.27718004 90.15350491 222.27718004 89.50537109 220.12597656 C89.06005859 218.29003906 89.06005859 218.29003906 90.06005859 216.29003906 C83.51456238 217.24853176 77.15150395 218.50184671 70.74755859 220.16503906 C62.32774464 222.2767384 53.78342588 223.38963878 45.18505859 224.47753906 C44.18688614 224.60428009 44.18688614 224.60428009 43.16854858 224.73358154 C35.86503104 225.65289284 28.56786244 226.47705005 21.22753906 227.03735352 C18.88158752 227.23605903 18.88158752 227.23605903 16.06005859 228.29003906 C14.62932832 228.36006991 13.19545971 228.37441515 11.76318359 228.35253906 C10.89814209 228.34416016 10.03310059 228.33578125 9.1418457 228.32714844 C8.20735596 228.31490234 7.27286621 228.30265625 6.31005859 228.29003906 C-1.81173315 228.2306722 -9.89019006 228.39431948 -18.00244141 228.79003906 C-28.63341496 229.2982575 -39.11702831 229.75135786 -49.71337891 228.50878906 C-52.23053339 228.22485581 -52.23053339 228.22485581 -55.93994141 228.29003906 C-58.93994141 228.29003906 -58.93994141 228.29003906 -60.93994141 227.29003906 C-64.11309826 227.23120881 -67.26960848 227.26907723 -70.44189453 227.32910156 C-73.56796363 227.36584283 -75.94800271 227.28735196 -78.93994141 226.29003906 C-79.95056641 226.29003906 -80.96119141 226.29003906 -82.00244141 226.29003906 C-86.71463716 226.29003906 -91.26347921 225.82889222 -95.93994141 225.29003906 C-97.01727539 225.16685303 -98.09460938 225.04366699 -99.20458984 224.91674805 C-108.53621051 223.76645658 -117.55707883 221.93816365 -126.68994141 219.72753906 C-128.04135227 219.40723714 -129.3929146 219.08757361 -130.74462891 218.76855469 C-140.38190569 216.47605097 -140.38190569 216.47605097 -143.93994141 215.29003906 Z M-182.93994141 257.29003906 C-190.95301144 273.31617912 -180.38040183 297.81799078 -175.28369141 313.51660156 C-170.72944087 327.64881299 -170.72944087 327.64881299 -160.93994141 338.29003906 C-160.27994141 338.29003906 -159.61994141 338.29003906 -158.93994141 338.29003906 C-158.91093686 334.68588926 -158.89314123 331.08176945 -158.87744141 327.47753906 C-158.8690625 326.45337891 -158.86068359 325.42921875 -158.85205078 324.37402344 C-158.84882813 323.39111328 -158.84560547 322.40820312 -158.84228516 321.39550781 C-158.83704834 320.48953857 -158.83181152 319.58356934 -158.82641602 318.65014648 C-158.84073159 316.13719868 -158.84073159 316.13719868 -159.93994141 313.29003906 C-160.55869141 313.47566406 -161.17744141 313.66128906 -161.81494141 313.85253906 C-163.93994141 314.29003906 -163.93994141 314.29003906 -165.93994141 313.29003906 C-169.91449087 305.03632138 -171.30614246 298.16615377 -168.50244141 289.35253906 C-167.12611162 285.47620928 -167.12611162 285.47620928 -165.93994141 284.29003906 C-166.25970119 278.85412268 -167.56852779 275.5538857 -170.93994141 271.29003906 C-171.92994141 270.63003906 -172.91994141 269.97003906 -173.93994141 269.29003906 C-174.13330078 269.83273437 -174.32666016 270.37542969 -174.52587891 270.93457031 C-174.78626953 271.65 -175.04666016 272.36542969 -175.31494141 273.10253906 C-175.57017578 273.81023437 -175.82541016 274.51792969 -176.08837891 275.24707031 C-176.93994141 277.29003906 -176.93994141 277.29003906 -178.93994141 280.29003906 C-180.2911329 277.58765608 -180.07231269 275.42989461 -180.06494141 272.41503906 C-180.06751953 271.36574219 -180.07009766 270.31644531 -180.07275391 269.23535156 C-179.95992805 266.73327221 -179.66502903 264.67246983 -178.93994141 262.29003906 C-177.50254628 262.2629184 -176.06500278 262.24358839 -174.62744141 262.22753906 C-173.42667969 262.21013672 -173.42667969 262.21013672 -172.20166016 262.19238281 C-169.93994141 262.29003906 -169.93994141 262.29003906 -166.93994141 263.29003906 C-165.55417218 264.91336873 -164.21352872 266.57728371 -162.93994141 268.29003906 C-163.40225078 260.79676101 -163.40225078 260.79676101 -166.93994141 254.29003906 C-173.2732377 250.06784154 -178.57594627 251.38581034 -182.93994141 257.29003906 Z M112.06005859 256.29003906 C109.50854989 260.81535638 108.67030304 265.09329832 109.06005859 270.29003906 C109.89537109 269.14535156 109.89537109 269.14535156 110.74755859 267.97753906 C113.08425058 265.26192405 114.82618775 263.78866214 118.06005859 262.29003906 C120.87255859 262.10253906 120.87255859 262.10253906 123.06005859 262.29003906 C125.21065168 265.82190738 125.43983139 268.95291899 125.68505859 273.04003906 C125.75982422 274.21050781 125.83458984 275.38097656 125.91162109 276.58691406 C125.96060547 277.47894531 126.00958984 278.37097656 126.06005859 279.29003906 C125.40005859 279.29003906 124.74005859 279.29003906 124.06005859 279.29003906 C123.40005859 275.99003906 122.74005859 272.69003906 122.06005859 269.29003906 C120.74005859 269.29003906 119.42005859 269.29003906 118.06005859 269.29003906 C114.95891274 272.65866919 111.94442689 277.66477107 112.06005859 282.29003906 C112.95195655 284.39267773 113.98115692 286.37524149 115.06787109 288.38378906 C117.74597451 293.52912162 117.93469299 299.91214072 116.49365234 305.47753906 C115.21973163 309.10587868 114.11141311 311.81851439 111.06005859 314.29003906 C108.87255859 314.97753906 108.87255859 314.97753906 107.06005859 315.29003906 C106.86549155 317.24768289 106.67961612 319.20619227 106.49755859 321.16503906 C106.39314453 322.25558594 106.28873047 323.34613281 106.18115234 324.46972656 C105.83366455 327.24155929 105.83366455 327.24155929 107.06005859 329.29003906 C107.09972989 330.95623352 107.10390306 332.6239492 107.06005859 334.29003906 C109.38965329 334.79245228 109.38965329 334.79245228 112.06005859 334.29003906 C115.55685949 329.86903438 117.35926481 325.2886436 119.12255859 319.97753906 C119.38222412 319.21626709 119.64188965 318.45499512 119.90942383 317.6706543 C120.41514801 316.1846816 120.91735546 314.69750598 121.41552734 313.20898438 C121.90912345 311.73941414 122.41862198 310.27517661 122.93505859 308.81347656 C124.74688931 303.64564123 126.20392666 298.37246641 127.68505859 293.10253906 C127.90363525 292.32918213 128.12221191 291.5558252 128.34741211 290.7590332 C131.53502666 279.25406678 133.78304968 265.29579115 128.06005859 254.29003906 C126.08497767 251.89279962 126.08497767 251.89279962 122.31005859 251.91503906 C117.87323779 252.05998058 115.36646126 253.21431565 112.06005859 256.29003906 Z M108.06005859 270.29003906 C109.06005859 272.29003906 109.06005859 272.29003906 109.06005859 272.29003906 Z M107.06005859 291.29003906 C107.06005859 293.60003906 107.06005859 295.91003906 107.06005859 298.29003906 C107.72005859 298.29003906 108.38005859 298.29003906 109.06005859 298.29003906 C108.73005859 295.98003906 108.40005859 293.67003906 108.06005859 291.29003906 C107.73005859 291.29003906 107.40005859 291.29003906 107.06005859 291.29003906 Z M-162.93994141 299.29003906 C-162.93994141 302.26003906 -162.93994141 305.23003906 -162.93994141 308.29003906 C-162.27994141 308.29003906 -161.61994141 308.29003906 -160.93994141 308.29003906 C-160.93994141 305.32003906 -160.93994141 302.35003906 -160.93994141 299.29003906 C-161.59994141 299.29003906 -162.25994141 299.29003906 -162.93994141 299.29003906 Z M107.06005859 302.29003906 C108.05005859 303.77503906 108.05005859 303.77503906 109.06005859 305.29003906 C109.06005859 304.30003906 109.06005859 303.31003906 109.06005859 302.29003906 C108.40005859 302.29003906 107.74005859 302.29003906 107.06005859 302.29003906 Z M-161.93994141 309.29003906 C-160.93994141 311.29003906 -160.93994141 311.29003906 -160.93994141 311.29003906 Z M-109.93994141 533.29003906 C-108.93994141 535.29003906 -108.93994141 535.29003906 -108.93994141 535.29003906 Z " fill="#FFFFFF" transform="translate(326.93994140625,3.7099609375)"/>
<path d="M0 0 C-0.22816406 0.64066406 -0.45632813 1.28132813 -0.69140625 1.94140625 C-2.53030996 7.47460979 -3.36198842 11.30441206 -2 17 C-0.35 17.66 1.3 18.32 3 19 C3 18.34 3 17.68 3 17 C8.98736016 17.09657033 12.21070961 17.8292116 17 21.5 C21.58127359 24.93950107 25.20035375 26.73280729 31 26 C36.03802833 24.34490766 39.9882379 21.42179709 44 18 C46.95664519 16.5216774 49.74229737 16.93967217 53 17 C53.33 17.66 53.66 18.32 54 19 C55.65 18.67 57.3 18.34 59 18 C59.31985731 11.28299653 58.4793824 6.24273068 56 0 C58.69153846 0.0769011 60.43251747 0.45924103 62.41015625 2.34375 C65.89046967 6.808292 67 10.34534528 67 16 C65.863648 19.85097067 65.05286211 22.19274225 61.83984375 24.65625 C58.35254608 26.30636059 55.53086519 26.5079035 51.6875 26.6875 C50.43324219 26.75324219 49.17898438 26.81898438 47.88671875 26.88671875 C46.45779297 26.94279297 46.45779297 26.94279297 45 27 C45 27.66 45 28.32 45 29 C45.98355469 28.6390625 46.96710938 28.278125 47.98046875 27.90625 C52.42076887 26.64747681 55.91592525 27.36381211 60.3125 28.5 C61.05580566 28.68216064 61.79911133 28.86432129 62.56494141 29.05200195 C67.97112086 30.47972747 72.48830016 32.54508461 77.1171875 35.73046875 C79.07793813 37.17496653 79.07793813 37.17496653 82 38 C82 38.66 82 39.32 82 40 C83.32 40.33 84.64 40.66 86 41 C86 41.66 86 42.32 86 43 C86.99 43 87.98 43 89 43 C89 43.66 89 44.32 89 45 C89.99 45 90.98 45 92 45 C92 45.66 92 46.32 92 47 C92.66 47 93.32 47 94 47 C94 47.66 94 48.32 94 49 C94.57878906 49.27714844 95.15757812 49.55429687 95.75390625 49.83984375 C97.92438848 50.96094501 99.90326221 52.21305513 101.9375 53.5625 C105.01771986 55.48763741 107.31797982 56.73058389 111 57 C112.07121094 57.0928125 112.07121094 57.0928125 113.1640625 57.1875 C116.97518727 57.3861254 119.29412658 57.42016275 122.625 55.4375 C124.28358513 52.94913463 124.28358513 52.94913463 124.0625 49.4375 C123.31349422 45.93148386 123.31349422 45.93148386 120.8125 44.125 C117.85596323 42.94238529 115.15719348 42.36711552 112 42 C113.0625 39.5625 113.0625 39.5625 115 37 C119.82274287 35.48698263 123.52067492 35.92897856 128.07421875 37.84765625 C132.59292235 40.55154583 136.10020815 45.11482096 138 50 C138.23046875 53.05859375 138.23046875 53.05859375 138.1875 56.4375 C138.17783203 58.10619141 138.17783203 58.10619141 138.16796875 59.80859375 C138.01836796 62.65100884 137.64625807 65.23401547 137 68 C136.34 68 135.68 68 135 68 C134.814375 68.70125 134.62875 69.4025 134.4375 70.125 C131.25796521 76.48406957 124.59971699 80.70109858 118 83 C102.28212491 86.9083426 87.63445605 83.53734218 72.375 79.5625 C71.56804687 79.35818359 70.76109375 79.15386719 69.9296875 78.94335938 C66.23657469 77.98111164 62.71678803 76.95680601 59.2265625 75.40234375 C53.22770082 72.79509031 47.61072258 72.83989664 41.16796875 72.83203125 C40.2173909 72.82870285 39.26681305 72.82537445 38.28742981 72.82194519 C36.27943402 72.81689157 34.27142987 72.81453638 32.26342773 72.81469727 C29.20867898 72.81251513 26.1542941 72.79435464 23.09960938 72.77539062 C21.14323039 72.77245542 19.18684971 72.77047148 17.23046875 72.76953125 C16.32499802 72.76234573 15.41952728 72.75516022 14.48661804 72.74775696 C6.24834727 72.77708695 -0.81187257 74.84910761 -8.5625 77.5 C-20.91632048 81.71649648 -32.25267252 84.17556995 -45.3125 84.1875 C-46.16030029 84.18830566 -47.00810059 84.18911133 -47.8815918 84.18994141 C-58.49252135 84.09599319 -67.08536972 82.42174442 -75.15625 75.0234375 C-80.44496978 68.86073436 -83.06233979 61.66401553 -82.97265625 53.515625 C-82.02221802 47.32175786 -78.66316032 43.03888328 -74 39 C-70.43960577 36.5871059 -67.60104428 35.95993038 -63.25 36.25 C-60 37 -60 37 -57 38 C-57 38.99 -57 39.98 -57 41 C-57.71027344 41.27714844 -58.42054688 41.55429687 -59.15234375 41.83984375 C-60.53099609 42.38318359 -60.53099609 42.38318359 -61.9375 42.9375 C-63.31228516 43.47697266 -63.31228516 43.47697266 -64.71484375 44.02734375 C-66.92418533 44.7996218 -66.92418533 44.7996218 -68 46 C-68.49480912 50.72651177 -68.49480912 50.72651177 -66.625 54.875 C-62.90595506 57.44972342 -59.39619722 57.54858529 -55 57 C-49.44526204 55.19213419 -44.7870646 52.26921485 -40 49 C-39.34 49 -38.68 49 -38 49 C-38 48.34 -38 47.68 -38 47 C-36.02 46.505 -36.02 46.505 -34 46 C-34 45.34 -34 44.68 -34 44 C-30.87591771 41.23295569 -27.56745032 39.13522394 -24 37 C-23.15824219 36.4328125 -22.31648438 35.865625 -21.44921875 35.28125 C-13.2023371 29.9621863 -5.55142667 28.27271548 4 27 C3.40832031 26.92523438 2.81664062 26.85046875 2.20703125 26.7734375 C-2.08410046 26.05941558 -4.59928813 25.31893394 -8.0625 22.5625 C-10.61209811 18.90360307 -10.8139829 15.13375809 -10.62890625 10.76953125 C-9.42799249 5.48103524 -5.72807619 0 0 0 Z M22 33 C25.58557862 36.36297224 25.58557862 36.36297224 29.125 35.8125 C32.10154442 35.22389082 32.10154442 35.22389082 34 33 C30.04 33 26.08 33 22 33 Z M27 55 C26.38511719 55.72316406 26.38511719 55.72316406 25.7578125 56.4609375 C25.21898437 57.09257812 24.68015625 57.72421875 24.125 58.375 C23.59132813 59.00148438 23.05765625 59.62796875 22.5078125 60.2734375 C21.38567993 61.55836651 20.20628025 62.79371975 19 64 C25.27 64 31.54 64 38 64 C35.33484494 61.33484494 33.24911697 59.32631175 30.25 57.25 C29.1775 56.5075 28.105 55.765 27 55 Z " fill="#FFFFFF" transform="translate(272,321)"/>
<path d="M0 0 C0.79954102 0.1640332 1.59908203 0.32806641 2.42285156 0.49707031 C4.62097336 0.95458528 6.81068273 1.43974062 9 1.9375 C10.85625 2.35322266 10.85625 2.35322266 12.75 2.77734375 C16.56249458 4.21161154 18.46954495 5.82976952 21 9 C21.14484666 13.12812982 20.72448077 15.13529714 18.0625 18.3125 C13.87543857 20.6196563 9.69525099 21.30710859 5 22 C5.42152344 22.42410156 5.84304688 22.84820312 6.27734375 23.28515625 C10.23246072 27.51945795 11.7628617 30.19011172 12 36 C7.65136348 35.43555175 4.82172345 33.84572036 1.1875 31.4375 C0.21167969 30.79683594 -0.76414062 30.15617187 -1.76953125 29.49609375 C-2.50558594 29.00238281 -3.24164063 28.50867188 -4 28 C-4.2784375 28.59425781 -4.556875 29.18851562 -4.84375 29.80078125 C-6.74300791 33.41322113 -9.29776882 37.14888441 -13 39 C-15.12235807 39.1229938 -17.24911463 39.17555682 -19.375 39.1875 C-21.08816406 39.20876953 -21.08816406 39.20876953 -22.8359375 39.23046875 C-25.83936816 39.01170034 -27.47925934 38.57080637 -30 37 C-30 36.34 -30 35.68 -30 35 C-30.99 34.67 -31.98 34.34 -33 34 C-33 33.34 -33 32.68 -33 32 C-33.99 31.505 -33.99 31.505 -35 31 C-34.505 30.01 -34.505 30.01 -34 29 C-35.27259511 29.45341868 -36.54301243 29.91295227 -37.8125 30.375 C-38.52019531 30.63023437 -39.22789062 30.88546875 -39.95703125 31.1484375 C-42.24773359 32.0265769 -42.24773359 32.0265769 -45 34 C-48.42017557 34.39958487 -51.87293041 34.5635348 -55 33 C-54.63316498 30.41548051 -54.28008474 29.2546817 -52.3203125 27.47265625 C-41.94948433 20.81096769 -32.15366735 17.18233735 -20 15 C-36.21837505 11.12597519 -47.48445569 13.08267422 -63.20336914 18.46508789 C-65 19 -65 19 -67 19 C-67.08223611 15.05266687 -66.83797673 12.98914848 -64.24609375 9.9296875 C-52.29824144 -1 -52.29824144 -1 -45 -1 C-44.67 -1.66 -44.34 -2.32 -44 -3 C-29.79794892 -7.57354187 -14.15835222 -2.99513946 0 0 Z " fill="#FFFFFF" transform="translate(258,238)"/>
<path d="M0 0 C3.10930698 2.86355419 5.74444934 5.69958168 8.2734375 9.09375 C8.2734375 10.08375 8.2734375 11.07375 8.2734375 12.09375 C2.41247741 10.18351115 -3.38045649 8.13657946 -9.1484375 5.9609375 C-20.79333711 2.04401672 -31.28901674 5.15229162 -42.7265625 8.09375 C-41.82035156 8.13113281 -40.91414063 8.16851562 -39.98046875 8.20703125 C-25.30659373 8.99895466 -14.88916654 13.27768386 -3.7265625 23.09375 C-3.3965625 24.08375 -3.0665625 25.07375 -2.7265625 26.09375 C-3.7265625 27.09375 -3.7265625 27.09375 -7.6640625 27.53125 C-13.74896967 27.51174709 -17.85058719 24.42121142 -22.7265625 21.09375 C-23.3865625 20.76375 -24.0465625 20.43375 -24.7265625 20.09375 C-24.8090625 21.00125 -24.8915625 21.90875 -24.9765625 22.84375 C-25.841848 26.59332052 -26.72403317 27.75844941 -29.7265625 30.09375 C-34.2762815 32.43009219 -39.1053078 33.84449771 -44.140625 32.40234375 C-48.65169443 30.5764347 -48.65169443 30.5764347 -50.7265625 29.09375 C-51.44921875 27.08984375 -51.44921875 27.08984375 -51.7265625 25.09375 C-51.9121875 24.35125 -52.0978125 23.60875 -52.2890625 22.84375 C-52.4334375 22.26625 -52.5778125 21.68875 -52.7265625 21.09375 C-56.26524828 22.16607902 -58.53825347 23.70324154 -61.2265625 26.15625 C-63.97980858 28.61557656 -65.90181907 29.98447162 -69.7265625 30.09375 C-70.3865625 29.76375 -71.0465625 29.43375 -71.7265625 29.09375 C-71.81357343 25.61331285 -71.19544014 23.61680467 -68.8671875 21.01953125 C-64.77154613 17.30184336 -60.85452766 14.19753058 -55.7265625 12.09375 C-57.1496875 12.34125 -57.1496875 12.34125 -58.6015625 12.59375 C-64.4348122 13.3999715 -70.3229462 14.17292466 -75.7890625 11.71875 C-77.7265625 10.09375 -77.7265625 10.09375 -78.7265625 8.09375 C-78.76678641 5.7607634 -78.76976497 3.42668334 -78.7265625 1.09375 C-71.74248683 -3.06365641 -64.3866325 -4.55694682 -56.51831055 -6.14379883 C-54.29538407 -6.59247406 -52.07636581 -7.05745674 -49.85742188 -7.52539062 C-31.07760899 -11.44079811 -15.50030303 -13.10435713 0 0 Z " fill="#FFFFFF" transform="translate(400.7265625,244.90625)"/>
<path d="M0 0 C1.33767018 0.3154796 2.67029583 0.65247199 4 1 C5.50117961 1.13031831 7.00606199 1.22191377 8.51171875 1.28125 C9.35154297 1.31863281 10.19136719 1.35601562 11.05664062 1.39453125 C12.82224688 1.46531279 14.58787225 1.53561912 16.35351562 1.60546875 C17.60745117 1.66154297 17.60745117 1.66154297 18.88671875 1.71875 C20.03466919 1.76418945 20.03466919 1.76418945 21.20581055 1.81054688 C23 2 23 2 24 3 C24.25035974 6.30516934 24.18521952 9.62396041 24.1875 12.9375 C24.19974609 13.87013672 24.21199219 14.80277344 24.22460938 15.76367188 C24.22654297 16.65505859 24.22847656 17.54644531 24.23046875 18.46484375 C24.23457764 19.285896 24.23868652 20.10694824 24.24291992 20.95288086 C24 23 24 23 22 25 C18.9609375 25.4140625 18.9609375 25.4140625 15.375 25.625 C14.18648438 25.69976562 12.99796875 25.77453125 11.7734375 25.8515625 C10.40058594 25.92503906 10.40058594 25.92503906 9 26 C9.99902344 26.13277344 10.99804688 26.26554687 12.02734375 26.40234375 C13.31769531 26.57894531 14.60804688 26.75554687 15.9375 26.9375 C17.22527344 27.11152344 18.51304687 27.28554687 19.83984375 27.46484375 C23 28 23 28 24 29 C24.08631874 30.34267413 24.10706473 31.68974322 24.09765625 33.03515625 C24.09443359 33.84404297 24.09121094 34.65292969 24.08789062 35.48632812 C24.07532227 36.7615332 24.07532227 36.7615332 24.0625 38.0625 C24.05798828 38.91650391 24.05347656 39.77050781 24.04882812 40.65039062 C24.03700373 42.76695663 24.01906769 44.88348685 24 47 C23.21496094 46.8040625 22.42992187 46.608125 21.62109375 46.40625 C20.75613281 46.2721875 19.89117187 46.138125 19 46 C18.360625 46.495 17.72125 46.99 17.0625 47.5 C15 49 15 49 12.265625 48.80859375 C8.60343417 47.90180726 5.91944691 46.49844827 2.6875 44.5625 C1.63949219 43.94503906 0.59148437 43.32757813 -0.48828125 42.69140625 C-3 41 -3 41 -4 39 C-5.84971696 37.94978897 -5.84971696 37.94978897 -8 37 C-9.33333333 36.33333333 -10.66666667 35.66666667 -12 35 C-12 34.01 -12 33.02 -12 32 C-12.99 31.67 -13.98 31.34 -15 31 C-14.6875 29.0625 -14.6875 29.0625 -14 27 C-13.01 26.67 -12.02 26.34 -11 26 C-12.5778125 26.0928125 -12.5778125 26.0928125 -14.1875 26.1875 C-18 25 -18 25 -19.5078125 22.80078125 C-26.16786649 8.50359948 -26.16786649 8.50359948 -24 2 C-23.30849854 1.97494385 -22.61699707 1.9498877 -21.90454102 1.92407227 C-18.79032134 1.80847839 -15.67643211 1.68558758 -12.5625 1.5625 C-10.92958008 1.50352539 -10.92958008 1.50352539 -9.26367188 1.44335938 C-8.22919922 1.40146484 -7.19472656 1.35957031 -6.12890625 1.31640625 C-5.17056885 1.27974854 -4.21223145 1.24309082 -3.22485352 1.20532227 C-1.02861075 1.24165576 -1.02861075 1.24165576 0 0 Z M-2 7 C-1 9 -1 9 -1 9 Z M-1 9 C0 11 0 11 0 11 Z M-3.125 24.5 C-5.043125 24.7475 -5.043125 24.7475 -7 25 C-5.21342243 27.21370051 -5.21342243 27.21370051 -2.8359375 27.1953125 C-2.02382813 27.17210937 -1.21171875 27.14890625 -0.375 27.125 C0.44226563 27.10695313 1.25953125 27.08890625 2.1015625 27.0703125 C2.72804688 27.04710937 3.35453125 27.02390625 4 27 C3.67 26.01 3.34 25.02 3 24 C0.91103575 24 -1.05372935 24.23273927 -3.125 24.5 Z M5 26 C4.67 26.99 4.34 27.98 4 29 C4.99 29.33 5.98 29.66 7 30 C7 28.68 7 27.36 7 26 C6.34 26 5.68 26 5 26 Z " fill="#FFFFFF" transform="translate(275,74)"/>
<path d="M0 0 C0.33 1.32 0.66 2.64 1 4 C1.33 2.68 1.66 1.36 2 0 C9.26 0 16.52 0 24 0 C25.32779316 3.98337948 24.26962464 6.94519669 23.25 10.875 C23.07984375 11.58269531 22.9096875 12.29039063 22.734375 13.01953125 C21.70282506 17.09263654 20.58524388 20.60280767 18 24 C12.76148022 25.36201514 7.38314726 25.08281765 2 25 C5.96 25.33 9.92 25.66 14 26 C14 31 14 31 12.19921875 33.24609375 C3.59852264 40.74996703 -4.31122394 46.61676144 -16 47 C-15.34 45.02 -14.68 43.04 -14 41 C-16.25162472 42.04539719 -18.14589161 43.11156417 -20.125 44.625 C-22 46 -22 46 -24 46 C-24 39.73 -24 33.46 -24 27 C-19.71 26.34 -15.42 25.68 -11 25 C-12.959375 24.855625 -14.91875 24.71125 -16.9375 24.5625 C-22.875 24.125 -22.875 24.125 -24 23 C-24.08700342 21.36527118 -24.10701063 19.72685945 -24.09765625 18.08984375 C-24.09443359 17.10048828 -24.09121094 16.11113281 -24.08789062 15.09179688 C-24.07951172 14.05087891 -24.07113281 13.00996094 -24.0625 11.9375 C-24.05798828 10.89271484 -24.05347656 9.84792969 -24.04882812 8.77148438 C-24.03699913 6.1809334 -24.02051689 3.59049441 -24 1 C-20.93758173 0.83170223 -17.87508013 0.66530338 -14.8125 0.5 C-13.94818359 0.45230469 -13.08386719 0.40460938 -12.19335938 0.35546875 C-8.12442913 0.13721196 -4.07665227 -0.06752219 0 0 Z M0 6 C1 10 1 10 1 10 Z M-1 10 C-1.33 12.31 -1.66 14.62 -2 17 C-1.34 16.67 -0.68 16.34 0 16 C0.65555119 13.47266765 0.65555119 13.47266765 1 11 C0.34 10.67 -0.32 10.34 -1 10 Z M-3 20 C-3.33 21.65 -3.66 23.3 -4 25 C-5.65 25 -7.3 25 -9 25 C-8.01 25.495 -8.01 25.495 -7 26 C-6.67 26.99 -6.34 27.98 -6 29 C-5.67 28.01 -5.34 27.02 -5 26 C-3.68 26 -2.36 26 -1 26 C-1.33 24.02 -1.66 22.04 -2 20 C-2.33 20 -2.66 20 -3 20 Z M-9 32 C-8 34 -8 34 -8 34 Z " fill="#FFFFFF" transform="translate(326,75)"/>
<path d="M0 0 C0.72832031 0.05285156 1.45664062 0.10570312 2.20703125 0.16015625 C7.54364698 0.58432349 7.54364698 0.58432349 9.875 1.75 C9.875 9.01 9.875 16.27 9.875 23.75 C5.91668727 23.91716856 1.95835167 24.08375822 -2 24.25 C-3.69189453 24.32154297 -3.69189453 24.32154297 -5.41796875 24.39453125 C-6.49433594 24.43964844 -7.57070313 24.48476562 -8.6796875 24.53125 C-9.67468262 24.57314453 -10.66967773 24.61503906 -11.69482422 24.65820312 C-13.17081383 24.7139568 -14.64795776 24.75 -16.125 24.75 C-16.785 25.08 -17.445 25.41 -18.125 25.75 C-18.785 25.42 -19.445 25.09 -20.125 24.75 C-21.4984635 24.59995027 -22.8778526 24.50161994 -24.2578125 24.43359375 C-25.46630859 24.37075195 -25.46630859 24.37075195 -26.69921875 24.30664062 C-27.54097656 24.26732422 -28.38273437 24.22800781 -29.25 24.1875 C-30.09949219 24.14431641 -30.94898438 24.10113281 -31.82421875 24.05664062 C-33.92428223 23.95045764 -36.02461948 23.84971503 -38.125 23.75 C-38.74291539 14.56709073 -37.21696797 8.38795195 -32.125 0.75 C-30.15380859 0.40942383 -30.15380859 0.40942383 -27.7734375 0.45703125 C-26.92265625 0.46669922 -26.071875 0.47636719 -25.1953125 0.48632812 C-24.30585938 0.51146484 -23.41640625 0.53660156 -22.5 0.5625 C-21.15421875 0.58280273 -21.15421875 0.58280273 -19.78125 0.60351562 C-17.56190211 0.63893075 -15.34374812 0.68831539 -13.125 0.75 C-12.795 1.41 -12.465 2.07 -12.125 2.75 C-11.63257813 2.24984375 -11.14015625 1.7496875 -10.6328125 1.234375 C-7.09304127 -0.86081669 -3.94378341 -0.37391864 0 0 Z M-14.125 6.75 C-13.125 9.75 -13.125 9.75 -13.125 9.75 Z M-16.125 14.75 C-15.125 18.75 -15.125 18.75 -15.125 18.75 Z " fill="#FFFFFF" transform="translate(289.125,48.25)"/>
<path d="M0 0 C1.99788438 0.34578768 3.99759451 0.68143549 6 1 C6 1.66 6 2.32 6 3 C7.98 3.66 9.96 4.32 12 5 C12 5.66 12 6.32 12 7 C12.8353125 7.0928125 12.8353125 7.0928125 13.6875 7.1875 C18.60728023 8.91607143 21.7801024 13.44336808 24 18 C24 19.32 24 20.64 24 22 C24.60457031 22.05542969 25.20914063 22.11085938 25.83203125 22.16796875 C28 23 28 23 29.44921875 25.36328125 C29.85785156 26.33652344 30.26648438 27.30976562 30.6875 28.3125 C31.10386719 29.27800781 31.52023437 30.24351563 31.94921875 31.23828125 C34.14599323 37.01195991 34 40.37524639 34 47 C26.74 47 19.48 47 12 47 C11.27091786 43.35458928 10.60391411 39.72844738 10 36.0625 C9.7525 34.56396484 9.7525 34.56396484 9.5 33.03515625 C9.2525 31.53275391 9.2525 31.53275391 9 30 C8.79375 28.92621094 8.5875 27.85242188 8.375 26.74609375 C8 24 8 24 9 22 C8.01 21.67 7.02 21.34 6 21 C4.89453125 18.9609375 4.89453125 18.9609375 3.8125 16.375 C1.23562934 10.87346019 -2.18825777 7.60582172 -7 4 C-6.625 2.0625 -6.625 2.0625 -6 0 C-3.42888996 -1.28555502 -2.73017334 -0.75838148 0 0 Z M14 21 C14.33 21.66 14.66 22.32 15 23 C15.33 22.34 15.66 21.68 16 21 C15.34 21 14.68 21 14 21 Z M17 21 C16.67 21.66 16.34 22.32 16 23 C16.99 22.67 17.98 22.34 19 22 C18.34 21.67 17.68 21.34 17 21 Z " fill="#FFFFFF" transform="translate(316,26)"/>
<path d="M0 0 C0 0.66 0 1.32 0 2 C0.99 2.33 1.98 2.66 3 3 C3.66 2.34 4.32 1.68 5 1 C5.99 1 6.98 1 8 1 C8 6.94 8 12.88 8 19 C4.95786733 20.52106634 1.71952428 20.37429338 -1.625 20.5625 C-2.33140625 20.60568359 -3.0378125 20.64886719 -3.765625 20.69335938 C-5.51018537 20.79944751 -7.25506697 20.90022889 -9 21 C-9.33 20.01 -9.66 19.02 -10 18 C-10.350625 18.48984375 -10.70125 18.9796875 -11.0625 19.484375 C-13.96531886 21.75512846 -16.37400402 21.32554158 -20 21.25 C-21.85625 21.22679687 -21.85625 21.22679687 -23.75 21.203125 C-27 21 -27 21 -30 20 C-29.125 15.25 -29.125 15.25 -28 13 C-27.34 13 -26.68 13 -26 13 C-25.67 12.01 -25.34 11.02 -25 10 C-20.65714286 6 -20.65714286 6 -17 6 C-17 5.34 -17 4.68 -17 4 C-15.11157486 3.12957757 -13.21388098 2.27924526 -11.3125 1.4375 C-10.25675781 0.96183594 -9.20101563 0.48617188 -8.11328125 -0.00390625 C-4.83366107 -1.05322011 -3.24104461 -1.00418265 0 0 Z M-2 4 C-2.33 4.66 -2.66 5.32 -3 6 C-2.34 6 -1.68 6 -1 6 C-1.33 5.34 -1.66 4.68 -2 4 Z M-4 7 C-3 9 -3 9 -3 9 Z M-6 9 C-6.33 10.32 -6.66 11.64 -7 13 C-6.01 12.01 -5.02 11.02 -4 10 C-4.66 9.67 -5.32 9.34 -6 9 Z M-9 13 C-8.67 13.66 -8.34 14.32 -8 15 C-7.67 14.34 -7.34 13.68 -7 13 C-7.66 13 -8.32 13 -9 13 Z M-10 15 C-9 17 -9 17 -9 17 Z " fill="#FFFFFF" transform="translate(291,26)"/>
<path d="M0 0 C1.18613892 0.00785522 1.18613892 0.00785522 2.39624023 0.01586914 C3.67724609 0.02070312 3.67724609 0.02070312 4.98413086 0.02563477 C5.88196289 0.03401367 6.77979492 0.04239258 7.70483398 0.05102539 C8.6065332 0.05553711 9.50823242 0.06004883 10.43725586 0.06469727 C12.67234712 0.07652315 14.90730835 0.09300319 17.14233398 0.11352539 C17.82119385 2.61075991 18.48550826 5.1104868 19.14233398 7.61352539 C19.33311523 8.30961914 19.52389648 9.00571289 19.72045898 9.72290039 C20.99910411 14.65481729 21.32590873 19.0193263 21.14233398 24.11352539 C20.48233398 24.44352539 19.82233398 24.77352539 19.14233398 25.11352539 C18.15233398 24.78352539 17.16233398 24.45352539 16.14233398 24.11352539 C14.66267472 23.96779481 13.17829555 23.86689271 11.69311523 23.79711914 C10.42177734 23.73427734 10.42177734 23.73427734 9.12475586 23.67016602 C8.24368164 23.63084961 7.36260742 23.5915332 6.45483398 23.55102539 C5.11582031 23.48625 5.11582031 23.48625 3.74975586 23.42016602 C1.5474329 23.31417186 -0.65500075 23.21210488 -2.85766602 23.11352539 C-2.88654113 19.46770852 -2.90442187 15.82192076 -2.92016602 12.17602539 C-2.92854492 11.13510742 -2.93692383 10.09418945 -2.94555664 9.02172852 C-2.95039063 7.53769531 -2.95039063 7.53769531 -2.95532227 6.02368164 C-2.96055908 5.10723877 -2.9657959 4.1907959 -2.97119141 3.24658203 C-2.82745578 0.54589775 -2.70485144 0.16529845 0 0 Z " fill="#FFFFFF" transform="translate(304.857666015625,48.886474609375)"/>
<path d="M0 0 C0.99 0 1.98 0 3 0 C3.05800604 12.08182942 2.93014632 24.14983545 2.62768555 36.22802734 C2.56135591 38.92145762 2.50229554 41.61499266 2.44335938 44.30859375 C2.40147942 46.036469 2.35917818 47.7643341 2.31640625 49.4921875 C2.29969376 50.29002655 2.28298126 51.0878656 2.26576233 51.90988159 C2.17139476 55.42256612 1.93658635 58.61641423 1 62 C0.01 62 -0.98 62 -2 62 C-3.59149663 51.29539952 -4.37287966 40.78430396 -4.37060547 29.96142578 C-4.37503745 27.60508878 -4.41171343 25.25054709 -4.44921875 22.89453125 C-4.50857859 14.60568031 -4.0895814 7.440026 0 0 Z " fill="#FFFFFF" transform="translate(317,258)"/>
<path d="M0 0 C4.43932557 1.35213959 6.46366216 2.08020515 9 6 C9.70125 6.680625 10.4025 7.36125 11.125 8.0625 C13 10 13 10 14 13 C14.66 13.66 15.32 14.32 16 15 C16 16.32 16 17.64 16 19 C13.52076199 19.02685095 11.0418116 19.04676547 8.5625 19.0625 C7.85544922 19.07087891 7.14839844 19.07925781 6.41992188 19.08789062 C4.61306441 19.09653588 2.80612397 19.05220011 1 19 C0 18 0 18 -0.11352539 16.23413086 C-0.10828857 15.48526611 -0.10305176 14.73640137 -0.09765625 13.96484375 C-0.09443359 13.15595703 -0.09121094 12.34707031 -0.08789062 11.51367188 C-0.07951172 10.66353516 -0.07113281 9.81339844 -0.0625 8.9375 C-0.05798828 8.08349609 -0.05347656 7.22949219 -0.04882812 6.34960938 C-0.03700373 4.23304337 -0.01906769 2.11651315 0 0 Z " fill="#FFFFFF" transform="translate(302,27)"/>
<path d="M0 0 C2 1 2 1 2 1 Z " fill="#FFFFFF" transform="translate(393,404)"/>
<path d="" fill="#FFFFFF" transform="translate(0,0)"/>
<path d="" fill="#FFFFFF" transform="translate(0,0)"/>
<path d="" fill="#FFFFFF" transform="translate(0,0)"/>
<path d="" fill="#FFFFFF" transform="translate(0,0)"/>
<path d="" fill="#FFFFFF" transform="translate(0,0)"/>
<path d="" fill="#FFFFFF" transform="translate(0,0)"/>
<path d="" fill="#FFFFFF" transform="translate(0,0)"/>
<path d="" fill="#FFFFFF" transform="translate(0,0)"/>
<path d="" fill="#FFFFFF" transform="translate(0,0)"/>
<path d="" fill="#FFFFFF" transform="translate(0,0)"/>
<path d="" fill="#FFFFFF" transform="translate(0,0)"/>
<path d="" fill="#FFFFFF" transform="translate(0,0)"/>
<path d="" fill="#FFFFFF" transform="translate(0,0)"/>
<path d="" fill="#FFFFFF" transform="translate(0,0)"/>
<path d="" fill="#FFFFFF" transform="translate(0,0)"/>
<path d="" fill="#FFFFFF" transform="translate(0,0)"/>
<path d="" fill="#FFFFFF" transform="translate(0,0)"/>
<path d="" fill="#FFFFFF" transform="translate(0,0)"/>
<path d="" fill="#FFFFFF" transform="translate(0,0)"/>
<path d="" fill="#FFFFFF" transform="translate(0,0)"/>
<path d="" fill="#FFFFFF" transform="translate(0,0)"/>
<path d="" fill="#FFFFFF" transform="translate(0,0)"/>
<path d="" fill="#FFFFFF" transform="translate(0,0)"/>
<path d="" fill="#FFFFFF" transform="translate(0,0)"/>
<path d="" fill="#FFFFFF" transform="translate(0,0)"/>
<path d="" fill="#FFFFFF" transform="translate(0,0)"/>
<path d="" fill="#FFFFFF" transform="translate(0,0)"/>
<path d="" fill="#FFFFFF" transform="translate(0,0)"/>
<path d="" fill="#FFFFFF" transform="translate(0,0)"/>
<path d="" fill="#FFFFFF" transform="translate(0,0)"/>
<path d="" fill="#FFFFFF" transform="translate(0,0)"/>
<path d="" fill="#FFFFFF" transform="translate(0,0)"/>
<path d="" fill="#FFFFFF" transform="translate(0,0)"/>
<path d="" fill="#FFFFFF" transform="translate(0,0)"/>
<path d="" fill="#FFFFFF" transform="translate(0,0)"/>
<path d="" fill="#FFFFFF" transform="translate(0,0)"/>
<path d="" fill="#FFFFFF" transform="translate(0,0)"/>
<path d="" fill="#FFFFFF" transform="translate(0,0)"/>
<path d="" fill="#FFFFFF" transform="translate(0,0)"/>
<path d="" fill="#FFFFFF" transform="translate(0,0)"/>
<path d="" fill="#FFFFFF" transform="translate(0,0)"/>
<path d="" fill="#FFFFFF" transform="translate(0,0)"/>
<path d="" fill="#FFFFFF" transform="translate(0,0)"/>
<path d="" fill="#FFFFFF" transform="translate(0,0)"/>
<path d="" fill="#FFFFFF" transform="translate(0,0)"/>
<path d="" fill="#FFFFFF" transform="translate(0,0)"/>
<path d="" fill="#FFFFFF" transform="translate(0,0)"/>
<path d="" fill="#FFFFFF" transform="translate(0,0)"/>
<path d="" fill="#FFFFFF" transform="translate(0,0)"/>
<path d="" fill="#FFFFFF" transform="translate(0,0)"/>
<path d="" fill="#FFFFFF" transform="translate(0,0)"/>
<path d="" fill="#FFFFFF" transform="translate(0,0)"/>
<path d="" fill="#FFFFFF" transform="translate(0,0)"/>
<path d="" fill="#FFFFFF" transform="translate(0,0)"/>
<path d="" fill="#FFFFFF" transform="translate(0,0)"/>
<path d="" fill="#FFFFFF" transform="translate(0,0)"/>
<path d="" fill="#FFFFFF" transform="translate(0,0)"/>
<path d="" fill="#FFFFFF" transform="translate(0,0)"/>
<path d="" fill="#FFFFFF" transform="translate(0,0)"/>
<path d="" fill="#FFFFFF" transform="translate(0,0)"/>
<path d="" fill="#FFFFFF" transform="translate(0,0)"/>
<path d="" fill="#FFFFFF" transform="translate(0,0)"/>
<path d="" fill="#FFFFFF" transform="translate(0,0)"/>
</svg>
