<?xml version="1.0" encoding="UTF-8"?>
<svg version="1.1" xmlns="http://www.w3.org/2000/svg" width="60" height="60">
<path d="M0 0 C1.85625 0.1546875 1.85625 0.1546875 3.75 0.3125 C5.35875 0.6528125 5.35875 0.6528125 7 1 C7 1.33 7 1.66 7 2 C5.741875 2.020625 4.48375 2.04125 3.1875 2.0625 C2.09501953 2.18625 2.09501953 2.18625 0.98046875 2.3125 C0.32691406 2.539375 -0.32664062 2.76625 -1 3 C-1.39574219 3.53625 -1.79148437 4.0725 -2.19921875 4.625 C-2.46347656 5.264375 -2.72773438 5.90375 -3 6.5625 C-3.33 7.696875 -3.66 8.83125 -4 10 C-4.33 10 -4.66 10 -5 10 C-4.9175 8.906875 -4.835 7.81375 -4.75 6.6875 C-4.5025 5.470625 -4.255 4.25375 -4 3 C-3.46375 2.34 -2.9275 1.68 -2.375 1 C-1.59125 0.67 -0.8075 0.34 0 0 Z " fill="#000000" transform="translate(27,3)"/>
</svg>
