<?xml version="1.0" encoding="UTF-8"?>
<svg version="1.1" xmlns="http://www.w3.org/2000/svg" width="60" height="60">
<path d="M0 0 C1.49872388 0.90590673 2.97916234 1.84291681 4.4375 2.8125 C5.59765625 3.47572266 5.59765625 3.47572266 6.78125 4.15234375 C12.27890909 7.33672727 12.27890909 7.33672727 13.4375 10.8125 C13.4969835 12.36305278 13.49665794 13.91628746 13.45922852 15.4675293 C13.43913223 16.40827805 13.41903595 17.34902679 13.39833069 18.31828308 C13.35777809 19.83715874 13.35777809 19.83715874 13.31640625 21.38671875 C13.28098976 22.94517265 13.28098976 22.94517265 13.24485779 24.53511047 C13.16822211 27.85687933 13.08419703 31.17841502 13 34.5 C12.94677924 36.75063959 12.89403884 39.0012906 12.84179688 41.25195312 C12.71351082 46.77232616 12.57523956 52.29232229 12.4375 57.8125 C4.1875 57.8125 -4.0625 57.8125 -12.5625 57.8125 C-11.5725 56.8225 -10.5825 55.8325 -9.5625 54.8125 C-13.0275 55.3075 -13.0275 55.3075 -16.5625 55.8125 C-16.0675 56.3075 -16.0675 56.3075 -15.5625 56.8125 C-15.5625 57.1425 -15.5625 57.4725 -15.5625 57.8125 C-24.1425 57.8125 -32.7225 57.8125 -41.5625 57.8125 C-41.72826061 51.19227622 -41.8907242 44.57214466 -42.04467773 37.95166016 C-42.09805731 35.69933423 -42.15338348 33.44705357 -42.21069336 31.19482422 C-42.29271682 27.95810708 -42.3677457 24.72129192 -42.44140625 21.484375 C-42.46844131 20.47695251 -42.49547638 19.46953003 -42.52333069 18.43157959 C-42.54342697 17.49090637 -42.56352325 16.55023315 -42.58422852 15.58105469 C-42.60421402 14.75498718 -42.62419952 13.92891968 -42.64479065 13.07781982 C-42.56370664 10.84571668 -42.18879991 8.95018758 -41.5625 6.8125 C-40.46421875 6.65587891 -40.46421875 6.65587891 -39.34375 6.49609375 C-36.32464294 5.75403794 -34.5717746 4.68185442 -32.0625 2.875 C-23.13141753 -3.52456086 -10.07309738 -4.98947814 0 0 Z M-22.5625 29.8125 C-21.5725 30.3384375 -21.5725 30.3384375 -20.5625 30.875 C-18.5625 32.8125 -18.5625 32.8125 -18.3125 36.3125 C-18.395 37.4675 -18.4775 38.6225 -18.5625 39.8125 C-18.5625 40.8025 -18.5625 41.7925 -18.5625 42.8125 C-18.8925 43.4725 -19.2225 44.1325 -19.5625 44.8125 C-19.8925 44.1525 -20.2225 43.4925 -20.5625 42.8125 C-21.5525 43.3075 -21.5525 43.3075 -22.5625 43.8125 C-21.28187515 45.5199998 -19.94482443 47.18623596 -18.5625 48.8125 C-17.9025 48.8125 -17.2425 48.8125 -16.5625 48.8125 C-16.5625 42.5425 -16.5625 36.2725 -16.5625 29.8125 C-18.5425 29.8125 -20.5225 29.8125 -22.5625 29.8125 Z M-11.5625 29.8125 C-11.5625 36.0825 -11.5625 42.3525 -11.5625 48.8125 C-10.5725 48.4825 -9.5825 48.1525 -8.5625 47.8125 C-8.8925 42.2025 -9.2225 36.5925 -9.5625 30.8125 C-8.2425 30.4825 -6.9225 30.1525 -5.5625 29.8125 C-7.5425 29.8125 -9.5225 29.8125 -11.5625 29.8125 Z M-28.5625 30.8125 C-28.5625 31.8025 -28.5625 32.7925 -28.5625 33.8125 C-27.9025 33.4825 -27.2425 33.1525 -26.5625 32.8125 C-26.5625 32.1525 -26.5625 31.4925 -26.5625 30.8125 C-27.2225 30.8125 -27.8825 30.8125 -28.5625 30.8125 Z M-0.5625 30.8125 C-0.8925 31.4725 -1.2225 32.1325 -1.5625 32.8125 C-0.5725 32.4825 0.4175 32.1525 1.4375 31.8125 C0.7775 31.4825 0.1175 31.1525 -0.5625 30.8125 Z M-30.5625 33.8125 C-29.5625 35.8125 -29.5625 35.8125 -29.5625 35.8125 Z M-4.5625 34.8125 C-5.5525 35.8025 -6.5425 36.7925 -7.5625 37.8125 C-7.2325 38.4725 -6.9025 39.1325 -6.5625 39.8125 C-5.5725 38.8225 -4.5825 37.8325 -3.5625 36.8125 C-3.8925 36.1525 -4.2225 35.4925 -4.5625 34.8125 Z M2.4375 34.8125 C3.4375 37.8125 3.4375 37.8125 3.4375 37.8125 Z M-31.5625 35.8125 C-30.5625 37.8125 -30.5625 37.8125 -30.5625 37.8125 Z M-22.5625 36.8125 C-22.2325 37.8025 -21.9025 38.7925 -21.5625 39.8125 C-20.9025 39.4825 -20.2425 39.1525 -19.5625 38.8125 C-20.5525 38.1525 -21.5425 37.4925 -22.5625 36.8125 Z M-32.5625 37.8125 C-32.5625 40.1225 -32.5625 42.4325 -32.5625 44.8125 C-32.2325 44.8125 -31.9025 44.8125 -31.5625 44.8125 C-31.5625 42.5025 -31.5625 40.1925 -31.5625 37.8125 C-31.8925 37.8125 -32.2225 37.8125 -32.5625 37.8125 Z M3.4375 37.8125 C3.4375 40.1225 3.4375 42.4325 3.4375 44.8125 C3.7675 44.8125 4.0975 44.8125 4.4375 44.8125 C4.4375 42.5025 4.4375 40.1925 4.4375 37.8125 C4.1075 37.8125 3.7775 37.8125 3.4375 37.8125 Z M-7.5625 42.8125 C-7.2325 43.8025 -6.9025 44.7925 -6.5625 45.8125 C-6.2325 44.8225 -5.9025 43.8325 -5.5625 42.8125 C-6.2225 42.8125 -6.8825 42.8125 -7.5625 42.8125 Z M-31.5625 44.8125 C-31.5625 45.4725 -31.5625 46.1325 -31.5625 46.8125 C-30.2425 46.1525 -28.9225 45.4925 -27.5625 44.8125 C-28.8825 44.8125 -30.2025 44.8125 -31.5625 44.8125 Z M-0.5625 44.8125 C-0.2325 45.4725 0.0975 46.1325 0.4375 46.8125 C1.4275 46.8125 2.4175 46.8125 3.4375 46.8125 C3.4375 46.1525 3.4375 45.4925 3.4375 44.8125 C2.1175 44.8125 0.7975 44.8125 -0.5625 44.8125 Z M-27.5625 45.8125 C-26.5625 47.8125 -26.5625 47.8125 -26.5625 47.8125 Z M-26.5625 47.8125 C-25.9025 49.1325 -25.2425 50.4525 -24.5625 51.8125 C-23.5725 51.8125 -22.5825 51.8125 -21.5625 51.8125 C-23.2125 50.4925 -24.8625 49.1725 -26.5625 47.8125 Z M-3.5625 48.8125 C-4.8825 50.4625 -6.2025 52.1125 -7.5625 53.8125 C-6.2425 53.1525 -4.9225 52.4925 -3.5625 51.8125 C-3.5625 50.8225 -3.5625 49.8325 -3.5625 48.8125 Z " fill="#444441" transform="translate(44.5625,2.1875)"/>
<path d="M0 0 C3.94727588 -0.17942163 6.5980513 -0.09350689 10 2 C10 2.66 10 3.32 10 4 C11.32 4.33 12.64 4.66 14 5 C12.02 5 10.04 5 8 5 C8 5.66 8 6.32 8 7 C8.58007812 7.04898437 9.16015625 7.09796875 9.7578125 7.1484375 C14.43923092 7.59649405 18.57485459 8.298021 23 10 C23 9.34 23 8.68 23 8 C20.69 7.34 18.38 6.68 16 6 C16 5.67 16 5.34 16 5 C19.62528568 4.79859524 21.86501708 5.14223235 25 7 C25 6.34 25 5.68 25 5 C26.65 4.34 28.3 3.68 30 3 C30 15.87 30 28.74 30 42 C21.75 42 13.5 42 5 42 C5.99 41.01 6.98 40.02 8 39 C6.96875 39.2475 5.9375 39.495 4.875 39.75 C0.03040594 40.06255446 -1.34220296 39.10117575 -5 36 C-5.89490483 34.95421006 -6.7702518 33.89135901 -7.625 32.8125 C-9.69204908 29.90227634 -9.69204908 29.90227634 -12.3125 29.125 C-12.869375 29.08375 -13.42625 29.0425 -14 29 C-14.2954439 23.97745369 -13.98514628 21.10457614 -11 17 C-7.20620942 18.49041773 -5.31656242 20.69062512 -3 24 C-3 24.66 -3 25.32 -3 26 C-3.66 26.33 -4.32 26.66 -5 27 C-2.45395403 30.52381687 -2.45395403 30.52381687 1 33 C0.505 23.595 0.505 23.595 0 14 C-5.21949246 13.42173822 -5.21949246 13.42173822 -10.44116211 12.86376953 C-12.30347517 12.64445568 -14.15316995 12.32484959 -16 12 C-16.33 11.34 -16.66 10.68 -17 10 C-12.65719557 8.43422697 -8.67387237 7.07487471 -4.0625 6.5625 C-0.91602817 6.3365753 -0.91602817 6.3365753 0.5 4.0625 C1.24598544 1.95417784 1.24598544 1.95417784 0 0 Z M6 14 C6 20.27 6 26.54 6 33 C6.99 32.67 7.98 32.34 9 32 C8.67 26.39 8.34 20.78 8 15 C9.32 14.67 10.64 14.34 12 14 C10.02 14 8.04 14 6 14 Z M17 15 C16.67 15.66 16.34 16.32 16 17 C16.99 16.67 17.98 16.34 19 16 C18.34 15.67 17.68 15.34 17 15 Z M13 19 C12.01 19.99 11.02 20.98 10 22 C10.33 22.66 10.66 23.32 11 24 C11.99 23.01 12.98 22.02 14 21 C13.67 20.34 13.34 19.68 13 19 Z M20 19 C21 22 21 22 21 22 Z M21 22 C21 24.31 21 26.62 21 29 C21.33 29 21.66 29 22 29 C22 26.69 22 24.38 22 22 C21.67 22 21.34 22 21 22 Z M10 27 C10.33 27.99 10.66 28.98 11 30 C11.33 29.01 11.66 28.02 12 27 C11.34 27 10.68 27 10 27 Z M17 29 C17.33 29.66 17.66 30.32 18 31 C18.99 31 19.98 31 21 31 C21 30.34 21 29.68 21 29 C19.68 29 18.36 29 17 29 Z M14 33 C12.68 34.65 11.36 36.3 10 38 C11.32 37.34 12.64 36.68 14 36 C14 35.01 14 34.02 14 33 Z " fill="#383839" transform="translate(27,18)"/>
<path d="M0 0 C1.49872388 0.90590673 2.97916234 1.84291681 4.4375 2.8125 C5.59765625 3.47572266 5.59765625 3.47572266 6.78125 4.15234375 C12.27890909 7.33672727 12.27890909 7.33672727 13.4375 10.8125 C13.72205916 13.5760072 13.61567991 16.00616639 13.4375 18.8125 C10.4375 20.8125 10.4375 20.8125 7.4375 20.8125 C7.4375 21.4725 7.4375 22.1325 7.4375 22.8125 C5.4575 22.4825 3.4775 22.1525 1.4375 21.8125 C2.7575 22.4725 4.0775 23.1325 5.4375 23.8125 C5.4375 24.4725 5.4375 25.1325 5.4375 25.8125 C0.4875 24.8225 -4.4625 23.8325 -9.5625 22.8125 C-9.5625 22.1525 -9.5625 21.4925 -9.5625 20.8125 C-8.9025 20.4825 -8.2425 20.1525 -7.5625 19.8125 C-7.5625 19.1525 -7.5625 18.4925 -7.5625 17.8125 C-8.305 17.85375 -9.0475 17.895 -9.8125 17.9375 C-12.78078866 17.80257779 -14.06884344 17.37103535 -16.5625 15.8125 C-17.47 15.27625 -18.3775 14.74 -19.3125 14.1875 C-21.70342861 11.66374203 -21.97913353 11.10959299 -22.1875 7.8125 C-21.9935004 4.34637377 -21.67868052 3.92868052 -19.0625 1.3125 C-18.2375 0.8175 -17.4125 0.3225 -16.5625 -0.1875 C-22.05385054 0.28589229 -25.62830374 1.22792101 -30.5625 3.8125 C-31.2225 3.4825 -31.8825 3.1525 -32.5625 2.8125 C-23.21424415 -3.61873252 -10.36282025 -5.04526797 0 0 Z " fill="#3F3F41" transform="translate(44.5625,2.1875)"/>
<path d="M0 0 C0 12.87 0 25.74 0 39 C-8.25 39 -16.5 39 -25 39 C-23.35 37.68 -21.7 36.36 -20 35 C-18.7315625 33.7315625 -18.7315625 33.7315625 -17.4375 32.4375 C-15.38305069 30.38305069 -13.36883834 28.66696031 -11 27 C-10.34 27.33 -9.68 27.66 -9 28 C-8.97287934 26.56260487 -8.95354933 25.12506137 -8.9375 23.6875 C-8.92589844 22.88699219 -8.91429688 22.08648437 -8.90234375 21.26171875 C-9.04491112 17.95985838 -9.65454672 16.34545328 -12 14 C-14.31787296 13.78006628 -14.31787296 13.78006628 -16.5625 16.25 C-18.76715929 18.73730791 -19.64403955 19.79635595 -20 23 C-19.34 23.33 -18.68 23.66 -18 24 C-18.66 24 -19.32 24 -20 24 C-20.33 25.32 -20.66 26.64 -21 28 C-21.33 28 -21.66 28 -22 28 C-21.98839844 26.86820313 -21.97679687 25.73640625 -21.96484375 24.5703125 C-21.95546546 23.08854331 -21.9463653 21.60677235 -21.9375 20.125 C-21.92912109 19.37863281 -21.92074219 18.63226563 -21.91210938 17.86328125 C-21.79311916 13.80154422 -21.79311916 13.80154422 -23 10 C-21.96875 10.04125 -20.9375 10.0825 -19.875 10.125 C-16.05331445 10.18628197 -16.05331445 10.18628197 -12.8125 8.9375 C-9.92239738 7.97413246 -8.7856106 7.92861131 -6 9 C-5.9175 7.88625 -5.835 6.7725 -5.75 5.625 C-5 2 -5 2 -3 0.5625 C-1 0 -1 0 0 0 Z " fill="#444441" transform="translate(57,21)"/>
<path d="M0 0 C-0.825 0.66 -1.65 1.32 -2.5 2 C-5.31390676 5.37668811 -5.74890103 6.8193418 -5.5078125 11.0625 C-4.65875365 14.30198608 -2.53793611 15.96965111 0 18 C-0.33 18.99 -0.66 19.98 -1 21 C0.32 21.33 1.64 21.66 3 22 C-1.29 22 -5.58 22 -10 22 C-10 21.34 -10 20.68 -10 20 C-12.97 20.33 -15.94 20.66 -19 21 C-19 21.66 -19 22.32 -19 23 C-22.35447625 21.82140024 -24.83924737 20.8810035 -27 18 C-27.07421875 15.51953125 -27.07421875 15.51953125 -26.6875 12.8125 C-26.56761719 11.91144531 -26.44773437 11.01039062 -26.32421875 10.08203125 C-26.21722656 9.39496094 -26.11023438 8.70789062 -26 8 C-25.21625 7.87625 -24.4325 7.7525 -23.625 7.625 C-20.85942178 7.20882007 -20.85942178 7.20882007 -19 5 C-16.7548838 4.06097802 -14.47859732 3.19547674 -12.1875 2.375 C-10.96417969 1.92898437 -9.74085937 1.48296875 -8.48046875 1.0234375 C-5.40003879 0.11763206 -3.17005001 -0.22945124 0 0 Z " fill="#3E3E40" transform="translate(29,1)"/>
<path d="M0 0 C1.9375 1.125 1.9375 1.125 3 3 C3.65088557 7.39347757 3.47438867 9.30998011 0.9375 13 C-2 15 -2 15 -5.625 15 C-10.61768902 13.52068474 -10.61768902 13.52068474 -12 11 C-12.39309578 7.90437069 -12.62338668 5.95663395 -12 3 C-8.3655827 -1.51548816 -5.40521016 -1.50144727 0 0 Z " fill="#C0C0C1" transform="translate(35,3)"/>
<path d="M0 0 C-0.66 0.66 -1.32 1.32 -2 2 C-2.66 1.67 -3.32 1.34 -4 1 C-4 1.66 -4 2.32 -4 3 C-2.4221875 2.9690625 -2.4221875 2.9690625 -0.8125 2.9375 C2.32704904 2.98896802 4.96883396 3.26517187 8 4 C8 4.33 8 4.66 8 5 C7.14277344 5.04898437 6.28554688 5.09796875 5.40234375 5.1484375 C-0.66756456 5.54534244 -6.24397411 5.99208399 -12 8 C-11 5 -11 5 -8.9375 3.8125 C-8.298125 3.544375 -7.65875 3.27625 -7 3 C-8.98 3.33 -10.96 3.66 -13 4 C-13 3.34 -13 2.68 -13 2 C-8.46298506 0.54815522 -4.81938524 -0.23509196 0 0 Z " fill="#515152" transform="translate(23,20)"/>
<path d="M0 0 C4.82360189 -0.19294408 8.49646738 0.24252386 13 2 C12.67 2.99 12.34 3.98 12 5 C12.33 5.33 12.66 5.66 13 6 C13 6.66 13 7.32 13 8 C8.05 7.01 3.1 6.02 -2 5 C-2 4.34 -2 3.68 -2 3 C-1.34 2.67 -0.68 2.34 0 2 C0 1.34 0 0.68 0 0 Z " fill="#515151" transform="translate(37,20)"/>
<path d="M0 0 C0.66 0 1.32 0 2 0 C2 1.32 2 2.64 2 4 C2.66 4 3.32 4 4 4 C4.33 2.68 4.66 1.36 5 0 C6 1 6 1 6.25 3.375 C6 6 6 6 4.9375 7.8125 C2.00731249 9.60842137 -0.6472953 9.18977574 -4 9 C-4.33 8.34 -4.66 7.68 -5 7 C-3.68 7 -2.36 7 -1 7 C-0.67 4.69 -0.34 2.38 0 0 Z " fill="#767678" transform="translate(31,7)"/>
<path d="M0 0 C1.2065625 0.0309375 1.2065625 0.0309375 2.4375 0.0625 C2.4375 2.0425 2.4375 4.0225 2.4375 6.0625 C0.4575 6.0625 -1.5225 6.0625 -3.5625 6.0625 C-3.605221 4.39638095 -3.60313832 2.72867115 -3.5625 1.0625 C-2.5625 0.0625 -2.5625 0.0625 0 0 Z " fill="#727274" transform="translate(27.5625,6.9375)"/>
<path d="M0 0 C1.9375 0.3125 1.9375 0.3125 4 1 C5.28317892 4.84953676 5.06643637 7.94738135 5 12 C4.67 12 4.34 12 4 12 C3.87882812 11.38511719 3.75765625 10.77023438 3.6328125 10.13671875 C3.46523438 9.32847656 3.29765625 8.52023438 3.125 7.6875 C2.96257813 6.88699219 2.80015625 6.08648437 2.6328125 5.26171875 C2.05521001 2.74698882 2.05521001 2.74698882 0 0 Z " fill="#4D4D4D" transform="translate(53,9)"/>
<path d="" fill="#464641" transform="translate(0,0)"/>
</svg>
