<?xml version="1.0" encoding="UTF-8"?>
<svg version="1.1" xmlns="http://www.w3.org/2000/svg" width="300" height="300">
<path d="M0 0 C5.89948918 6.36289316 7.04340126 15.27249084 6.765625 23.5859375 C5.97476254 32.26659456 4.72380321 41.11308212 1.6875 49.3125 C-0.22369812 54.51576191 0.97105645 58.59610437 2.5 63.8125 C3.33677404 66.82488655 3.62492394 69.09500499 3.4375 72.1875 C4.53457275 72.6052771 4.53457275 72.6052771 5.65380859 73.03149414 C10.01104777 74.84095981 13.98869711 77.25787362 18.0625 79.625 C18.92101562 80.11548828 19.77953125 80.60597656 20.6640625 81.11132812 C21.4890625 81.58892578 22.3140625 82.06652344 23.1640625 82.55859375 C23.91252441 82.99099365 24.66098633 83.42339355 25.43212891 83.86889648 C27.37176514 85.14427697 28.86737246 86.48647668 30.4375 88.1875 C29.4375 91.1875 29.4375 91.1875 26.43359375 92.76953125 C22.22482635 94.41840435 17.95001862 95.17718217 13.5 95.875 C12.72076172 96.00455078 11.94152344 96.13410156 11.13867188 96.26757812 C9.23957832 96.5821519 7.33870644 96.88595882 5.4375 97.1875 C5.499375 98.239375 5.56125 99.29125 5.625 100.375 C5.4375 104.1875 5.4375 104.1875 3.7890625 106.8125 C3.12003906 107.988125 3.12003906 107.988125 2.4375 109.1875 C3.13736957 111.74362351 3.13736957 111.74362351 4.8125 114.1875 C5.37839844 115.14140625 5.94429687 116.0953125 6.52734375 117.078125 C7.15769531 118.10421875 7.78804687 119.1303125 8.4375 120.1875 C9.77193321 122.42456152 11.08460645 124.6747493 12.375 126.9375 C12.98214844 127.96359375 13.58929688 128.9896875 14.21484375 130.046875 C15.73013817 133.93919677 15.51163056 136.18089796 14.4375 140.1875 C12.66666498 142.41943887 10.80597365 143.52452914 8.4375 145.1875 C8.953125 146.033125 9.46875 146.87875 10 147.75 C11.71152192 151.84276982 11.56043615 153.93638458 10.4375 158.1875 C9 160.125 9 160.125 7.4375 161.1875 C6.7775 161.1875 6.1175 161.1875 5.4375 161.1875 C5.38302953 162.60373216 5.34449492 164.02058191 5.3125 165.4375 C5.28929687 166.22640625 5.26609375 167.0153125 5.2421875 167.828125 C5.45787609 170.43364317 6.0453822 171.98736977 7.4375 174.1875 C8.0975 174.5175 8.7575 174.8475 9.4375 175.1875 C9.83922044 176.83901736 10.15770048 178.51101525 10.4375 180.1875 C10.95752889 182.29186562 11.47841446 184.39601967 12 186.5 C13.18824358 191.57599199 13.7429062 195.99559453 13.4375 201.1875 C12.7775 201.1875 12.1175 201.1875 11.4375 201.1875 C11.35113281 201.85136719 11.26476562 202.51523438 11.17578125 203.19921875 C10.23109683 209.135997 9.25808262 212.26376996 4.4375 216.1875 C3.1071875 217.54875 3.1071875 217.54875 1.75 218.9375 C-0.5625 221.1875 -0.5625 221.1875 -2.5625 222.1875 C-5.1640625 221.41015625 -5.1640625 221.41015625 -8.1875 220.25 C-9.69183594 219.67958984 -9.69183594 219.67958984 -11.2265625 219.09765625 C-11.99742187 218.79730469 -12.76828125 218.49695313 -13.5625 218.1875 C-13.5625 218.8475 -13.5625 219.5075 -13.5625 220.1875 C-22.07191084 219.30110304 -28.23880386 217.03691893 -34.5625 211.1875 C-34.8925 212.1775 -35.2225 213.1675 -35.5625 214.1875 C-37.8725 212.8675 -40.1825 211.5475 -42.5625 210.1875 C-43.39245465 211.8656881 -43.39245465 211.8656881 -43.5625 214.1875 C-42.23446489 217.30729163 -42.23446489 217.30729163 -40.3125 220.625 C-37.8326053 225.24714267 -36.09361275 229.35539388 -35.125 234.5625 C-33.76056352 241.59193857 -30.72868519 247.38922989 -27.40234375 253.65625 C-23.5625 261.02614119 -23.5625 261.02614119 -23.5625 265.1875 C-25.64554538 265.24168326 -27.72899768 265.28037551 -29.8125 265.3125 C-30.97265625 265.33570313 -32.1328125 265.35890625 -33.328125 265.3828125 C-36.39036046 265.1978949 -38.00452751 264.79573023 -40.5625 263.1875 C-40.8925 263.8475 -41.2225 264.5075 -41.5625 265.1875 C-60.56677845 260.9621635 -75.81542436 254.22964394 -92.81665039 244.83300781 C-108.84716049 236.07395042 -125.12982705 231.36530559 -143.41796875 234.94140625 C-149.47093766 236.75091044 -155.00644006 239.20369003 -160.5625 242.1875 C-161.5525 242.5175 -162.5425 242.8475 -163.5625 243.1875 C-163.02122866 237.22367396 -160.57041959 232.37725953 -158 227.0625 C-157.33097656 225.66559937 -157.33097656 225.66559937 -156.6484375 224.24047852 C-153.57706671 217.95280936 -150.23606193 212.15818786 -146.15625 206.46484375 C-144.197636 203.66613796 -142.77696834 201.32537369 -142.140625 197.94921875 C-141.3324372 194.08848381 -139.85258061 190.62082783 -138.3125 187 C-137.88130859 185.91428711 -137.88130859 185.91428711 -137.44140625 184.80664062 C-135.1711443 179.47796901 -135.1711443 179.47796901 -131.90234375 177.91796875 C-130.74412109 177.55638672 -130.74412109 177.55638672 -129.5625 177.1875 C-128.32188783 173.72044462 -128.32188783 173.72044462 -127.5625 170.1875 C-126.9025 169.5275 -126.2425 168.8675 -125.5625 168.1875 C-124.5725 168.1875 -123.5825 168.1875 -122.5625 168.1875 C-121.46213352 155.47215407 -125.91600295 143.37123651 -130.48632812 131.7121582 C-132.10430203 127.55497909 -133.25452801 123.55918395 -134.07421875 119.1875 C-134.82798427 116.10007642 -136.19853195 113.36041935 -137.6015625 110.51953125 C-138.5625 108.1875 -138.5625 108.1875 -138.9609375 105.57421875 C-139.4316878 102.57651639 -139.85435412 100.71644326 -141.5625 98.1875 C-145.29946493 96.39968714 -148.89684118 95.3163452 -152.8984375 94.3203125 C-157.99204703 92.74552917 -160.62841542 90.58862686 -163.5625 86.1875 C-164.18120425 79.89734016 -163.53153767 77.33057234 -159.5625 72.1875 C-156.93359375 69.9140625 -156.93359375 69.9140625 -154 67.8125 C-153.46826172 67.42658691 -152.93652344 67.04067383 -152.38867188 66.64306641 C-150.78636596 65.48229961 -149.17453592 64.33471575 -147.5625 63.1875 C-145.89451732 61.98098394 -144.22782165 60.77268635 -142.5625 59.5625 C-141.67046875 58.91925781 -140.7784375 58.27601562 -139.859375 57.61328125 C-137.19374723 55.67023266 -134.57208673 53.67340857 -131.953125 51.66796875 C-114.89967756 38.64228607 -98.53464177 28.76881208 -78.1401062 21.79449463 C-65.40245206 17.42710553 -52.91996823 12.61067597 -40.53173828 7.33569336 C-10.57902017 -5.38230851 -10.57902017 -5.38230851 0 0 Z M-22.9375 7.4375 C-23.68153076 7.70780029 -24.42556152 7.97810059 -25.19213867 8.2565918 C-42.48278199 14.77992037 -58.20499923 24.21906271 -73.87850952 33.87413025 C-95.96805711 47.4754716 -118.81729901 59.77932891 -142.36523438 70.66064453 C-143.29142578 71.0936084 -144.21761719 71.52657227 -145.171875 71.97265625 C-146.4088916 72.54318726 -146.4088916 72.54318726 -147.67089844 73.12524414 C-149.72574508 74.04657499 -149.72574508 74.04657499 -150.5625 76.1875 C-146.52513281 74.90237462 -142.69746935 73.4239202 -138.8515625 71.6484375 C-137.244021 70.90775024 -137.244021 70.90775024 -135.60400391 70.15209961 C-134.47655762 69.62753174 -133.34911133 69.10296387 -132.1875 68.5625 C-131.02009277 68.02052979 -129.85268555 67.47855957 -128.64990234 66.92016602 C-109.44016437 57.96724132 -90.77155005 48.21618334 -72.625 37.25 C-58.76984092 28.87965519 -44.9242092 20.6223029 -30.3125 13.625 C-29.4676001 13.21942871 -28.6227002 12.81385742 -27.75219727 12.39599609 C-22.46528015 9.91997147 -17.14189311 7.90404301 -11.5625 6.1875 C-15.84700335 4.86793369 -18.84250671 5.94334866 -22.9375 7.4375 Z M-36.5625 49.1875 C-32.5625 50.1875 -32.5625 50.1875 -32.5625 50.1875 Z M-40.5625 50.1875 C-36.5625 51.1875 -36.5625 51.1875 -36.5625 51.1875 Z M-117.5625 79.1875 C-117.8925 79.8475 -118.2225 80.5075 -118.5625 81.1875 C-113.79078076 79.76238922 -109.38614176 77.77979992 -104.87207031 75.70922852 C-93.37106872 70.45889097 -81.73695769 65.92490134 -69.8125 61.75 C-69.09856079 61.49937805 -68.38462158 61.2487561 -67.64904785 60.99053955 C-58.67885688 57.85203119 -49.66862747 54.91014211 -40.5625 52.1875 C-40.5625 51.8575 -40.5625 51.5275 -40.5625 51.1875 C-64.11811372 50.42258868 -98.046849 66.60441602 -117.5625 79.1875 Z M-23.625 63.0625 C-24.6776001 63.27302002 -25.7302002 63.48354004 -26.81469727 63.70043945 C-36.37543993 65.7296893 -45.67978114 68.46030765 -55 71.375 C-55.71334503 71.59677917 -56.42669006 71.81855835 -57.16165161 72.04705811 C-59.19278544 72.68257361 -61.22010321 73.32876232 -63.24609375 73.98046875 C-64.41712646 74.3571167 -65.58815918 74.73376465 -66.79467773 75.12182617 C-69.65288987 76.00734693 -69.65288987 76.00734693 -71.5625 78.1875 C-67.78535301 79.59197623 -65.38634901 78.746582 -61.63671875 77.4921875 C-59.86941406 76.91609741 -59.86941406 76.91609741 -58.06640625 76.32836914 C-57.4439502 76.12148468 -56.82149414 75.91460022 -56.18017578 75.70144653 C-38.66156461 69.90225664 -20.88511106 65.54376668 -2.5625 63.1875 C-3.0575 62.1975 -3.0575 62.1975 -3.5625 61.1875 C-10.50399775 60.97391545 -16.82447736 61.69355286 -23.625 63.0625 Z M-62.5625 81.4375 C-63.26882568 81.67130371 -63.97515137 81.90510742 -64.70288086 82.14599609 C-66.82490276 82.86578595 -66.82490276 82.86578595 -69.5625 84.1875 C-69.8925 85.1775 -70.2225 86.1675 -70.5625 87.1875 C-64.4475388 86.47426267 -58.80971976 84.37407325 -53 82.4375 C-35.76208277 76.81876014 -18.48125284 72.87859475 -0.5625 70.1875 C-1.0575 68.7025 -1.0575 68.7025 -1.5625 67.1875 C-21.92171505 67.1875 -43.4883264 74.97314303 -62.5625 81.4375 Z M-82.5625 80.1875 C-82.97916667 82.6875 -82.97916667 82.6875 -82.5625 85.1875 C-80.73546773 87.4366908 -80.73546773 87.4366908 -78.0625 87.4375 C-75.38953227 87.4366908 -75.38953227 87.4366908 -73.5625 85.1875 C-73.88448966 82.08823181 -73.88448966 82.08823181 -74.5625 79.1875 C-78.74060069 77.99818813 -78.74060069 77.99818813 -82.5625 80.1875 Z M18.4375 87.1875 C22.4375 88.1875 22.4375 88.1875 22.4375 88.1875 Z M-22.5625 89.1875 C-22.5625 89.5175 -22.5625 89.8475 -22.5625 90.1875 C-20.9125 90.1875 -19.2625 90.1875 -17.5625 90.1875 C-17.5625 89.8575 -17.5625 89.5275 -17.5625 89.1875 C-19.2125 89.1875 -20.8625 89.1875 -22.5625 89.1875 Z M1.9375 88.6875 C0.84695312 88.75904297 0.84695312 88.75904297 -0.265625 88.83203125 C-2.03140416 88.94820093 -3.79697613 89.06751294 -5.5625 89.1875 C-5.5625 89.5175 -5.5625 89.8475 -5.5625 90.1875 C-2.68743579 90.21462325 0.18736908 90.23439851 3.0625 90.25 C3.87074219 90.25837891 4.67898437 90.26675781 5.51171875 90.27539062 C9.94091918 90.2933955 14.07633424 90.08372662 18.4375 89.1875 C18.4375 88.8575 18.4375 88.5275 18.4375 88.1875 C12.90989161 88.13770173 7.45124676 88.30970624 1.9375 88.6875 Z M-92.109375 92.78515625 C-92.75763245 93.05710312 -93.40588989 93.32904999 -94.0737915 93.60923767 C-95.45342375 94.18934176 -96.83195803 94.77206291 -98.20947266 95.35717773 C-100.26079458 96.2280489 -102.31554054 97.09034376 -104.37109375 97.95117188 C-113.54136425 101.80996137 -122.57631682 105.91865821 -131.5625 110.1875 C-131.5625 110.8475 -131.5625 111.5075 -131.5625 112.1875 C-124.16277746 109.86098366 -117.11746522 106.94923234 -110 103.875 C-100.27545236 99.71273958 -90.5211012 95.7527394 -80.5625 92.1875 C-81.2225 91.5275 -81.8825 90.8675 -82.5625 90.1875 C-86.30693877 90.1875 -88.65367747 91.3299653 -92.109375 92.78515625 Z M-54.5625 92.1875 C-54.583125 93.033125 -54.60375 93.87875 -54.625 94.75 C-55.77594512 98.9701321 -57.61259677 100.50574527 -60.87109375 103.28125 C-65.58369613 108.59245083 -64.91240597 115.60056716 -64.8203125 122.27734375 C-64.34262873 129.52221434 -63.31660683 136.50121536 -58.5625 142.1875 C-58.2325 141.5275 -57.9025 140.8675 -57.5625 140.1875 C-56.2425 142.4975 -54.9225 144.8075 -53.5625 147.1875 C-53.2325 146.5275 -52.9025 145.8675 -52.5625 145.1875 C-49.48160327 147.96030706 -47.87474548 150.25076356 -46.5625 154.1875 C-46.2325 154.1875 -45.9025 154.1875 -45.5625 154.1875 C-45.5625 152.5375 -45.5625 150.8875 -45.5625 149.1875 C-44.9025 149.1875 -44.2425 149.1875 -43.5625 149.1875 C-43.500625 149.8475 -43.43875 150.5075 -43.375 151.1875 C-41.87254062 156.73504234 -39.28904111 161.02472741 -34.5 164.25 C-31.5655715 165.18651973 -30.3561369 165.36942331 -27.5625 164.1875 C-28.738125 163.7853125 -28.738125 163.7853125 -29.9375 163.375 C-32.5625 162.1875 -32.5625 162.1875 -34.5625 159.1875 C-34.93417184 156.42729004 -34.74100636 153.99897524 -34.5625 151.1875 C-32.5625 149.1875 -32.5625 149.1875 -29.4375 149.0625 C-28.48875 149.10375 -27.54 149.145 -26.5625 149.1875 C-27.8825 149.8475 -29.2025 150.5075 -30.5625 151.1875 C-30.0675 153.6625 -30.0675 153.6625 -29.5625 156.1875 C-26.90315953 156.77880428 -26.90315953 156.77880428 -23.5625 156.1875 C-21.42696446 154.63198646 -19.57908621 152.89702783 -17.6640625 151.078125 C-14.58126017 148.30474893 -11.14296495 146.25388536 -7.5625 144.1875 C-8.2225 143.81625 -8.8825 143.445 -9.5625 143.0625 C-11.5625 141.1875 -11.5625 141.1875 -12.0625 138.1875 C-11.5625 135.1875 -11.5625 135.1875 -9.5625 133.3125 C-8.9025 132.94125 -8.2425 132.57 -7.5625 132.1875 C-8.2225 133.1775 -8.8825 134.1675 -9.5625 135.1875 C-9.2503236 137.83382287 -9.2503236 137.83382287 -8.5625 140.1875 C-7.5725 140.5175 -6.5825 140.8475 -5.5625 141.1875 C-5.0675 140.1975 -5.0675 140.1975 -4.5625 139.1875 C-1.27835695 138.23682701 0.13443408 138.08647803 3.4375 139.1875 C3.7675 139.8475 4.0975 140.5075 4.4375 141.1875 C6.4175 140.5275 8.3975 139.8675 10.4375 139.1875 C11.41846049 136.05411315 11.59816495 134.5821458 10.34179688 131.49609375 C9.78556641 130.54863281 9.22933594 129.60117188 8.65625 128.625 C8.06199219 127.58085937 7.46773438 126.53671875 6.85546875 125.4609375 C6.22253906 124.38070312 5.58960938 123.30046875 4.9375 122.1875 C3.68471573 120.0493468 2.44452634 117.90375019 1.21875 115.75 C0.66251953 114.80253906 0.10628906 113.85507813 -0.46679688 112.87890625 C-1.73786878 109.75673677 -1.58565839 108.35196335 -0.5625 105.1875 C-0.2325 104.5275 0.0975 103.8675 0.4375 103.1875 C0.4375 100.8775 0.4375 98.5675 0.4375 96.1875 C-6.1625 96.1875 -12.7625 96.1875 -19.5625 96.1875 C-19.5625 96.5175 -19.5625 96.8475 -19.5625 97.1875 C-14.2825 98.5075 -9.0025 99.8275 -3.5625 101.1875 C-3.8925 102.5075 -4.2225 103.8275 -4.5625 105.1875 C-7.06586656 106.64345104 -9.63283542 107.65367367 -12.3125 108.74609375 C-14.82275611 110.01164013 -14.82275611 110.01164013 -15.375 112.84765625 C-15.4678125 114.00587891 -15.4678125 114.00587891 -15.5625 115.1875 C-14.9025 115.1875 -14.2425 115.1875 -13.5625 115.1875 C-16.3125 120.0625 -16.3125 120.0625 -18.5625 121.1875 C-17.9025 119.5375 -17.2425 117.8875 -16.5625 116.1875 C-18.60205149 115.82134906 -20.64428248 115.47010721 -22.6875 115.125 C-24.39292969 114.82916016 -24.39292969 114.82916016 -26.1328125 114.52734375 C-29.5378892 114.18993866 -32.23428131 114.46419412 -35.5625 115.1875 C-35.5625 114.5275 -35.5625 113.8675 -35.5625 113.1875 C-34.840625 113.0740625 -34.11875 112.960625 -33.375 112.84375 C-30.433048 112.15729453 -28.21678273 111.11417697 -25.5625 109.6875 C-22.20833905 107.88463849 -19.33281893 106.77997869 -15.5625 106.1875 C-17.90071313 103.84928687 -19.67307638 103.38082271 -22.921875 103.0078125 C-28.70499287 103.40133827 -34.24091304 106.02747383 -39.5625 108.1875 C-37.13195673 104.94133819 -35.01327045 102.53756148 -31.5 100.5 C-30.49259766 99.90638672 -30.49259766 99.90638672 -29.46484375 99.30078125 C-28.83707031 98.93339844 -28.20929688 98.56601563 -27.5625 98.1875 C-26.5725 97.5275 -25.5825 96.8675 -24.5625 96.1875 C-28.43481569 94.25134215 -33.0566973 94.19516844 -37.3125 93.625 C-38.3025 93.48642578 -39.2925 93.34785156 -40.3125 93.20507812 C-45.09477578 92.55614632 -49.72313266 91.99820502 -54.5625 92.1875 Z M-103.5625 110.1875 C-106.56686245 114.85245551 -106.99547148 119.56387546 -106.140625 124.953125 C-103.76973762 134.11628432 -97.35370727 141.99336182 -89.5625 147.1875 C-86.58125347 147.56015582 -85.17505402 147.65219615 -82.75 145.8125 C-81.3658278 144.25381217 -81.3658278 144.25381217 -81.5625 142.1875 C-80.9025 142.1875 -80.2425 142.1875 -79.5625 142.1875 C-81.1875 148.9375 -81.1875 148.9375 -84.5625 151.1875 C-90.73645939 151.30855803 -93.62397213 148.84565638 -97.86328125 144.78125 C-99.48703662 143.10619153 -99.48703662 143.10619153 -101.5625 142.1875 C-102.5525 145.4875 -103.5425 148.7875 -104.5625 152.1875 C-105.2225 152.1875 -105.8825 152.1875 -106.5625 152.1875 C-107.3978125 153.54875 -107.3978125 153.54875 -108.25 154.9375 C-110.48246008 158.07501146 -111.02159507 158.59384038 -114.25 160.0625 C-117.67234867 161.73817927 -117.67234867 161.73817927 -118.10473633 164.14501953 C-118.18630981 165.22178955 -118.18630981 165.22178955 -118.26953125 166.3203125 C-118.36621094 167.59648437 -118.46289062 168.87265625 -118.5625 170.1875 C-117.49257812 170.74695313 -116.42265625 171.30640625 -115.3203125 171.8828125 C-73.1914654 193.95566426 -73.1914654 193.95566426 -60.5625 202.1875 C-60.5625 198.52351601 -61.17474148 197.89362632 -63.5625 195.1875 C-64.5525 194.40375 -65.5425 193.62 -66.5625 192.8125 C-69.65528702 190.10631136 -70.99181765 187.93968561 -72.5625 184.1875 C-73.8825 184.1875 -75.2025 184.1875 -76.5625 184.1875 C-77.04358275 182.77148286 -77.52228141 181.35465563 -78 179.9375 C-78.26683594 179.14859375 -78.53367188 178.3596875 -78.80859375 177.546875 C-81.47035394 169.21680683 -81.21876156 161.27480953 -79.0625 152.8125 C-77.56351286 146.42395955 -77.22653061 140.30605793 -77.1875 133.75 C-77.16719727 132.34645264 -77.16719727 132.34645264 -77.14648438 130.91455078 C-77.18311828 125.23934768 -77.93880378 121.23360358 -80.5625 116.1875 C-81.5525 116.5175 -82.5425 116.8475 -83.5625 117.1875 C-83.789375 116.445 -84.01625 115.7025 -84.25 114.9375 C-85.87564134 111.53139434 -87.36209896 110.17886065 -90.5625 108.1875 C-95.85194802 106.74492327 -99.11908945 106.85494209 -103.5625 110.1875 Z M-1.5625 141.1875 C-1.5625 141.5175 -1.5625 141.8475 -1.5625 142.1875 C0.0875 142.1875 1.7375 142.1875 3.4375 142.1875 C3.4375 141.8575 3.4375 141.5275 3.4375 141.1875 C1.7875 141.1875 0.1375 141.1875 -1.5625 141.1875 Z M-58.5625 142.1875 C-57.5625 144.1875 -57.5625 144.1875 -57.5625 144.1875 Z M-52.5625 147.1875 C-51.5625 149.1875 -51.5625 149.1875 -51.5625 149.1875 Z M-9.25 161.8125 C-10.20261719 162.13476562 -11.15523437 162.45703125 -12.13671875 162.7890625 C-14.75176918 164.01509886 -14.75176918 164.01509886 -15.92578125 166.6953125 C-16.75058943 169.14119501 -16.75058943 169.14119501 -16.0625 171.4375 C-13.88717744 173.97537632 -11.7930948 173.90657871 -8.5625 174.1875 C-6.27962371 171.49236239 -6.27962371 171.49236239 -6.875 169.125 C-7.53389239 167.14274751 -7.53389239 167.14274751 -8.5625 165.1875 C-5.5925 165.1875 -2.6225 165.1875 0.4375 165.1875 C0.7675 163.8675 1.0975 162.5475 1.4375 161.1875 C-2.69530718 160.02820618 -5.22821662 160.37497306 -9.25 161.8125 Z M-123.5625 173.1875 C-124.2225 175.4975 -124.8825 177.8075 -125.5625 180.1875 C-124.5209375 180.72117188 -123.479375 181.25484375 -122.40625 181.8046875 C-98.03757925 194.41767522 -76.95576702 209.75657282 -56.74609375 228.25 C-54.41611488 230.31738733 -52.00954529 232.26082814 -49.5625 234.1875 C-49.05703964 232.10548472 -48.55833165 230.02182933 -48.0625 227.9375 C-47.7840625 226.77734375 -47.505625 225.6171875 -47.21875 224.421875 C-46.42993548 221.08419288 -46.42993548 221.08419288 -46.5625 217.1875 C-47.87773556 215.68146979 -47.87773556 215.68146979 -49.75390625 214.48828125 C-50.44299072 214.00625244 -51.1320752 213.52422363 -51.84204102 213.02758789 C-52.59541748 212.52348389 -53.34879395 212.01937988 -54.125 211.5 C-54.90222412 210.96818115 -55.67944824 210.4363623 -56.48022461 209.88842773 C-71.22811221 199.89462522 -86.86075682 191.57162871 -102.5625 183.1875 C-103.5205957 182.67348633 -104.47869141 182.15947266 -105.46582031 181.62988281 C-108.12037467 180.20650687 -110.77813523 178.78936405 -113.4375 177.375 C-114.23381836 176.94840088 -115.03013672 176.52180176 -115.85058594 176.08227539 C-119.50589058 173.95235572 -119.50589058 173.95235572 -123.5625 173.1875 Z M-74.5625 179.1875 C-73.5625 183.1875 -73.5625 183.1875 -73.5625 183.1875 Z M-130.5625 205.1875 C-127.85086097 207.30112475 -125.12121257 209.07131042 -122.10546875 210.71875 C-106.28185132 219.48339969 -90.44747754 229.30252246 -77.5625 242.1875 C-72.03934048 241.80659245 -66.90048626 240.61731775 -61.5625 239.1875 C-61.66691406 239.98414063 -61.77132812 240.78078125 -61.87890625 241.6015625 C-62.13744672 244.97490009 -62.17688958 247.85528987 -61.5625 251.1875 C-59.03573571 254.1178447 -56.01260712 255.52479777 -52.5625 257.1875 C-50.91497215 258.1638128 -49.26904923 259.14284072 -47.625 260.125 C-45.51249911 261.40284403 -45.51249911 261.40284403 -43.5625 262.1875 C-42.9025 261.8575 -42.2425 261.5275 -41.5625 261.1875 C-44.017176 259.51521465 -46.47589674 257.8495314 -48.9375 256.1875 C-49.63617188 255.71054687 -50.33484375 255.23359375 -51.0546875 254.7421875 C-51.725 254.29101562 -52.3953125 253.83984375 -53.0859375 253.375 C-53.70388184 252.95605469 -54.32182617 252.53710938 -54.95849609 252.10546875 C-56.54378829 251.0219307 -56.54378829 251.0219307 -58.5625 251.1875 C-59.0575 243.7625 -59.0575 243.7625 -59.5625 236.1875 C-61.439375 236.5175 -63.31625 236.8475 -65.25 237.1875 C-67.34822022 237.55641784 -69.45282323 237.8910335 -71.5625 238.1875 C-72.40039062 238.30609375 -73.23828125 238.4246875 -74.1015625 238.546875 C-77.71110389 238.01976737 -79.68638541 235.84603925 -82.25 233.4375 C-94.65026846 222.42045648 -108.58883254 214.18957471 -123.5625 207.1875 C-124.30757812 206.78789062 -125.05265625 206.38828125 -125.8203125 205.9765625 C-127.69920474 204.98121424 -127.69920474 204.98121424 -130.5625 205.1875 Z M-36.5625 208.1875 C-35.5625 210.1875 -35.5625 210.1875 -35.5625 210.1875 Z " fill="#FFFFFF" transform="translate(163.5625,17.8125)"/>
<path d="M0 0 C1.9375 1.0625 1.9375 1.0625 3 3 C3.6875 6.25 3.6875 6.25 3 10 C-1.47681923 15.91673185 -8.48128074 19.0378138 -14.921875 22.35546875 C-18.5566238 24.29738403 -21.73626481 26.495273 -25 29 C-24.071875 29.4125 -23.14375 29.825 -22.1875 30.25 C-17.50627615 32.82008368 -17.50627615 32.82008368 -16 36 C-15.84938637 38.3805321 -15.87522454 40.69207316 -15.9921875 43.07421875 C-15.99476563 43.70972656 -15.99734375 44.34523437 -16 45 C-15.67 45.33 -15.34 45.66 -15 46 C-14.9528175 47.37419024 -14.96272557 48.75050532 -15 50.125 C-15.05897849 53.22628563 -14.87729546 55.6032973 -14.25 58.6875 C-14 62 -14 62 -15.5 65.125 C-18.96793377 69.11312384 -22.82661324 71.74172346 -27.375 74.375 C-29.86797719 75.91827159 -32.03119998 77.60076101 -34.3125 79.4375 C-39.65238209 83.63691058 -44.96564716 86.3289039 -51.375 88.5 C-54.95729175 89.65323449 -54.95729175 89.65323449 -56.5625 91.875 C-57.17485233 94.04197301 -57.17485233 94.04197301 -56.375 96.3125 C-55.79725289 100.45302096 -57.76678808 102.54867249 -60 106 C-58.68 107.32 -57.36 108.64 -56 110 C-56.65496413 111.33912069 -57.32499083 112.67087065 -58 114 C-58.61814575 115.2591774 -58.61814575 115.2591774 -59.2487793 116.54379272 C-61.49995672 120.17930668 -63.63529714 123.31503135 -67.92486572 124.55756378 C-73.85299273 125.43780679 -79.84147658 125.14544307 -85.8125 124.9765625 C-87.7515904 124.95789276 -89.69072823 124.94366687 -91.62988281 124.9336853 C-96.71433572 124.89564644 -101.79589555 124.79754986 -106.87921143 124.68664551 C-112.07402409 124.58403142 -117.26930802 124.5386095 -122.46484375 124.48828125 C-132.64449486 124.38128813 -142.82200614 124.21079873 -153 124 C-153 123.34 -153 122.68 -153 122 C-151.53125 120.5546875 -151.53125 120.5546875 -149.5 118.875 C-144.46164201 114.58836861 -139.26711454 110.16072173 -135.39453125 104.76171875 C-134.93433594 104.18035156 -134.47414062 103.59898437 -134 103 C-133.34 103 -132.68 103 -132 103 C-131.74565186 102.41895508 -131.49130371 101.83791016 -131.22924805 101.23925781 C-129.86726505 98.75820358 -128.3568556 97.14481897 -126.33203125 95.171875 C-125.60306641 94.45386719 -124.87410156 93.73585938 -124.12304688 92.99609375 C-123.36056641 92.25488281 -122.59808594 91.51367188 -121.8125 90.75 C-116.84485615 85.89868432 -112.01814358 81.02461888 -107.5144043 75.73535156 C-103.44119853 71.0678767 -103.44119853 71.0678767 -100.5625 70.625 C-97.76936515 70.22116193 -97.76936515 70.22116193 -96.0625 67.5625 C-94 65 -94 65 -91.2109375 64.3984375 C-86.36527469 62.28803934 -84.96388738 58.60682365 -82.5625 54.0625 C-81.60291482 52.33258251 -80.64198192 50.6034119 -79.6796875 48.875 C-79.22045898 48.03710938 -78.76123047 47.19921875 -78.28808594 46.3359375 C-72.47500507 35.793944 -67.8486501 30.41768659 -56.43359375 26.05859375 C-53.58785818 24.82072162 -51.40933687 23.22847802 -48.96484375 21.34765625 C-45.53812864 18.99732481 -41.75184956 17.33597642 -38.01953125 15.52734375 C-35.35710594 14.18063186 -32.88812878 12.7266313 -30.375 11.125 C-25.6831586 8.25649209 -20.80671058 5.91052044 -15.8125 3.625 C-15.05179199 3.26680176 -14.29108398 2.90860352 -13.50732422 2.53955078 C-8.83384917 0.45010056 -5.22082379 -0.49817021 0 0 Z M-5 4 C-5.33 5.32 -5.66 6.64 -6 8 C-4.35 7.67 -2.7 7.34 -1 7 C-1 6.01 -1 5.02 -1 4 C-2.32 4 -3.64 4 -5 4 Z M-14.6953125 7.75 C-15.41074219 8.1109375 -16.12617188 8.471875 -16.86328125 8.84375 C-17.60964844 9.2253125 -18.35601562 9.606875 -19.125 10 C-19.87910156 10.3815625 -20.63320313 10.763125 -21.41015625 11.15625 C-23.27524766 12.10060008 -25.13786055 13.04984228 -27 14 C-26.01 15.65 -25.02 17.3 -24 19 C-26.475 17.02 -26.475 17.02 -29 15 C-32.47478894 16.96676958 -35.94424425 18.94152371 -39.40234375 20.9375 C-41.33959339 22.055584 -43.27464089 23.14469815 -45.25390625 24.1875 C-48.69575129 26.09055039 -51.54372962 28.40393729 -54.30078125 31.1953125 C-54.88915771 31.78546143 -55.47753418 32.37561035 -56.08374023 32.98364258 C-57.26706812 34.19180793 -58.44256245 35.40770166 -59.60961914 36.6315918 C-61.03939908 38.12081226 -62.51622823 39.56456641 -64 41 C-64.66 41 -65.32 41 -66 41 C-64.02 38.36 -62.04 35.72 -60 33 C-67.76669897 35.58889966 -70.57068772 41.34391344 -74.375 48.125 C-75.34708832 49.83235473 -76.31974 51.53938883 -77.29296875 53.24609375 C-77.75751465 54.0644873 -78.22206055 54.88288086 -78.70068359 55.72607422 C-81.06285728 59.8601001 -83.52277743 63.93401021 -86 68 C-85.41734375 68.44988281 -84.8346875 68.89976562 -84.234375 69.36328125 C-78.59677203 73.7864949 -73.24730157 78.41889008 -68.02441406 83.31762695 C-65.75653082 85.43626737 -63.59146424 87.27235718 -61 89 C-60.4225 88.4225 -59.845 87.845 -59.25 87.25 C-56.11517596 85.07973721 -53.97845582 84.29827806 -50.375 83.25 C-41.51831644 80.48365316 -34.56222834 75.40342893 -29 68 C-29.99 68 -30.98 68 -32 68 C-32 67.34 -32 66.68 -32 66 C-30.906875 65.87625 -29.81375 65.7525 -28.6875 65.625 C-24.92618198 65.24535199 -24.92618198 65.24535199 -22 63 C-21.67 63.66 -21.34 64.32 -21 65 C-18.65026182 63.10244856 -18.65026182 63.10244856 -18.875 59.875 C-18.91625 58.92625 -18.9575 57.9775 -19 57 C-19.969375 56.566875 -20.93875 56.13375 -21.9375 55.6875 C-25 54 -25 54 -26 51 C-23.03 51.495 -23.03 51.495 -20 52 C-19.22757731 50.16299211 -19.22757731 50.16299211 -19 48 C-21.05300417 45.41570721 -23.02565636 44.43821059 -26.125 43.4375 C-28.2578125 42.74609375 -28.2578125 42.74609375 -30 42 C-30.33 41.34 -30.66 40.68 -31 40 C-27.7 40.33 -24.4 40.66 -21 41 C-21 39.35 -21 37.7 -21 36 C-24.25226215 33.83182523 -26.18179405 33.4943217 -30 32.9375 C-33.15690815 32.46938004 -35.96881474 32.01039509 -39 31 C-39 30.34 -39 29.68 -39 29 C-38.02546875 29.11601562 -37.0509375 29.23203125 -36.046875 29.3515625 C-30.80070618 29.3436537 -27.35136903 26.34938871 -23.25 23.375 C-21.66648866 22.2699527 -20.08055388 21.16836985 -18.4921875 20.0703125 C-17.72745117 19.53954102 -16.96271484 19.00876953 -16.17480469 18.46191406 C-11.96806792 15.63412558 -7.52781106 13.27387868 -3 11 C-3.61875 10.731875 -4.2375 10.46375 -4.875 10.1875 C-7 9 -7 9 -9 6 C-11.40059817 6 -12.56072417 6.66576466 -14.6953125 7.75 Z M-92 70 C-93.38232443 71.62626404 -94.71937515 73.2925002 -96 75 C-95.35675781 75.43828125 -94.71351563 75.8765625 -94.05078125 76.328125 C-87.19314295 81.14118926 -81.11286816 86.41260657 -75.04296875 92.16796875 C-72.98591708 94.11727959 -70.87404999 95.94993692 -68.67578125 97.73828125 C-66 100 -66 100 -65 102 C-64.34 102 -63.68 102 -63 102 C-61.3553326 99.53673288 -61.3553326 99.53673288 -60 97 C-68.78695399 86.80279413 -78.31861934 76.90367311 -90 70 C-90.66 70 -91.32 70 -92 70 Z " fill="#FFFFFF" transform="translate(294,159)"/>
<path d="M0 0 C3.39386352 2.26257568 4.32118662 4.54364483 5.25 8.375 C5.79038284 11.18314333 5.99091863 13.49039406 5.9375 16.375 C5.69931931 19.05873355 5.69931931 19.05873355 7.5625 20.5625 C8.036875 21.036875 8.51125 21.51125 9 22 C8.6875 24.6875 8.6875 24.6875 8 27 C3.63858201 25.41402982 -0.18619689 23.64032523 -4 21 C-5.125 18.0625 -5.125 18.0625 -5 15 C-3.49491232 11.7640615 -1.63836567 9.38709275 1 7 C-0.65 7.33 -2.3 7.66 -4 8 C-3.67 6.68 -3.34 5.36 -3 4 C-4.97536745 4.34786708 -4.97536745 4.34786708 -7 5 C-8.14814997 7.29629994 -8.30769809 9.07698086 -8.5625 11.625 C-8.64628906 12.44226563 -8.73007812 13.25953125 -8.81640625 14.1015625 C-8.87699219 14.72804687 -8.93757813 15.35453125 -9 16 C-9.66 16 -10.32 16 -11 16 C-12.23671367 12.28985899 -12.56368603 8.85561242 -12 5 C-8.50065139 -0.48231282 -6.3016754 -1.6384356 0 0 Z " fill="#FFFFFF" transform="translate(72,129)"/>
<path d="M0 0 C0.33 0.99 0.66 1.98 1 3 C-3.75 7 -3.75 7 -6 7 C-4.60667426 3.63279613 -3.0210714 2.0140476 0 0 Z " fill="#FFFFFF" transform="translate(259,198)"/>
<path d="M0 0 C1.32 0 2.64 0 4 0 C4 0.66 4 1.32 4 2 C1.69 3.32 -0.62 4.64 -3 6 C-2.42655063 3.13275314 -2.1385485 2.1385485 0 0 Z " fill="#FFFFFF" transform="translate(249,191)"/>
<path d="M0 0 C4.1424367 1.38081223 5.32203099 3.59825558 8 7 C5 7 5 7 2.3125 4.625 C0 2 0 2 0 0 Z " fill="#FFFFFF" transform="translate(63,148)"/>
<path d="M0 0 C-0.33 0.99 -0.66 1.98 -1 3 C-4.0625 4.1875 -4.0625 4.1875 -7 5 C-5.22678182 1.07358831 -4.52021524 0 0 0 Z " fill="#FFFFFF" transform="translate(265,210)"/>
<path d="M0 0 C1.98 0.99 1.98 0.99 4 2 C4 2.99 4 3.98 4 5 C3.34 5 2.68 5 2 5 C1.34 3.35 0.68 1.7 0 0 Z " fill="#FFFFFF" transform="translate(269,173)"/>
</svg>
