<?xml version="1.0" encoding="UTF-8"?>
<svg version="1.1" xmlns="http://www.w3.org/2000/svg" width="300" height="300">
<path d="M0 0 C6.0776745 6.0776745 7.1650093 12.25832247 7.53515625 20.7265625 C7.44934714 29.93673991 5.84595394 38.62601287 3.3125 47.4375 C1.70839448 53.18007849 1.15302203 56.72723725 2.5 62.5 C2.61601562 63.44101563 2.73203125 64.38203125 2.8515625 65.3515625 C2.98304688 66.34929687 3.11453125 67.34703125 3.25 68.375 C3.36859375 69.30054687 3.4871875 70.22609375 3.609375 71.1796875 C3.90328125 71.94539063 4.1971875 72.71109375 4.5 73.5 C6.14587324 74.21646599 7.81681123 74.87622296 9.5 75.5 C12.7641556 77.21443842 15.93733522 79.08527357 19.125 80.9375 C19.98351562 81.42798828 20.84203125 81.91847656 21.7265625 82.42382812 C22.5515625 82.90142578 23.3765625 83.37902344 24.2265625 83.87109375 C24.97502441 84.30349365 25.72348633 84.73589355 26.49462891 85.18139648 C28.43426514 86.45677697 29.92987246 87.79897668 31.5 89.5 C30.54138948 91.97301119 29.98850839 93.23858745 27.609375 94.51171875 C20.29153535 96.60772249 13.08961743 97.1828546 5.5 97.5 C5.83 98.16 6.16 98.82 6.5 99.5 C6.97129909 104.91993958 6.97129909 104.91993958 4.875 107.5 C4.42125 108.16 3.9675 108.82 3.5 109.5 C5.00802263 116.25973782 9.23526385 122.20298328 12.77539062 128.06835938 C15.13603462 132.17234361 16.49507071 134.6636633 16.5234375 139.4765625 C15.16458893 143.49087088 13.16446227 144.55081794 9.5 146.5 C9.82355469 147.05558594 10.14710938 147.61117187 10.48046875 148.18359375 C11.63745447 150.81230076 11.79955213 152.70102131 11.8125 155.5625 C11.82925781 156.41972656 11.84601563 157.27695313 11.86328125 158.16015625 C11.43082193 160.94556626 10.73944458 161.83812507 8.5 163.5 C7.84 163.5 7.18 163.5 6.5 163.5 C6.41846067 165.08246707 6.36056443 166.66616273 6.3125 168.25 C6.27769531 169.13171875 6.24289063 170.0134375 6.20703125 170.921875 C6.55943427 174.02302157 7.58395379 175.08532007 9.5 177.5 C12.96115451 185.98579606 14.20182155 194.39064839 14.5 203.5 C13.84 203.5 13.18 203.5 12.5 203.5 C12.35304687 204.47839844 12.35304687 204.47839844 12.203125 205.4765625 C11.25816262 210.99970467 10.22460107 215.11811638 6.5 219.5 C4.375 220.6875 4.375 220.6875 2.5 221.5 C1.84 222.49 1.18 223.48 0.5 224.5 C-4.21403788 224.02060632 -8.16579301 223.53165952 -12.5 221.5 C-12.5 222.16 -12.5 222.82 -12.5 223.5 C-20.85604498 222.19864873 -27.91617972 219.9865169 -34.5 214.5 C-34.17 215.16 -33.84 215.82 -33.5 216.5 C-36.84373475 215.94271087 -39.53312999 215.14826111 -42.5 213.5 C-43.16 214.82 -43.82 216.14 -44.5 217.5 C-43.84 217.5 -43.18 217.5 -42.5 217.5 C-35.48100952 232.6533274 -35.48100952 232.6533274 -34.0625 239.5 C-32.77555268 245.45416765 -30.22810177 250.47559942 -27.36743164 255.80664062 C-25.14488976 259.98453356 -23.64774583 263.90306979 -22.5 268.5 C-36.69134823 269.87891643 -36.69134823 269.87891643 -43.3125 264.875 C-44.17230469 264.14152344 -45.03210938 263.40804688 -45.91796875 262.65234375 C-48.53385195 260.47178151 -51.11404545 259.0089883 -54.125 257.4375 C-58.34696721 254.95909836 -58.34696721 254.95909836 -59.625 251.125 C-59.58375 249.92875 -59.5425 248.7325 -59.5 247.5 C-59.51819756 246.02079856 -59.53902179 244.54162705 -59.5625 243.0625 C-59.541875 241.886875 -59.52125 240.71125 -59.5 239.5 C-60.30824219 239.7165625 -61.11648437 239.933125 -61.94921875 240.15625 C-63.55216797 240.57390625 -63.55216797 240.57390625 -65.1875 241 C-66.77111328 241.41765625 -66.77111328 241.41765625 -68.38671875 241.84375 C-73.64778484 242.95273256 -73.64778484 242.95273256 -76.5 242.5 C-78.56711607 240.98032567 -80.33107511 239.49440432 -82.1875 237.75 C-94.10830998 227.14503329 -110.62446238 214.10379415 -126.5 210.5 C-125.96334717 210.7902002 -125.42669434 211.08040039 -124.8737793 211.37939453 C-109.36766325 219.83128962 -93.99438725 228.927277 -81.375 241.4375 C-79.20275706 243.46320274 -78.17442539 244.41454199 -75.21875 244.7890625 C-72.88190679 244.56316766 -70.7668548 244.10065481 -68.5 243.5 C-67.14824067 243.29586691 -65.79407096 243.10673018 -64.4375 242.9375 C-62.9834375 242.7209375 -62.9834375 242.7209375 -61.5 242.5 C-61.5 246.79 -61.5 251.08 -61.5 255.5 C-59.85 256.16 -58.2 256.82 -56.5 257.5 C-55.15652929 258.19484866 -53.82627051 258.91594361 -52.51171875 259.6640625 C-51.45307617 260.26347656 -51.45307617 260.26347656 -50.37304688 260.875 C-49.65181641 261.2875 -48.93058594 261.7 -48.1875 262.125 C-47.07665039 262.75535156 -47.07665039 262.75535156 -45.94335938 263.3984375 C-44.12730989 264.42948495 -42.31343467 265.46436046 -40.5 266.5 C-40.5 267.16 -40.5 267.82 -40.5 268.5 C-59.34034405 265.3736547 -75.10246234 258.57374837 -91.67333984 249.28125 C-108.58553208 239.83555033 -124.84588638 234.41637561 -144.38671875 238.265625 C-150.43721634 240.03650234 -155.95710231 242.52325865 -161.5 245.5 C-162.49 245.83 -163.48 246.16 -164.5 246.5 C-162.74129674 234.18907717 -155.81147067 223.35982987 -149.1875 213.0625 C-146.20622084 208.42648935 -143.66656307 204.21206413 -142.1953125 198.85546875 C-141.21824114 195.54550228 -139.93837675 192.37444221 -138.625 189.1875 C-138.15320313 188.01574219 -137.68140625 186.84398437 -137.1953125 185.63671875 C-135.36473019 182.24971968 -133.53407841 180.78912583 -130.5 178.5 C-129.45401533 176.67607437 -129.45401533 176.67607437 -128.9375 174.8125 C-128.463125 173.719375 -127.98875 172.62625 -127.5 171.5 C-125.41015625 170.79296875 -125.41015625 170.79296875 -123.5 170.5 C-122.3603035 155.93721139 -127.15433521 143.61306471 -132.5078125 130.3125 C-133.40514716 127.76887418 -133.87945859 125.60899052 -134.125 122.9375 C-134.17407305 119.57629089 -134.17407305 119.57629089 -135.9140625 117.78125 C-137.72865802 115.17109289 -138.15534046 112.79298481 -138.77905273 109.7121582 C-139.57877276 106.06180319 -140.4354892 102.6535917 -142.5 99.5 C-146.42147372 97.24393131 -149.39035704 96.42457873 -153.80859375 95.51953125 C-158.31353459 94.27530949 -160.17789316 92.72189246 -163.5 89.5 C-164.61482784 87.27034432 -164.79662279 85.79279262 -164.9375 83.3125 C-164.99808594 82.57644531 -165.05867187 81.84039062 -165.12109375 81.08203125 C-163.39619324 73.91121845 -156.22136538 69.55587407 -150.4375 65.6875 C-148.91252527 64.6402558 -147.38910037 63.59075141 -145.8671875 62.5390625 C-144.74908691 61.76804199 -144.74908691 61.76804199 -143.60839844 60.98144531 C-140.6860042 58.9280539 -137.87742423 56.76143572 -135.0625 54.5625 C-115.15715051 39.14950494 -95.99726701 28.08316916 -72.109375 20 C-59.23248417 15.63983518 -46.71840184 10.56356527 -34.18945312 5.29858398 C-33.47066483 4.99801086 -32.75187653 4.69743774 -32.01130676 4.38775635 C-30.66141027 3.82284037 -29.31289614 3.25460416 -27.96611023 2.68231201 C-19.00998993 -1.06365447 -9.329296 -3.99826971 0 0 Z M-22.66796875 7.8359375 C-23.87005981 8.31172241 -23.87005981 8.31172241 -25.09643555 8.79711914 C-25.95148682 9.15281982 -26.80653809 9.50852051 -27.6875 9.875 C-28.58315674 10.24294678 -29.47881348 10.61089355 -30.40161133 10.98999023 C-45.75567347 17.42527871 -59.78516909 25.97993681 -74.00390625 34.58203125 C-96.2283677 48.0167432 -118.65091198 60.27020797 -142.12255859 71.36621094 C-144.93473691 72.7073237 -147.7218666 74.08992221 -150.5 75.5 C-146.46458628 76.84513791 -145.22140973 75.72410547 -141.41796875 73.921875 C-140.8163945 73.63992783 -140.21482025 73.35798065 -139.59501648 73.06748962 C-137.62080404 72.13858328 -135.65401251 71.19508651 -133.6875 70.25 C-132.31481278 69.59699804 -130.94192692 68.94441352 -129.56884766 68.29223633 C-126.15598235 66.66731011 -122.74997596 65.02848499 -119.34527588 63.38653564 C-116.77134086 62.14992644 -114.18768947 60.9340367 -111.60546875 59.71484375 C-99.32995591 53.83334459 -87.77164603 46.95175652 -76.19799805 39.82174683 C-56.33947983 27.5934655 -36.06973685 16.39751645 -14.5 7.5 C-17.76170899 6.40589691 -19.4924721 6.56747152 -22.66796875 7.8359375 Z M-37.5 50.5 C-33.5 51.5 -33.5 51.5 -33.5 51.5 Z M-52.0625 54.0625 C-52.99288086 54.33425049 -53.92326172 54.60600098 -54.88183594 54.88598633 C-74.78617355 60.78761906 -95.77867329 67.51058593 -113.5 78.5 C-112.84 78.83 -112.18 79.16 -111.5 79.5 C-109.20756751 78.75790294 -109.20756751 78.75790294 -106.6015625 77.54296875 C-105.06749756 76.87044067 -105.06749756 76.87044067 -103.50244141 76.18432617 C-102.38788574 75.69037354 -101.27333008 75.1964209 -100.125 74.6875 C-79.74551407 65.86587047 -58.86520314 58.55511518 -37.5 52.5 C-37.5 52.17 -37.5 51.84 -37.5 51.5 C-42.6336489 51.06780369 -47.19579194 52.63171626 -52.0625 54.0625 Z M-71.5 78.5 C-71.17 79.16 -70.84 79.82 -70.5 80.5 C-64.42846961 79.26672039 -58.62423079 77.64126718 -52.73217773 75.73266602 C-36.00087314 70.32238465 -19.02561607 66.21819765 -1.5 64.5 C-1.995 63.015 -1.995 63.015 -2.5 61.5 C-25.7389819 61.5 -50.03040829 70.57006333 -71.5 78.5 Z M-43.8125 77 C-44.46472534 77.19109344 -45.11695068 77.38218689 -45.78894043 77.57907104 C-52.18178008 79.46418306 -58.54334058 81.45342483 -64.85546875 83.59375 C-65.73227295 83.88958984 -66.60907715 84.18542969 -67.51245117 84.49023438 C-69.85238583 85.38623152 -69.85238583 85.38623152 -70.5 88.5 C-65.07840272 87.82449354 -60.24709141 86.11441464 -55.125 84.3125 C-37.28785432 78.22484462 -19.17160422 74.01009774 -0.5 71.5 C-0.5 70.51 -0.5 69.52 -0.5 68.5 C-15.09124415 68.5 -29.90472492 72.9107221 -43.8125 77 Z M-82.5 81.5 C-82.91666667 84 -82.91666667 84 -82.5 86.5 C-80.67084359 88.73845015 -80.67084359 88.73845015 -78 88.8125 C-77.175 88.709375 -76.35 88.60625 -75.5 88.5 C-73.235616 85.80844799 -73.235616 85.80844799 -73.75 83.4375 C-74.42532718 81.30523025 -74.42532718 81.30523025 -76.5 79.5 C-79.68490007 79.2226499 -79.68490007 79.2226499 -82.5 81.5 Z M19.5 88.5 C23.5 89.5 23.5 89.5 23.5 89.5 Z M12.5 89.5 C12.5 89.83 12.5 90.16 12.5 90.5 C14.81 90.5 17.12 90.5 19.5 90.5 C19.5 90.17 19.5 89.84 19.5 89.5 C17.19 89.5 14.88 89.5 12.5 89.5 Z M-0.5 90.5 C-0.5 90.83 -0.5 91.16 -0.5 91.5 C3.79 91.5 8.08 91.5 12.5 91.5 C12.5 91.17 12.5 90.84 12.5 90.5 C8.21 90.5 3.92 90.5 -0.5 90.5 Z M-53.5 93.5 C-53.726875 94.386875 -53.95375 95.27375 -54.1875 96.1875 C-55.69536397 99.99306145 -57.62595699 101.62595699 -60.5 104.5 C-65.78624143 111.29902434 -65.20259229 119.27799742 -64.5 127.5 C-63.50014941 133.54639374 -62.49230013 138.72489592 -58.5 143.5 C-58.5 142.84 -58.5 142.18 -58.5 141.5 C-56.7898442 143.12871981 -55.36650942 144.68911165 -54 146.625 C-52.55041536 148.78500114 -52.55041536 148.78500114 -49.5 149.5 C-47.8125 152.5625 -47.8125 152.5625 -46.5 155.5 C-46.17 154.18 -45.84 152.86 -45.5 151.5 C-44.84 151.5 -44.18 151.5 -43.5 151.5 C-43.2525 152.36625 -43.005 153.2325 -42.75 154.125 C-40.43131448 160.3854509 -37.45081247 164.33467422 -31.5 167.5 C-30.51 167.17 -29.52 166.84 -28.5 166.5 C-29.304375 165.88125 -30.10875 165.2625 -30.9375 164.625 C-33.5 162.5 -33.5 162.5 -34.5 160.5 C-34.75860135 156.44857881 -34.80441554 154.95662331 -32.5 151.5 C-28.875 151.3125 -28.875 151.3125 -25.5 151.5 C-27.15 152.49 -28.8 153.48 -30.5 154.5 C-29.84 155.82 -29.18 157.14 -28.5 158.5 C-23.85413108 158.01515724 -23.85413108 158.01515724 -19.5 156.5 C-19.5 155.84 -19.5 155.18 -19.5 154.5 C-18.51 154.17 -17.52 153.84 -16.5 153.5 C-16.5 152.84 -16.5 152.18 -16.5 151.5 C-15.943125 151.2525 -15.38625 151.005 -14.8125 150.75 C-12.10028873 149.28393985 -9.86412635 147.47010529 -7.5 145.5 C-8.82 144.51 -10.14 143.52 -11.5 142.5 C-11.17 140.52 -10.84 138.54 -10.5 136.5 C-9.51 136.17 -8.52 135.84 -7.5 135.5 C-7.83 135.83 -8.16 136.16 -8.5 136.5 C-8.54063832 138.16617115 -8.542721 139.83388095 -8.5 141.5 C-7.18 141.83 -5.86 142.16 -4.5 142.5 C-4.5 141.84 -4.5 141.18 -4.5 140.5 C1.9 140.13076923 1.9 140.13076923 4.9375 142 C5.453125 142.495 5.96875 142.99 6.5 143.5 C9.10943058 142.4354148 9.10943058 142.4354148 11.5 140.5 C12.58489277 134.51470174 9.54712324 130.27527955 6.625 125.3125 C6.16480469 124.50619141 5.70460938 123.69988281 5.23046875 122.86914062 C3.40040982 119.67847266 1.54111431 116.56167147 -0.5 113.5 C-0.83957563 109.42509248 -0.81332486 107.96998729 1.5 104.5 C1.5 102.19 1.5 99.88 1.5 97.5 C-5.1 97.5 -11.7 97.5 -18.5 97.5 C-18.5 97.83 -18.5 98.16 -18.5 98.5 C-16.77318563 99.00806447 -15.04342021 99.50610467 -13.3125 100 C-12.34957031 100.2784375 -11.38664062 100.556875 -10.39453125 100.84375 C-7.64654124 101.46677608 -5.30401584 101.62302812 -2.5 101.5 C-3 104.25 -3 104.25 -4.5 107.5 C-6.4909931 108.70218863 -8.53102239 109.5760758 -10.66015625 110.5078125 C-12.73814341 111.42377545 -12.73814341 111.42377545 -13.9375 113.9375 C-14.123125 114.783125 -14.30875 115.62875 -14.5 116.5 C-14.70625 117.428125 -14.9125 118.35625 -15.125 119.3125 C-15.310625 120.3953125 -15.310625 120.3953125 -15.5 121.5 C-15.5 120.51 -15.5 119.52 -15.5 118.5 C-22.25887425 116.42034638 -28.45559921 116.28866798 -35.5 116.5 C-35.5 115.84 -35.5 115.18 -35.5 114.5 C-34.84 114.4175 -34.18 114.335 -33.5 114.25 C-30.85668059 113.58917015 -29.06096744 112.82179535 -26.6875 111.5625 C-22.69808663 109.47280728 -18.89586483 108.44197103 -14.5 107.5 C-18.82329364 104.61780424 -22.42271667 104.79991943 -27.5 105.5 C-31.63774197 106.89545469 -35.56703353 108.60785118 -39.5 110.5 C-39.5 109.51 -39.5 108.52 -39.5 107.5 C-38.943125 107.2525 -38.38625 107.005 -37.8125 106.75 C-35.39349954 105.54227284 -35.39349954 105.54227284 -33.1875 103.5625 C-30.05562237 101.15896601 -27.16380448 99.93678607 -23.5 98.5 C-23.5 98.17 -23.5 97.84 -23.5 97.5 C-27.74923723 96.82840975 -31.99950501 96.16357939 -36.25 95.5 C-38.05984375 95.21382813 -38.05984375 95.21382813 -39.90625 94.921875 C-41.06640625 94.74140625 -42.2265625 94.5609375 -43.421875 94.375 C-45.02434082 94.12363281 -45.02434082 94.12363281 -46.65917969 93.8671875 C-49.68375791 93.41454154 -49.68375791 93.41454154 -53.5 93.5 Z M-105.5 114.5 C-107.54563426 120.63690278 -106.98699026 126.67068731 -104.48046875 132.58984375 C-101.70082189 138.0051717 -97.96567628 142.37783728 -93.5 146.5 C-92.860625 147.11875 -92.22125 147.7375 -91.5625 148.375 C-89.43415437 149.75728169 -89.43415437 149.75728169 -86.375 149.4375 C-83.39340351 148.80552641 -83.39340351 148.80552641 -82.25 146.5 C-82.0025 145.84 -81.755 145.18 -81.5 144.5 C-80.84 144.17 -80.18 143.84 -79.5 143.5 C-80.49 146.47 -81.48 149.44 -82.5 152.5 C-86.57942056 153.47906093 -88.71272588 153.9100386 -92.5 151.9375 C-95.89083885 149.18244343 -99.21994648 146.3864471 -102.5 143.5 C-103.16 147.46 -103.82 151.42 -104.5 155.5 C-105.49 155.5 -106.48 155.5 -107.5 155.5 C-109.03957761 156.97188931 -109.03957761 156.97188931 -110.4375 158.875 C-113.11655999 162.34706174 -113.11655999 162.34706174 -115.55297852 163.31884766 C-117.71748746 164.32900764 -117.71748746 164.32900764 -118.109375 166.6640625 C-118.15578125 167.47617188 -118.2021875 168.28828125 -118.25 169.125 C-118.30671875 169.94226563 -118.3634375 170.75953125 -118.421875 171.6015625 C-118.46054688 172.54128906 -118.46054688 172.54128906 -118.5 173.5 C-117.49924438 173.98859497 -117.49924438 173.98859497 -116.47827148 174.48706055 C-79.77854707 192.4653157 -79.77854707 192.4653157 -63.08056641 203.71484375 C-62.55897949 203.97394531 -62.03739258 204.23304688 -61.5 204.5 C-60.84 204.17 -60.18 203.84 -59.5 203.5 C-61.00360123 200.57193444 -61.95162824 198.80304755 -64.875 197.1875 C-68.15785333 195.07709429 -69.3685251 192.72699662 -71.19140625 189.33984375 C-72.37498424 187.35877391 -72.37498424 187.35877391 -74.51171875 186.546875 C-78.01599719 184.70179323 -78.54852681 181.4216976 -79.73828125 177.82421875 C-81.62352262 169.59683205 -81.17642131 161.42461579 -79 153.3125 C-77.4984139 147.54926955 -77.16400942 142.10988812 -77.125 136.1875 C-77.10469727 134.9332019 -77.10469727 134.9332019 -77.08398438 133.65356445 C-77.12462688 127.97885405 -78.02778411 123.63594147 -80.5 118.5 C-81.49 118.17 -82.48 117.84 -83.5 117.5 C-84.180625 116.324375 -84.180625 116.324375 -84.875 115.125 C-86.81799345 111.98631827 -88.103887 110.93391438 -91.5 109.5 C-98.20044253 108.64915015 -100.85287462 109.62618557 -105.5 114.5 Z M-58.5 143.5 C-57.5 145.5 -57.5 145.5 -57.5 145.5 Z M-1.5 143.5 C-1.5 143.83 -1.5 144.16 -1.5 144.5 C0.15 144.5 1.8 144.5 3.5 144.5 C3.5 144.17 3.5 143.84 3.5 143.5 C1.85 143.5 0.2 143.5 -1.5 143.5 Z M-52.5 148.5 C-51.5 150.5 -51.5 150.5 -51.5 150.5 Z M-124.5 175.5 C-124.83 177.81 -125.16 180.12 -125.5 182.5 C-124.90276123 182.82572998 -124.30552246 183.15145996 -123.69018555 183.48706055 C-97.91769536 197.61400253 -73.76964353 213.65887572 -53.25 234.85546875 C-50.89560853 237.73104988 -50.89560853 237.73104988 -48.5 237.5 C-48.16151348 235.60507994 -47.82943089 233.70901534 -47.5 231.8125 C-47.2215625 230.22888672 -47.2215625 230.22888672 -46.9375 228.61328125 C-46.29502504 224.55361513 -46.29502504 224.55361513 -46.5 220.5 C-48.47788846 218.31655816 -48.47788846 218.31655816 -51.3125 216.4375 C-51.84746094 216.0573877 -52.38242188 215.67727539 -52.93359375 215.28564453 C-54.77294078 213.99841092 -56.6329693 212.74670824 -58.5 211.5 C-59.15403809 211.05769043 -59.80807617 210.61538086 -60.48193359 210.15966797 C-80.61625617 196.65569563 -102.45419921 185.51835036 -124.5 175.5 Z M-74.5 182.5 C-73.5 186.5 -73.5 186.5 -73.5 186.5 Z " fill="#FFFFFF" transform="translate(164.5,14.5)"/>
<path d="M0 0 C4.72491753 3.75845713 6.46627377 7.16294114 7.2890625 13.078125 C7.80314207 21.24928446 4.81077071 28.47114989 2 36 C5.94473955 36.06920596 9.59001428 36.05856939 13.5 35.5 C21.98078643 34.28845908 28.25705155 35.20931095 36 39 C38.67525542 41.23974872 39.82638356 42.47400284 40.22265625 45.95703125 C40.24883183 47.97255105 40.12772312 49.98836086 40 52 C39.68627451 55.76593137 39.68627451 55.76593137 41 57.875 C42.37093659 60.78824026 42.31956889 62.80431113 42 66 C41.03112419 68.01526169 40.0358679 70.01833966 39 72 C39.33 72.66 39.66 73.32 40 74 C40.3125 77.375 40.3125 77.375 40 81 C39.38125 81.598125 38.7625 82.19625 38.125 82.8125 C35.22848877 85.79420273 35.17997798 88.52418056 34.6875 92.5625 C33.75536783 95.86733224 32.78500482 96.95651349 30 99 C26.93408102 100.13911026 23.80820576 100.88742793 20.625 101.625 C18.95010064 102.03212938 17.27561061 102.44094693 15.6015625 102.8515625 C14.80427734 103.04339111 14.00699219 103.23521973 13.18554688 103.43286133 C10.81169056 104.01667609 10.81169056 104.01667609 7.8203125 105.11328125 C4.57933875 106.13225776 1.63789041 106.37905432 -1.75 106.5625 C-6.03279844 106.6800499 -6.03279844 106.6800499 -10 108 C-9.9175 108.9075 -9.835 109.815 -9.75 110.75 C-10 114 -10 114 -12 116.375 C-12.66 116.91125 -13.32 117.4475 -14 118 C-13.690625 118.5775 -13.38125 119.155 -13.0625 119.75 C-11.16072522 123.77728776 -11.16072522 123.77728776 -11 126 C-12.8359375 128.76171875 -12.8359375 128.76171875 -15.375 131.6875 C-16.20773438 132.66074219 -17.04046875 133.63398438 -17.8984375 134.63671875 C-20 137 -20 137 -21 138 C-23.70838086 138.09514592 -26.39118513 138.12554932 -29.09985352 138.11352539 C-29.94856018 138.11367142 -30.79726685 138.11381744 -31.67169189 138.1139679 C-34.49078891 138.11326848 -37.30982071 138.10547478 -40.12890625 138.09765625 C-42.07803817 138.09579217 -44.02717055 138.09436822 -45.9763031 138.09336853 C-51.11706832 138.08954255 -56.25780547 138.07971159 -61.39855957 138.06866455 C-66.64005148 138.05845215 -71.8815479 138.05387128 -77.12304688 138.04882812 C-87.41537694 138.03808939 -97.70768614 138.02101201 -108 138 C-107.38212616 137.28057472 -107.38212616 137.28057472 -106.75177002 136.5466156 C-106.21139099 135.9169136 -105.67101196 135.28721161 -105.11425781 134.63842773 C-104.31075897 133.70243996 -104.31075897 133.70243996 -103.49102783 132.74754333 C-102.37271277 131.43683404 -101.26865041 130.11394184 -100.171875 128.78515625 C-99.46804687 127.93244141 -99.46804687 127.93244141 -98.75 127.0625 C-98.27046875 126.47597656 -97.7909375 125.88945312 -97.296875 125.28515625 C-96 124 -96 124 -94 124 C-93.75016357 123.4234668 -93.50032715 122.84693359 -93.24291992 122.25292969 C-91.82641968 119.68536649 -90.21078033 118.00010232 -88.11328125 115.953125 C-87.33919922 115.19 -86.56511719 114.426875 -85.76757812 113.640625 C-84.55231445 112.45726562 -84.55231445 112.45726562 -83.3125 111.25 C-78.18626549 106.23656772 -73.19436836 101.2049391 -68.52124023 95.76367188 C-66.54695174 93.47475195 -64.48899983 91.28512347 -62.375 89.125 C-61.66085938 88.38507813 -60.94671875 87.64515625 -60.2109375 86.8828125 C-57.87645776 84.89479265 -55.84393543 84.07520308 -53 83 C-52.154375 82.154375 -51.30875 81.30875 -50.4375 80.4375 C-48 78 -48 78 -46.03515625 77.52734375 C-42.13488254 76.51671621 -40.13436141 73.24515986 -38 70 C-36.36613252 66.4340687 -35.21256102 62.72702967 -34 59 C-30.68526804 48.99072137 -27.63618966 40.07008994 -20.99609375 31.734375 C-15.16387714 23.74503717 -11.62496547 15.10497083 -11.28515625 5.19140625 C-11 3 -11 3 -8.8125 0.25 C-5.22555511 -1.34419773 -3.6961929 -1.30906832 0 0 Z M-4 4 C-4.03738281 4.62648437 -4.07476562 5.25296875 -4.11328125 5.8984375 C-4.17902344 6.71570313 -4.24476563 7.53296875 -4.3125 8.375 C-4.39951172 9.59316406 -4.39951172 9.59316406 -4.48828125 10.8359375 C-5 13 -5 13 -8 15 C-9.06172135 18.98145507 -9.05090762 22.02990455 -8 26 C-8.7734375 26.07863281 -9.546875 26.15726563 -10.34375 26.23828125 C-13.09481038 26.73991536 -13.09481038 26.73991536 -14.40625 28.85546875 C-14.7671875 29.62503906 -15.128125 30.39460938 -15.5 31.1875 C-16.90233819 34.12740184 -18.15866598 36.17297193 -20.3828125 38.59765625 C-24.04067035 42.86447818 -25.57221064 48.0036804 -27.375 53.25 C-27.74238281 54.23613281 -28.10976562 55.22226563 -28.48828125 56.23828125 C-30.72988088 62.65856093 -31.84389863 68.32097229 -30 75 C-28.54896242 77.44204439 -27.06588501 78.98450243 -25 81 C-24.34 81.66 -23.68 82.32 -23 83 C-27.59801699 81.01449266 -30.08594242 79.05886592 -33 75 C-33.66 74.34 -34.32 73.68 -35 73 C-37.97 77.455 -37.97 77.455 -41 82 C-39.74896484 82.94359375 -39.74896484 82.94359375 -38.47265625 83.90625 C-31.73487252 89.02002422 -25.21570193 94.25007419 -19 100 C-18.67 99.34 -18.34 98.68 -18 98 C-18.93578995 95.64018187 -19.93347808 93.30368736 -21 91 C-19.1579286 92.74996783 -17.74399702 94.37926367 -16.3125 96.5 C-12.49596043 100.62598873 -8.17780951 101.75345553 -2.6875 102.375 C2.39157992 101.8584834 7.12564866 100.4808156 12 99 C11.236875 98.2575 10.47375 97.515 9.6875 96.75 C4.01938924 90.95007271 4.01938924 90.95007271 3.9375 86.9375 C3.958125 85.968125 3.97875 84.99875 4 84 C3.34 83.01 2.68 82.02 2 81 C1.61500109 79.34450469 1.27206865 77.6777567 1 76 C-0.546875 77.175625 -0.546875 77.175625 -2.125 78.375 C-5.28098738 80.64396852 -8.21815519 81.98535871 -12 83 C-12 82.34 -12 81.68 -12 81 C-11.443125 80.95875 -10.88625 80.9175 -10.3125 80.875 C-5.73485476 79.14291802 -3.50451952 74.91894627 -1.25 70.8125 C2.29585615 61.51991146 0.6696786 53.26378475 -2 44 C-3.54625759 37.5940757 -2.15665743 33.05569911 0 27 C-0.66 27 -1.32 27 -2 27 C-2 26.34 -2 25.68 -2 25 C-1.01 24.67 -0.02 24.34 1 24 C2.33827901 21.32344199 2.20578556 19.17565948 2.25 16.1875 C2.28867188 14.63095703 2.28867188 14.63095703 2.328125 13.04296875 C1.95483786 9.58117495 1.11160125 7.74804181 -1 5 C-1.99 4.67 -2.98 4.34 -4 4 Z M-7 6 C-6 10 -6 10 -6 10 Z M1 42 C1.66 43.98 2.32 45.96 3 48 C3.99 47.67 4.98 47.34 6 47 C6.33 46.01 6.66 45.02 7 44 C7.7425 44.226875 8.485 44.45375 9.25 44.6875 C12.05914993 45.29476698 12.05914993 45.29476698 14.3125 43.5625 C14.869375 43.046875 15.42625 42.53125 16 42 C16 42.66 16 43.32 16 44 C17.0725 43.649375 18.145 43.29875 19.25 42.9375 C23.92307692 41.76923077 23.92307692 41.76923077 27 43 C24.41210938 44.07421875 24.41210938 44.07421875 21.82421875 45.1484375 C19.73466068 46.06806692 19.73466068 46.06806692 17 48 C15.80375 48.165 14.6075 48.33 13.375 48.5 C12.26125 48.665 11.1475 48.83 10 49 C9.67 49.66 9.34 50.32 9 51 C9.495 51.433125 9.99 51.86625 10.5 52.3125 C12 54 12 54 12 57 C13.98 57 15.96 57 18 57 C17.34 55.35 16.68 53.7 16 52 C16.66 52.33 17.32 52.66 18 53 C18.625 55.0625 18.625 55.0625 19 57 C24.43054444 56.44302108 29.33437064 54.82765416 34 52 C35.86007491 49.65078217 35.86007491 49.65078217 36 47 C35.63562767 44.76955321 35.63562767 44.76955321 34 43 C24.12512343 37.12107057 11.77318516 39.99568648 1 42 Z M6 53 C6.33 54.32 6.66 55.64 7 57 C7.99 57 8.98 57 10 57 C9.67 55.68 9.34 54.36 9 53 C8.01 53 7.02 53 6 53 Z M25.3125 59.5 C19.82161622 61.28014954 14.72280703 61.29375625 9 61 C9.254496 62.48206495 9.52911762 63.96068615 9.8125 65.4375 C9.96332031 66.26121094 10.11414063 67.08492187 10.26953125 67.93359375 C10.51058594 68.61550781 10.75164062 69.29742187 11 70 C17.92016006 72.30672002 26.09915358 71.00381721 33 69 C35.31900607 67.72672555 35.31900607 67.72672555 37 66 C37.31900332 62.87376745 37.41441874 60.82883747 36 58 C32.04175078 57.68750664 29.01857726 58.24099768 25.3125 59.5 Z M5 63 C5.33 64.65 5.66 66.3 6 68 C6.66 68 7.32 68 8 68 C7.67 66.35 7.34 64.7 7 63 C6.34 63 5.68 63 5 63 Z M28.3125 73.46875 C24.69343488 74.0491661 21.28797536 74.09705637 17.625 74.0625 C15.75714844 74.04896484 15.75714844 74.04896484 13.8515625 74.03515625 C12.44003906 74.01775391 12.44003906 74.01775391 11 74 C11 76.31 11 78.62 11 81 C15.0978356 82.94802412 18.48082623 83.2978906 23 83.3125 C24.19625 83.32925781 25.3925 83.34601563 26.625 83.36328125 C30.25860613 82.97216392 32.16650921 82.28593065 35 80 C35.41746608 76.87364791 35.41746608 76.87364791 35 74 C32.47584372 73.12625359 30.9768773 73.00403303 28.3125 73.46875 Z M5 75 C5.33 76.32 5.66 77.64 6 79 C6.99 78.67 7.98 78.34 9 78 C8.67 77.01 8.34 76.02 8 75 C7.01 75 6.02 75 5 75 Z M-48 84 C-48.66 85.65 -49.32 87.3 -50 89 C-48.81857422 89.87398438 -48.81857422 89.87398438 -47.61328125 90.765625 C-40.34139565 96.21475136 -33.56906346 101.99072759 -26.97265625 108.23828125 C-24.08666687 110.96111193 -21.07048974 113.48778112 -18 116 C-17.01 114.35 -16.02 112.7 -15 111 C-22.13268293 102.58297545 -29.41354652 94.91318539 -38.375 88.4375 C-38.982229 87.9955127 -39.58945801 87.55352539 -40.21508789 87.09814453 C-43.75734644 84.56290137 -43.75734644 84.56290137 -48 84 Z M8 86 C8 86.99 8 87.98 8 89 C8.66 89 9.32 89 10 89 C10 88.01 10 87.02 10 86 C9.34 86 8.68 86 8 86 Z M13 86 C12.34 87.98 11.68 89.96 11 92 C19.31792594 94.93325135 19.31792594 94.93325135 28 95 C30.1349293 92.80359527 30.1349293 92.80359527 31 90 C30.67 89.01 30.34 88.02 30 87 C24.39 86.67 18.78 86.34 13 86 Z " fill="#FFFFFF" transform="translate(251,145)"/>
<path d="M0 0 C3.83136162 2.05251515 4.67918935 3.04371092 6.5 6.875 C6.91975542 9.94647956 7.00002895 12.93845664 7.09375 16.03515625 C7.54688974 19.20277735 8.51098438 20.44636368 10.5 22.875 C10.1875 25.125 10.1875 25.125 9.5 26.875 C4.72953336 26.29676162 1.50197849 24.41471712 -2.5 21.875 C-3.95147903 18.97204195 -3.87239025 17.10238221 -3.5 13.875 C-2.02631484 11.59748656 -0.38564762 9.85493 1.5 7.875 C0.18 8.205 -1.14 8.535 -2.5 8.875 C-2.5 7.555 -2.5 6.235 -2.5 4.875 C-3.49 4.875 -4.48 4.875 -5.5 4.875 C-7.30230168 8.70489106 -7.69622241 11.65621808 -7.5 15.875 C-8.49 15.545 -9.48 15.215 -10.5 14.875 C-11.12644556 4.78226598 -11.12644556 4.78226598 -8.6875 1.25 C-5.17746048 -0.95631055 -4.0427778 -1.29946429 0 0 Z " fill="#FFFFFF" transform="translate(71.5,127.125)"/>
<path d="M0 0 C1.98 0.99 1.98 0.99 4 2 C4 2.66 4 3.32 4 4 C4.99 4.33 5.98 4.66 7 5 C7 5.66 7 6.32 7 7 C4.625 6.3125 4.625 6.3125 2 5 C0.6875 2.375 0.6875 2.375 0 0 Z " fill="#FFFFFF" transform="translate(64,147)"/>
<path d="M0 0 C0.66 0 1.32 0 2 0 C2.33 1.98 2.66 3.96 3 6 C2.01 5.67 1.02 5.34 0 5 C0 3.35 0 1.7 0 0 Z " fill="#FFFFFF" transform="translate(265,209)"/>
<path d="M0 0 C0.66 0 1.32 0 2 0 C2 1.65 2 3.3 2 5 C1.34 4.67 0.68 4.34 0 4 C0 2.68 0 1.36 0 0 Z " fill="#FFFFFF" transform="translate(266,222)"/>
<path d="M0 0 C0.66 0 1.32 0 2 0 C2 1.32 2 2.64 2 4 C1.34 4 0.68 4 0 4 C0 2.68 0 1.36 0 0 Z " fill="#FFFFFF" transform="translate(266,233)"/>
</svg>
