<?xml version="1.0" encoding="UTF-8"?>
<svg version="1.1" xmlns="http://www.w3.org/2000/svg" width="300" height="300">
<path d="M0 0 C6.0776745 6.0776745 7.1650093 12.25832247 7.53515625 20.7265625 C7.44934714 29.93673991 5.84595394 38.62601287 3.3125 47.4375 C1.70839448 53.18007849 1.15302203 56.72723725 2.5 62.5 C2.61601562 63.44101563 2.73203125 64.38203125 2.8515625 65.3515625 C2.98304688 66.34929687 3.11453125 67.34703125 3.25 68.375 C3.36859375 69.30054687 3.4871875 70.22609375 3.609375 71.1796875 C3.90328125 71.94539063 4.1971875 72.71109375 4.5 73.5 C6.14587324 74.21646599 7.81681123 74.87622296 9.5 75.5 C12.7641556 77.21443842 15.93733522 79.08527357 19.125 80.9375 C19.98351562 81.42798828 20.84203125 81.91847656 21.7265625 82.42382812 C22.5515625 82.90142578 23.3765625 83.37902344 24.2265625 83.87109375 C24.97502441 84.30349365 25.72348633 84.73589355 26.49462891 85.18139648 C28.43426514 86.45677697 29.92987246 87.79897668 31.5 89.5 C29.85881055 93.34553214 27.96587432 94.81790356 24.140625 96.6171875 C18.76902933 98.41301682 13.11054795 98.90112129 7.5 99.5 C7.066875 101.0778125 7.066875 101.0778125 6.625 102.6875 C5.5 106.5 5.5 106.5 4.26196289 108.89501953 C3.21063548 111.52918886 3.21063548 111.52918886 4.48217773 114.15966797 C5.04364502 115.09439941 5.6051123 116.02913086 6.18359375 116.9921875 C7.07981445 118.54486328 7.07981445 118.54486328 7.99414062 120.12890625 C9.28523983 122.28549608 10.57690264 124.44174859 11.86914062 126.59765625 C17.02351049 135.53041781 17.02351049 135.53041781 16.6015625 139.57421875 C14.99977381 143.82861495 13.15880263 144.93105347 9.5 147.5 C10.16 148.49 10.82 149.48 11.5 150.5 C11.80078125 152.875 11.80078125 152.875 11.8125 155.5 C11.83763672 156.799375 11.83763672 156.799375 11.86328125 158.125 C11.43347739 160.93490048 10.76076207 161.82780615 8.5 163.5 C7.84 163.5 7.18 163.5 6.5 163.5 C6.41846067 165.08246707 6.36056443 166.66616273 6.3125 168.25 C6.27769531 169.13171875 6.24289063 170.0134375 6.20703125 170.921875 C6.55943427 174.02302157 7.58395379 175.08532007 9.5 177.5 C12.96115451 185.98579606 14.20182155 194.39064839 14.5 203.5 C13.84 203.83 13.18 204.16 12.5 204.5 C11.95865069 206.42046168 11.95865069 206.42046168 11.625 208.6875 C10.73822012 213.03826379 9.37659789 216.03116137 6.5 219.5 C4.375 220.6875 4.375 220.6875 2.5 221.5 C1.84 222.49 1.18 223.48 0.5 224.5 C-2.52267958 225.70400235 -4.59250365 225.44807735 -7.6875 224.625 C-10.83527413 223.8457969 -13.8310656 223.3252637 -17.0625 223.0625 C-22.80430212 222.49938105 -27.67147438 220.71901708 -32.5 217.5 C-34.49883869 217.15977214 -36.49890722 216.82670903 -38.5 216.5 C-40.875 215.4375 -40.875 215.4375 -42.5 214.5 C-43.16 215.49 -43.82 216.48 -44.5 217.5 C-43.84 217.5 -43.18 217.5 -42.5 217.5 C-35.48100952 232.6533274 -35.48100952 232.6533274 -34.0625 239.5 C-32.76699934 245.51541389 -30.16514496 250.59578969 -27.27954102 255.98242188 C-25.42113884 259.47791497 -24.00194394 262.55289538 -23.5 266.5 C-13.98444771 258.56597005 -13.98444771 258.56597005 -5.89453125 249.26171875 C-5.43433594 248.68035156 -4.97414062 248.09898437 -4.5 247.5 C-3.84 247.5 -3.18 247.5 -2.5 247.5 C-2.24565186 246.91895508 -1.99130371 246.33791016 -1.72924805 245.73925781 C-0.36726505 243.25820358 1.1431444 241.64481897 3.16796875 239.671875 C3.89693359 238.95386719 4.62589844 238.23585937 5.37695312 237.49609375 C6.13943359 236.75488281 6.90191406 236.01367188 7.6875 235.25 C12.65514385 230.39868432 17.48185642 225.52461888 21.9855957 220.23535156 C25.97481049 215.66412172 25.97481049 215.66412172 29.5 214.5625 C32.57737021 213.79367457 32.57737021 213.79367457 33.9375 211.5 C35.5 209.5 35.5 209.5 38.8125 208.6875 C43.72694489 207.10488216 45.81486327 204.83570607 48.5 200.5 C50.12104677 196.92746231 51.28716417 193.22787434 52.5 189.5 C55.81473196 179.49072137 58.86381034 170.57008994 65.50390625 162.234375 C71.33612286 154.24503717 74.87503453 145.60497083 75.21484375 135.69140625 C75.5 133.5 75.5 133.5 77.6875 130.75 C81.27444489 129.15580227 82.8038071 129.19093168 86.5 130.5 C91.22491753 134.25845713 92.96627377 137.66294114 93.7890625 143.578125 C94.30314207 151.74928446 91.31077071 158.97114989 88.5 166.5 C92.44473955 166.56920596 96.09001428 166.55856939 100 166 C108.48078643 164.78845908 114.75705155 165.70931095 122.5 169.5 C125.17525542 171.73974872 126.32638356 172.97400284 126.72265625 176.45703125 C126.74883183 178.47255105 126.62772312 180.48836086 126.5 182.5 C126.18627451 186.26593137 126.18627451 186.26593137 127.5 188.375 C128.87093659 191.28824026 128.81956889 193.30431113 128.5 196.5 C127.53112419 198.51526169 126.5358679 200.51833966 125.5 202.5 C125.83 203.16 126.16 203.82 126.5 204.5 C126.8125 207.875 126.8125 207.875 126.5 211.5 C125.88125 212.098125 125.2625 212.69625 124.625 213.3125 C121.72848877 216.29420273 121.67997798 219.02418056 121.1875 223.0625 C120.25536783 226.36733224 119.28500482 227.45651349 116.5 229.5 C113.43408102 230.63911026 110.30820576 231.38742793 107.125 232.125 C105.45010064 232.53212938 103.77561061 232.94094693 102.1015625 233.3515625 C100.90563477 233.63930542 100.90563477 233.63930542 99.68554688 233.93286133 C97.31169056 234.51667609 97.31169056 234.51667609 94.3203125 235.61328125 C91.07933875 236.63225776 88.13789041 236.87905432 84.75 237.0625 C80.46720156 237.1800499 80.46720156 237.1800499 76.5 238.5 C76.5825 239.4075 76.665 240.315 76.75 241.25 C76.5 244.5 76.5 244.5 74.5 246.875 C73.51 247.679375 73.51 247.679375 72.5 248.5 C72.809375 249.0775 73.11875 249.655 73.4375 250.25 C75.33927478 254.27728776 75.33927478 254.27728776 75.5 256.5 C73.6640625 259.26171875 73.6640625 259.26171875 71.125 262.1875 C70.29226562 263.16074219 69.45953125 264.13398438 68.6015625 265.13671875 C65.61825243 268.49155628 65.61825243 268.49155628 63.77674294 268.62304783 C63.02200377 268.62212604 62.2672646 268.62120424 61.48965454 268.62025452 C60.62595749 268.62162918 59.76226044 268.62300385 58.87239075 268.62442017 C57.44016426 268.61902725 57.44016426 268.61902725 55.97900391 268.61352539 C54.47908653 268.61374443 54.47908653 268.61374443 52.9488678 268.6139679 C49.62474439 268.6132681 46.30067619 268.60547119 42.9765625 268.59765625 C40.67589346 268.59579189 38.37522402 268.59436807 36.07455444 268.59336853 C30.00279657 268.58954135 23.93106243 268.57971151 17.85931396 268.56866455 C11.68225423 268.55846755 5.50519071 268.55387118 -0.671875 268.54882812 C-12.28961303 268.53856336 -23.90733543 268.52276612 -35.52506065 268.50279331 C-37.18337237 268.50044783 -38.84168662 268.5 -40.5 268.5 C-60.10815136 265.40794536 -76.15955196 257.84960725 -93.5 248.5 C-110.70422273 239.24035314 -128.30299935 233.58306941 -147.6875 239.25 C-152.50311619 240.97380656 -156.99765448 243.0820737 -161.5 245.5 C-162.49 245.83 -163.48 246.16 -164.5 246.5 C-162.74129674 234.18907717 -155.81147067 223.35982987 -149.1875 213.0625 C-146.20622084 208.42648935 -143.66656307 204.21206413 -142.1953125 198.85546875 C-141.21824114 195.54550228 -139.93837675 192.37444221 -138.625 189.1875 C-138.15320313 188.01574219 -137.68140625 186.84398437 -137.1953125 185.63671875 C-135.36473019 182.24971968 -133.53407841 180.78912583 -130.5 178.5 C-129.45401533 176.67607437 -129.45401533 176.67607437 -128.9375 174.8125 C-128.463125 173.719375 -127.98875 172.62625 -127.5 171.5 C-125.41015625 170.79296875 -125.41015625 170.79296875 -123.5 170.5 C-122.61717901 158.14050613 -126.97470322 146.37343426 -131.42382812 135.02490234 C-133.0416497 130.86759742 -134.192014 126.87175868 -135.01171875 122.5 C-135.76548427 119.41257642 -137.13603195 116.67291935 -138.5390625 113.83203125 C-139.5 111.5 -139.5 111.5 -139.8984375 108.88671875 C-140.3691878 105.88901639 -140.79185412 104.02894326 -142.5 101.5 C-146.23696493 99.71218714 -149.83434118 98.6288452 -153.8359375 97.6328125 C-158.92954703 96.05802917 -161.56591542 93.90112686 -164.5 89.5 C-164.90625 87.046875 -164.90625 87.046875 -165 84.25 C-165.0515625 83.33734375 -165.103125 82.4246875 -165.15625 81.484375 C-163.51287942 74.01095165 -156.44675258 69.7066179 -150.4375 65.6875 C-148.91252527 64.6402558 -147.38910037 63.59075141 -145.8671875 62.5390625 C-144.74908691 61.76804199 -144.74908691 61.76804199 -143.60839844 60.98144531 C-140.6860042 58.9280539 -137.87742423 56.76143572 -135.0625 54.5625 C-115.15715051 39.14950494 -95.99726701 28.08316916 -72.109375 20 C-59.23248417 15.63983518 -46.71840184 10.56356527 -34.18945312 5.29858398 C-33.47066483 4.99801086 -32.75187653 4.69743774 -32.01130676 4.38775635 C-30.66141027 3.82284037 -29.31289614 3.25460416 -27.96611023 2.68231201 C-19.00998993 -1.06365447 -9.329296 -3.99826971 0 0 Z M-20.5 65.5 C-16.5 66.5 -16.5 66.5 -16.5 66.5 Z M-25.5 66.5 C-21.5 67.5 -21.5 67.5 -21.5 67.5 Z M-12.5 71.5 C-8.5 72.5 -8.5 72.5 -8.5 72.5 Z M-18.5 72.5 C-14.5 73.5 -14.5 73.5 -14.5 73.5 Z M-23.5 73.5 C-19.5 74.5 -19.5 74.5 -19.5 74.5 Z M-28.5 74.5 C-24.5 75.5 -24.5 75.5 -24.5 75.5 Z M-32.5 75.5 C-28.5 76.5 -28.5 76.5 -28.5 76.5 Z M-36.5 76.5 C-32.5 77.5 -32.5 77.5 -32.5 77.5 Z M-43.5 79.5 C-40.035 79.005 -40.035 79.005 -36.5 78.5 C-39.98581856 77.2979936 -40.17992344 77.28661563 -43.5 79.5 Z M-50.5 80.5 C-46.5 81.5 -46.5 81.5 -46.5 81.5 Z M-82.5 82.5 C-82.12095792 85.79075996 -82.12095792 85.79075996 -80.5 88.5 C-78.83382885 88.54063832 -77.16611905 88.542721 -75.5 88.5 C-74.72757731 86.66299211 -74.72757731 86.66299211 -74.5 84.5 C-75.66666667 82.66666667 -75.66666667 82.66666667 -77.5 81.5 C-80.4254644 81.2763932 -80.4254644 81.2763932 -82.5 82.5 Z M-53.5 81.5 C-54.49 82.16 -55.48 82.82 -56.5 83.5 C-54.52 83.17 -52.54 82.84 -50.5 82.5 C-51.49 82.17 -52.48 81.84 -53.5 81.5 Z M-70.5 87.5 C-66.87673261 88.7077558 -65.85853631 88.04311128 -62.5 86.5 C-66.12326739 85.2922442 -67.14146369 85.95688872 -70.5 87.5 Z M-53.5 95.5 C-54.03625 96.510625 -54.5725 97.52125 -55.125 98.5625 C-57.11419867 102.07746397 -59.49770923 104.96080899 -62.23046875 107.921875 C-66.25693581 112.92708328 -64.94912795 121.37099132 -64.5 127.5 C-63.37974999 135.94494296 -63.37974999 135.94494296 -58.5 142.5 C-57.84 142.5 -57.18 142.5 -56.5 142.5 C-56.0875 143.469375 -55.675 144.43875 -55.25 145.4375 C-53.88784622 148.62786901 -53.88784622 148.62786901 -51.5 149.125 C-50.51 149.310625 -50.51 149.310625 -49.5 149.5 C-47.75 151.5625 -47.75 151.5625 -46.5 153.5 C-45.51 152.84 -44.52 152.18 -43.5 151.5 C-43.2525 152.36625 -43.005 153.2325 -42.75 154.125 C-40.93162514 159.03461211 -38.88657022 162.57561985 -34.5 165.5 C-34.83 164.51 -35.16 163.52 -35.5 162.5 C-35.87076101 158.96351041 -36.13184205 155.68934975 -34.4375 152.5 C-31.47912322 150.97309585 -28.76283401 151.31531128 -25.5 151.5 C-27.15 152.49 -28.8 153.48 -30.5 154.5 C-29.84 155.82 -29.18 157.14 -28.5 158.5 C-21.63647988 158.64920696 -18.46015968 155.23074959 -13.63671875 150.62890625 C-12.2565932 149.25382686 -10.87760478 147.87760478 -9.5 146.5 C-10.49 145.84 -11.48 145.18 -12.5 144.5 C-13 141.625 -13 141.625 -12.5 138.5 C-10 136.125 -10 136.125 -7.5 134.5 C-7.83 136.81 -8.16 139.12 -8.5 141.5 C-4.55968534 141.62849687 -4.55968534 141.62849687 -1 140.8125 C2.5 140.5 2.5 140.5 4.75 142 C5.3275 142.495 5.905 142.99 6.5 143.5 C7.49 143.17 8.48 142.84 9.5 142.5 C10.48096049 139.36661315 10.66066495 137.8946458 9.40429688 134.80859375 C8.84806641 133.86113281 8.29183594 132.91367188 7.71875 131.9375 C7.12449219 130.89335937 6.53023438 129.84921875 5.91796875 128.7734375 C5.28503906 127.69320312 4.65210938 126.61296875 4 125.5 C2.74721573 123.3618468 1.50702634 121.21625019 0.28125 119.0625 C-0.27498047 118.11503906 -0.83121094 117.16757813 -1.40429688 116.19140625 C-2.67536878 113.06923677 -2.52315839 111.66446335 -1.5 108.5 C-1.17 107.84 -0.84 107.18 -0.5 106.5 C-0.45977609 104.1670134 -0.45679753 101.83293334 -0.5 99.5 C-3.8 99.5 -7.1 99.5 -10.5 99.5 C-7.27208445 101.6519437 -6.21599191 101.70086443 -2.5 101.5 C-2.9375 104.125 -2.9375 104.125 -4.5 107.5 C-6.6015625 108.98828125 -6.6015625 108.98828125 -9.0625 110.4375 C-11.50538693 111.84632217 -11.50538693 111.84632217 -13.5 113.5 C-14.31870185 117.06206661 -14.31870185 117.06206661 -14.5 120.5 C-17.0625 122.9375 -17.0625 122.9375 -19.5 124.5 C-18.84 122.85 -18.18 121.2 -17.5 119.5 C-19.53955149 119.13384906 -21.58178248 118.78260721 -23.625 118.4375 C-25.33042969 118.14166016 -25.33042969 118.14166016 -27.0703125 117.83984375 C-30.4753892 117.50243866 -33.17178131 117.77669412 -36.5 118.5 C-36.17 117.18 -35.84 115.86 -35.5 114.5 C-34.84 114.4175 -34.18 114.335 -33.5 114.25 C-29.500166 113.2500415 -26.13099814 111.41295131 -22.5 109.5 C-21.16805942 108.83055508 -19.83511267 108.16309605 -18.5 107.5 C-26.62976963 105.3862599 -32.98734945 108.45062358 -40.5 111.5 C-40.109375 109.5625 -40.109375 109.5625 -39.5 107.5 C-37.75 106.5 -37.75 106.5 -35.5 105.5 C-32.62841788 103.32880376 -30.01977926 101.06360151 -27.5 98.5 C-31.08272727 97.99559207 -34.66627177 97.49724229 -38.25 97 C-39.26578125 96.85691406 -40.2815625 96.71382813 -41.328125 96.56640625 C-42.3078125 96.43105469 -43.2875 96.29570313 -44.296875 96.15625 C-45.19760742 96.03056641 -46.09833984 95.90488281 -47.02636719 95.77539062 C-49.74775398 95.42623544 -49.74775398 95.42623544 -53.5 95.5 Z M-104.5 113.5 C-107.12320732 117.72033015 -107.00965616 121.67419322 -106.5 126.5 C-104.57292532 134.65995684 -99.56400684 140.90245523 -93.5 146.5 C-92.5409375 147.428125 -92.5409375 147.428125 -91.5625 148.375 C-89.43415437 149.75728169 -89.43415437 149.75728169 -86.375 149.4375 C-83.39340351 148.80552641 -83.39340351 148.80552641 -82.25 146.5 C-82.0025 145.84 -81.755 145.18 -81.5 144.5 C-80.51 144.005 -80.51 144.005 -79.5 143.5 C-79.5 145.15 -79.5 146.8 -79.5 148.5 C-79.17 148.5 -78.84 148.5 -78.5 148.5 C-78.41217458 144.97932649 -78.35933357 141.45893856 -78.3125 137.9375 C-78.28736328 136.94685547 -78.26222656 135.95621094 -78.23632812 134.93554688 C-78.17686128 128.96904038 -78.67602808 124.78475584 -81.5 119.5 C-82.49 119.83 -83.48 120.16 -84.5 120.5 C-84.726875 119.7575 -84.95375 119.015 -85.1875 118.25 C-86.81314134 114.84389434 -88.29959896 113.49136065 -91.5 111.5 C-96.8403563 110.04353919 -99.89305748 110.39299225 -104.5 113.5 Z M82.5 134.5 C82.46261719 135.12648437 82.42523438 135.75296875 82.38671875 136.3984375 C82.32097656 137.21570313 82.25523437 138.03296875 82.1875 138.875 C82.10048828 140.09316406 82.10048828 140.09316406 82.01171875 141.3359375 C81.5 143.5 81.5 143.5 78.5 145.5 C77.43827865 149.48145507 77.44909238 152.52990455 78.5 156.5 C77.7265625 156.57863281 76.953125 156.65726563 76.15625 156.73828125 C73.40518962 157.23991536 73.40518962 157.23991536 72.09375 159.35546875 C71.7328125 160.12503906 71.371875 160.89460938 71 161.6875 C69.59766181 164.62740184 68.34133402 166.67297193 66.1171875 169.09765625 C62.45932965 173.36447818 60.92778936 178.5036804 59.125 183.75 C58.75761719 184.73613281 58.39023438 185.72226563 58.01171875 186.73828125 C55.77011912 193.15856093 54.65610137 198.82097229 56.5 205.5 C57.95103758 207.94204439 59.43411499 209.48450243 61.5 211.5 C62.16 212.16 62.82 212.82 63.5 213.5 C58.90198301 211.51449266 56.41405758 209.55886592 53.5 205.5 C52.84 204.84 52.18 204.18 51.5 203.5 C48.53 207.955 48.53 207.955 45.5 212.5 C46.75103516 213.44359375 46.75103516 213.44359375 48.02734375 214.40625 C54.76512748 219.52002422 61.28429807 224.75007419 67.5 230.5 C67.83 229.84 68.16 229.18 68.5 228.5 C67.56421005 226.14018187 66.56652192 223.80368736 65.5 221.5 C67.3420714 223.24996783 68.75600298 224.87926367 70.1875 227 C74.00403957 231.12598873 78.32219049 232.25345553 83.8125 232.875 C88.89157992 232.3584834 93.62564866 230.9808156 98.5 229.5 C97.736875 228.7575 96.97375 228.015 96.1875 227.25 C90.51938924 221.45007271 90.51938924 221.45007271 90.4375 217.4375 C90.458125 216.468125 90.47875 215.49875 90.5 214.5 C89.84 213.51 89.18 212.52 88.5 211.5 C88.11500109 209.84450469 87.77206865 208.1777567 87.5 206.5 C85.953125 207.675625 85.953125 207.675625 84.375 208.875 C81.21901262 211.14396852 78.28184481 212.48535871 74.5 213.5 C74.5 212.84 74.5 212.18 74.5 211.5 C75.056875 211.45875 75.61375 211.4175 76.1875 211.375 C80.76514524 209.64291802 82.99548048 205.41894627 85.25 201.3125 C88.79585615 192.01991146 87.1696786 183.76378475 84.5 174.5 C82.95374241 168.0940757 84.34334257 163.55569911 86.5 157.5 C85.84 157.5 85.18 157.5 84.5 157.5 C84.5 156.84 84.5 156.18 84.5 155.5 C85.49 155.17 86.48 154.84 87.5 154.5 C88.83827901 151.82344199 88.70578556 149.67565948 88.75 146.6875 C88.78867188 145.13095703 88.78867188 145.13095703 88.828125 143.54296875 C88.45483786 140.08117495 87.61160125 138.24804181 85.5 135.5 C84.51 135.17 83.52 134.84 82.5 134.5 Z M79.5 136.5 C80.5 140.5 80.5 140.5 80.5 140.5 Z M-102.5 145.5 C-103.49 148.8 -104.48 152.1 -105.5 155.5 C-106.16 155.5 -106.82 155.5 -107.5 155.5 C-108.36625 156.86125 -108.36625 156.86125 -109.25 158.25 C-111.5 161.5 -111.5 161.5 -114.6875 163.375 C-117.62485486 165.1331424 -117.62485486 165.1331424 -117.9934082 167.45751953 C-118.05359131 168.17536621 -118.11377441 168.89321289 -118.17578125 169.6328125 C-118.28277344 170.90898437 -118.38976562 172.18515625 -118.5 173.5 C-117.49924438 173.98859497 -117.49924438 173.98859497 -116.47827148 174.48706055 C-99.60782222 182.75146161 -82.77642638 191.18625725 -66.8371582 201.16748047 C-64.65881528 202.66509942 -64.65881528 202.66509942 -62.5 202.5 C-63.84506377 198.86832782 -66.0436614 197.21894179 -69.03515625 194.87109375 C-71.27074472 192.77858294 -72.33242097 190.28921658 -73.5 187.5 C-74.82 187.5 -76.14 187.5 -77.5 187.5 C-77.98108275 186.08398286 -78.45978141 184.66715563 -78.9375 183.25 C-79.20433594 182.46109375 -79.47117188 181.6721875 -79.74609375 180.859375 C-82.44627614 172.40906327 -82.15519777 163.97347729 -79.9453125 155.4140625 C-79.4017805 153.07782848 -79.34589082 150.88869236 -79.5 148.5 C-80.015625 149.304375 -80.53125 150.10875 -81.0625 150.9375 C-83.5 153.5 -83.5 153.5 -86.875 154.5625 C-93.44589475 154.44920871 -97.72329981 149.59431445 -102.5 145.5 Z M87.5 172.5 C88.16 174.48 88.82 176.46 89.5 178.5 C90.49 178.17 91.48 177.84 92.5 177.5 C92.83 176.51 93.16 175.52 93.5 174.5 C94.2425 174.726875 94.985 174.95375 95.75 175.1875 C98.55914993 175.79476698 98.55914993 175.79476698 100.8125 174.0625 C101.369375 173.546875 101.92625 173.03125 102.5 172.5 C102.5 173.16 102.5 173.82 102.5 174.5 C103.5725 174.149375 104.645 173.79875 105.75 173.4375 C110.42307692 172.26923077 110.42307692 172.26923077 113.5 173.5 C110.91210938 174.57421875 110.91210938 174.57421875 108.32421875 175.6484375 C106.23466068 176.56806692 106.23466068 176.56806692 103.5 178.5 C102.30375 178.665 101.1075 178.83 99.875 179 C98.76125 179.165 97.6475 179.33 96.5 179.5 C96.17 180.16 95.84 180.82 95.5 181.5 C95.995 181.933125 96.49 182.36625 97 182.8125 C98.5 184.5 98.5 184.5 98.5 187.5 C100.48 187.5 102.46 187.5 104.5 187.5 C103.84 185.85 103.18 184.2 102.5 182.5 C103.16 182.83 103.82 183.16 104.5 183.5 C105.125 185.5625 105.125 185.5625 105.5 187.5 C110.93054444 186.94302108 115.83437064 185.32765416 120.5 182.5 C122.36007491 180.15078217 122.36007491 180.15078217 122.5 177.5 C122.13562767 175.26955321 122.13562767 175.26955321 120.5 173.5 C110.62512343 167.62107057 98.27318516 170.49568648 87.5 172.5 Z M-124.5 176.5 C-124.83 178.48 -125.16 180.46 -125.5 182.5 C-124.90276123 182.82572998 -124.30552246 183.15145996 -123.69018555 183.48706055 C-100.40667289 196.2496935 -78.74368772 210.48319938 -59.4375 228.7734375 C-56.56280351 231.4834782 -53.55693075 233.99804775 -50.5 236.5 C-49.24093371 232.55492563 -48.35479228 228.87080369 -47.93359375 224.74609375 C-47.8087561 223.54811157 -47.8087561 223.54811157 -47.68139648 222.32592773 C-47.62153564 221.72337158 -47.5616748 221.12081543 -47.5 220.5 C-65.41329333 207.54191388 -84.00371084 196.91027075 -103.5 186.5 C-104.4580957 185.98598633 -105.41619141 185.47197266 -106.40332031 184.94238281 C-109.05787467 183.51900687 -111.71563523 182.10186405 -114.375 180.6875 C-115.17131836 180.26090088 -115.96763672 179.83430176 -116.78808594 179.39477539 C-120.44339058 177.26485572 -120.44339058 177.26485572 -124.5 176.5 Z M92.5 183.5 C92.83 184.82 93.16 186.14 93.5 187.5 C94.49 187.5 95.48 187.5 96.5 187.5 C96.17 186.18 95.84 184.86 95.5 183.5 C94.51 183.5 93.52 183.5 92.5 183.5 Z M111.8125 190 C106.32161622 191.78014954 101.22280703 191.79375625 95.5 191.5 C95.754496 192.98206495 96.02911762 194.46068615 96.3125 195.9375 C96.46332031 196.76121094 96.61414063 197.58492187 96.76953125 198.43359375 C97.01058594 199.11550781 97.25164062 199.79742187 97.5 200.5 C104.42016006 202.80672002 112.59915358 201.50381721 119.5 199.5 C121.81900607 198.22672555 121.81900607 198.22672555 123.5 196.5 C123.81900332 193.37376745 123.91441874 191.32883747 122.5 188.5 C118.54175078 188.18750664 115.51857726 188.74099768 111.8125 190 Z M91.5 193.5 C91.83 195.15 92.16 196.8 92.5 198.5 C93.16 198.5 93.82 198.5 94.5 198.5 C94.17 196.85 93.84 195.2 93.5 193.5 C92.84 193.5 92.18 193.5 91.5 193.5 Z M114.8125 203.96875 C111.19343488 204.5491661 107.78797536 204.59705637 104.125 204.5625 C102.25714844 204.54896484 102.25714844 204.54896484 100.3515625 204.53515625 C98.94003906 204.51775391 98.94003906 204.51775391 97.5 204.5 C97.5 206.81 97.5 209.12 97.5 211.5 C101.5978356 213.44802412 104.98082623 213.7978906 109.5 213.8125 C110.69625 213.82925781 111.8925 213.84601563 113.125 213.86328125 C116.75860613 213.47216392 118.66650921 212.78593065 121.5 210.5 C121.91746608 207.37364791 121.91746608 207.37364791 121.5 204.5 C118.97584372 203.62625359 117.4768773 203.50403303 114.8125 203.96875 Z M91.5 205.5 C91.83 206.82 92.16 208.14 92.5 209.5 C93.49 209.17 94.48 208.84 95.5 208.5 C95.17 207.51 94.84 206.52 94.5 205.5 C93.51 205.5 92.52 205.5 91.5 205.5 Z M-124.5 211.5 C-120.505236 214.9141297 -116.30787097 217.38804058 -111.75 219.9375 C-99.96625557 226.69588077 -89.20908813 234.89407181 -79.30664062 244.18457031 C-77.40917335 245.83051113 -77.40917335 245.83051113 -74.0625 245.5625 C-72.886875 245.211875 -71.71125 244.86125 -70.5 244.5 C-68.85620959 244.13646943 -67.21027847 243.78250362 -65.5625 243.4375 C-64.221875 243.128125 -62.88125 242.81875 -61.5 242.5 C-61.5 246.79 -61.5 251.08 -61.5 255.5 C-59.2136988 256.86402043 -56.92178251 258.21634274 -54.625 259.5625 C-53.97402344 259.95244141 -53.32304688 260.34238281 -52.65234375 260.74414062 C-50.96934275 261.72444533 -49.23703801 262.61898432 -47.5 263.5 C-46.84 263.17 -46.18 262.84 -45.5 262.5 C-47.45467752 261.16101601 -49.4133579 259.82870953 -51.375 258.5 C-52.46554688 257.7575 -53.55609375 257.015 -54.6796875 256.25 C-57.23004833 254.32425144 -57.23004833 254.32425144 -59.5 254.5 C-59.995 247.075 -59.995 247.075 -60.5 239.5 C-63.16927083 240.02083333 -65.83854167 240.54166667 -68.5078125 241.0625 C-76.47478906 242.2273843 -76.47478906 242.2273843 -80.296875 239.515625 C-81.29114757 238.60443363 -82.27493409 237.68171569 -83.25 236.75 C-101.9411431 219.89949636 -101.9411431 219.89949636 -124.5 211.5 Z M38.5 214.5 C37.84 216.15 37.18 217.8 36.5 219.5 C37.68142578 220.37398437 37.68142578 220.37398437 38.88671875 221.265625 C48.35866823 228.36298696 57.19696809 236.05381237 65.5 244.5 C66.82 243.84 68.14 243.18 69.5 242.5 C64.44498302 233.92844947 56.91481027 227.66210856 49.1875 221.5625 C48.5888916 221.08981689 47.9902832 220.61713379 47.37353516 220.13012695 C44.53622868 217.93294937 41.80449066 215.92786633 38.5 214.5 Z M94.5 216.5 C94.5 217.49 94.5 218.48 94.5 219.5 C95.16 219.5 95.82 219.5 96.5 219.5 C96.5 218.51 96.5 217.52 96.5 216.5 C95.84 216.5 95.18 216.5 94.5 216.5 Z M99.5 216.5 C98.84 218.48 98.18 220.46 97.5 222.5 C105.81792594 225.43325135 105.81792594 225.43325135 114.5 225.5 C116.6349293 223.30359527 116.6349293 223.30359527 117.5 220.5 C117.17 219.51 116.84 218.52 116.5 217.5 C110.89 217.17 105.28 216.84 99.5 216.5 Z M-45.5 263.5 C-45.17 264.16 -44.84 264.82 -44.5 265.5 C-43.84 265.17 -43.18 264.84 -42.5 264.5 C-43.49 264.17 -44.48 263.84 -45.5 263.5 Z " fill="#2A2A2A" transform="translate(164.5,14.5)"/>
<path d="M0 0 C1.76171875 1.015625 1.76171875 1.015625 3 3 C3.13771988 5.77834894 3.10176678 8.24922032 2.875 11 C2.822229 11.75659912 2.76945801 12.51319824 2.71508789 13.29272461 C2.21413505 19.42206832 1.00044019 25.17481882 -1 31 C-7.09498863 31.42034404 -10.12887953 31.07814737 -15 27 C-18.86115975 22.73940993 -19.3661762 18.73472445 -19.28125 13.0234375 C-18.64340739 8.4345143 -15.71392374 5.62893282 -12.375 2.6875 C-8.42604397 -0.11833718 -4.8069293 -0.79956844 0 0 Z " fill="#CACACA" transform="translate(169,29)"/>
<path d="M0 0 C3.45450916 4.61136805 3.42477444 8.57692219 3.59375 14.16015625 C4.04787556 17.3346686 5.02946974 18.55144353 7 21 C6.6875 23.75 6.6875 23.75 6 26 C3 27 3 27 1.17578125 26.22265625 C-0.54947917 25.1484375 -2.27473958 24.07421875 -4 23 C-4.33 24.32 -4.66 25.64 -5 27 C-10.78461538 23.55384615 -10.78461538 23.55384615 -11.875 20.75 C-11.91625 20.1725 -11.9575 19.595 -12 19 C-10.68 18.67 -9.36 18.34 -8 18 C-7.9175 17.0925 -7.835 16.185 -7.75 15.25 C-6.90751268 11.59922161 -5.82118382 10.36615417 -3 8 C-4.32 8 -5.64 8 -7 8 C-6.67 6.68 -6.34 5.36 -6 4 C-7.32 4.33 -8.64 4.66 -10 5 C-10.06058594 5.62648437 -10.12117188 6.25296875 -10.18359375 6.8984375 C-10.26738281 7.71570313 -10.35117188 8.53296875 -10.4375 9.375 C-10.51871094 10.18710938 -10.59992188 10.99921875 -10.68359375 11.8359375 C-11 14 -11 14 -12 16 C-12.66 16 -13.32 16 -14 16 C-15.69562064 10.91313807 -15.56454325 6.60449135 -13.8125 1.625 C-12 -1 -12 -1 -9.75 -2.5625 C-5.69651489 -3.20737263 -3.5119767 -2.01613477 0 0 Z " fill="#2A2A2A" transform="translate(75,129)"/>
<path d="M0 0 C1.65 0 3.3 0 5 0 C5.23668569 7.03482474 4.7879537 13.1834265 3 20 C-1.52602509 20.31213966 -4.14727808 20.38613823 -8.3125 18.5 C-11.83574009 15.22256736 -12.62737423 12.57541923 -14 8 C-12.02 8 -10.04 8 -8 8 C-7.67 8.99 -7.34 9.98 -7 11 C-7 9.68 -7 8.36 -7 7 C-5.02 6.67 -3.04 6.34 -1 6 C-0.67 4.02 -0.34 2.04 0 0 Z " fill="#A3A3A3" transform="translate(166,38)"/>
<path d="M0 0 C7.32215357 -0.36010591 7.32215357 -0.36010591 10 1.0625 C11.52690415 4.02087678 11.18468872 6.73716599 11 10 C8.03 9.505 8.03 9.505 5 9 C5 10.98 5 12.96 5 15 C4.67 15 4.34 15 4 15 C4 13.02 4 11.04 4 9 C2.35 9 0.7 9 -1 9 C-1 9.66 -1 10.32 -1 11 C-1.66 11 -2.32 11 -3 11 C-3 10.34 -3 9.68 -3 9 C-4.65 9 -6.3 9 -8 9 C-6 7 -6 7 -3.5625 6.5625 C-0.7359483 5.94203743 0.19092843 5.18992875 2 3 C1.34 2.67 0.68 2.34 0 2 C0 1.34 0 0.68 0 0 Z M-3 15 C-0.69 15 1.62 15 4 15 C4 15.33 4 15.66 4 16 C2.02 16 0.04 16 -2 16 C-1.67 18.31 -1.34 20.62 -1 23 C-3 21 -3 21 -3.125 17.875 C-3.08375 16.92625 -3.0425 15.9775 -3 15 Z " fill="#A6A6A6" transform="translate(161,29)"/>
<path d="M0 0 C1.65 0 3.3 0 5 0 C5.02696365 1.79158489 5.04637917 3.58328473 5.0625 5.375 C5.07410156 6.37273438 5.08570313 7.37046875 5.09765625 8.3984375 C5 11 5 11 4 13 C0.7 13 -2.6 13 -6 13 C-6.33 11.02 -6.66 9.04 -7 7 C-5.02 6.67 -3.04 6.34 -1 6 C-0.67 4.02 -0.34 2.04 0 0 Z " fill="#C0C0C0" transform="translate(166,38)"/>
<path d="M0 0 C2 3 2 3 2.8125 5 C4.45890279 7.7728889 6.0864245 8.64033143 9 10 C12.69523952 10.71923208 12.69523952 10.71923208 16 11 C16 11.66 16 12.32 16 13 C9.90501137 13.42034404 6.87112047 13.07814737 2 9 C0.0625 7.0625 0.0625 7.0625 -1 5 C-0.6875 2.25 -0.6875 2.25 0 0 Z " fill="#E8E8E8" transform="translate(152,47)"/>
<path d="M0 0 C0.103125 0.639375 0.20625 1.27875 0.3125 1.9375 C0.6528125 2.9584375 0.6528125 2.9584375 1 4 C1.99 4.33 2.98 4.66 4 5 C3.01 5 2.02 5 1 5 C1 6.98 1 8.96 1 11 C0.67 11 0.34 11 0 11 C0 9.02 0 7.04 0 5 C-1.65 5 -3.3 5 -5 5 C-5 5.66 -5 6.32 -5 7 C-5.66 7 -6.32 7 -7 7 C-7 6.34 -7 5.68 -7 5 C-8.65 5 -10.3 5 -12 5 C-9.4345406 2.4345406 -7.52313332 2.45953913 -4 2 C-4 2.66 -4 3.32 -4 4 C-2.68 4 -1.36 4 0 4 C0 2.68 0 1.36 0 0 Z M-7 11 C-4.69 11 -2.38 11 0 11 C0 11.33 0 11.66 0 12 C-1.98 12 -3.96 12 -6 12 C-5.67 14.31 -5.34 16.62 -5 19 C-7 17 -7 17 -7.125 13.875 C-7.08375 12.92625 -7.0425 11.9775 -7 11 Z " fill="#FAFAFA" transform="translate(165,33)"/>
<path d="M0 0 C1.65 0 3.3 0 5 0 C5 1.98 5 3.96 5 6 C3.02 6 1.04 6 -1 6 C-0.67 4.02 -0.34 2.04 0 0 Z " fill="#3A3A3A" transform="translate(160,38)"/>
<path d="M0 0 C1.32 0 2.64 0 4 0 C4 1.98 4 3.96 4 6 C2.02 6 0.04 6 -2 6 C-1.125 1.125 -1.125 1.125 0 0 Z " fill="#444444" transform="translate(154,38)"/>
<path d="M0 0 C2.97 0 5.94 0 9 0 C8.67 1.65 8.34 3.3 8 5 C5.6875 5.3125 5.6875 5.3125 3 5 C1.1875 2.5 1.1875 2.5 0 0 Z " fill="#626262" transform="translate(161,53)"/>
<path d="M0 0 C1.98 0 3.96 0 6 0 C6 1.65 6 3.3 6 5 C4.35 5 2.7 5 1 5 C0.67 3.35 0.34 1.7 0 0 Z " fill="#2F2F2F" transform="translate(159,46)"/>
<path d="M0 0 C1.98 0 3.96 0 6 0 C6 1.65 6 3.3 6 5 C4.35 4.67 2.7 4.34 1 4 C0.67 2.68 0.34 1.36 0 0 Z " fill="#343434" transform="translate(152,46)"/>
<path d="M0 0 C1.32 0 2.64 0 4 0 C4 1.98 4 3.96 4 6 C2.68 6 1.36 6 0 6 C0 4.02 0 2.04 0 0 Z " fill="#333333" transform="translate(167,38)"/>
<path d="M0 0 C0.33 0 0.66 0 1 0 C1 1.65 1 3.3 1 5 C2.32 5 3.64 5 5 5 C5 5.66 5 6.32 5 7 C3.68 7 2.36 7 1 7 C0.67 8.32 0.34 9.64 0 11 C0 9.68 0 8.36 0 7 C-1.32 6.67 -2.64 6.34 -4 6 C-2.68 6 -1.36 6 0 6 C0 4.02 0 2.04 0 0 Z " fill="#F5F5F5" transform="translate(165,46)"/>
<path d="M0 0 C1.32 0 2.64 0 4 0 C3.67 1.65 3.34 3.3 3 5 C2.01 5 1.02 5 0 5 C0 3.35 0 1.7 0 0 Z " fill="#2A2A2A" transform="translate(167,46)"/>
<path d="M0 0 C0.66 0 1.32 0 2 0 C2.33 1.98 2.66 3.96 3 6 C2.01 5.67 1.02 5.34 0 5 C0 3.35 0 1.7 0 0 Z " fill="#2A2A2A" transform="translate(265,209)"/>
<path d="M0 0 C0.66 0 1.32 0 2 0 C2 1.65 2 3.3 2 5 C1.34 4.67 0.68 4.34 0 4 C0 2.68 0 1.36 0 0 Z " fill="#2A2A2A" transform="translate(266,222)"/>
<path d="M0 0 C0.66 0 1.32 0 2 0 C2 1.32 2 2.64 2 4 C1.34 4 0.68 4 0 4 C0 2.68 0 1.36 0 0 Z " fill="#2A2A2A" transform="translate(266,233)"/>
</svg>
