<?xml version="1.0" encoding="UTF-8"?>
<svg version="1.1" xmlns="http://www.w3.org/2000/svg" width="400" height="400">
<path d="M0 0 C0.68126953 -0.02449219 1.36253906 -0.04898437 2.06445312 -0.07421875 C7.18209464 -0.10371524 9.98912646 1.20345143 13.9375 4.375 C23.27448327 14.24552517 22.42218549 26.97013846 22.078125 39.60791016 C21.4710728 51.55292679 19.32064633 66.60870734 13.9375 77.375 C13.61892292 81.99436769 14.44366675 85.51798635 15.9375 89.875 C17.43572709 94.24482901 18.16053407 97.74704303 17.9375 102.375 C18.9747522 102.76002686 18.9747522 102.76002686 20.03295898 103.15283203 C25.27261337 105.35756514 30.12855022 108.32480425 35.05786133 111.14208984 C36.99362243 112.24636186 38.93505665 113.3401559 40.87695312 114.43359375 C42.11754882 115.13999081 43.35779522 115.84700176 44.59765625 116.5546875 C45.71793213 117.19132324 46.83820801 117.82795898 47.99243164 118.48388672 C50.73894117 120.24749965 52.8410204 121.88152948 54.9375 124.375 C55.125 126.9375 55.125 126.9375 53.9375 129.375 C49.15416199 131.76969261 44.45499192 133.12398711 39.1875 134.0625 C38.15012695 134.25356323 38.15012695 134.25356323 37.09179688 134.44848633 C31.35276173 135.4397863 25.75876534 135.70799611 19.9375 135.375 C20.2675 136.365 20.5975 137.355 20.9375 138.375 C21.140625 140.53125 21.140625 140.53125 21.1875 142.875 C21.22617187 144.03515625 21.22617187 144.03515625 21.265625 145.21875 C20.85471394 147.91902267 19.83900331 148.4927038 17.9375 150.375 C16.90802651 153.44583114 16.76787068 154.93213419 17.93798828 157.98706055 C18.45603027 158.90269775 18.97407227 159.81833496 19.5078125 160.76171875 C20.075 161.78330078 20.6421875 162.80488281 21.2265625 163.85742188 C22.13535156 165.44393555 22.13535156 165.44393555 23.0625 167.0625 C24.23326729 169.14890056 25.40255497 171.23613214 26.5703125 173.32421875 C27.13814453 174.33758301 27.70597656 175.35094727 28.29101562 176.39501953 C34.86544028 188.29410426 34.86544028 188.29410426 35.1875 193.125 C33.4663789 197.59991485 30.69459877 199.5723605 26.9375 202.375 C26.2775 203.035 25.6175 203.695 24.9375 204.375 C25.5975 205.365 26.2575 206.355 26.9375 207.375 C29.35794236 211.63015489 29.48558604 214.52052368 28.9375 219.375 C27.60693733 222.368766 26.69562991 223.91723394 23.88671875 225.61328125 C21.10762941 228.12504336 21.23987623 230.07189783 21 233.75 C20.86271484 235.43222656 20.86271484 235.43222656 20.72265625 237.1484375 C20.96339438 240.76388654 21.7661376 242.51109276 23.9375 245.375 C24.5975 245.705 25.2575 246.035 25.9375 246.375 C26.32758549 248.02930414 26.65224638 249.69943464 26.9375 251.375 C27.39865051 252.94291172 27.87829938 254.50548509 28.375 256.0625 C30.95586153 264.60211535 32.27984138 272.43608618 31.9375 281.375 C31.2775 281.375 30.6175 281.375 29.9375 281.375 C29.77894531 282.220625 29.62039062 283.06625 29.45703125 283.9375 C28.06850096 290.68836552 26.72080939 297.14966862 21.9375 302.375 C21.2775 302.375 20.6175 302.375 19.9375 302.375 C19.9375 301.385 19.9375 300.395 19.9375 299.375 C19.339375 300.4475 18.74125 301.52 18.125 302.625 C16.56348931 305.36458993 14.91144497 307.90756878 12.9375 310.375 C5.78581485 309.87604522 -0.47541281 307.05936185 -7.0625 304.375 C-6.4025 305.035 -5.7425 305.695 -5.0625 306.375 C-5.3925 307.365 -5.7225 308.355 -6.0625 309.375 C-17.15870821 306.29801466 -27.15783828 303.31070456 -35.0625 294.375 C-34.7325 296.025 -34.4025 297.675 -34.0625 299.375 C-37.07467112 298.73050393 -39.57905836 297.72477818 -42.3125 296.3125 C-43.01890625 295.95027344 -43.7253125 295.58804687 -44.453125 295.21484375 C-44.98421875 294.93769531 -45.5153125 294.66054688 -46.0625 294.375 C-46.7225 296.025 -47.3825 297.675 -48.0625 299.375 C-47.629375 299.725625 -47.19625 300.07625 -46.75 300.4375 C-44.85940611 302.60818188 -43.95879029 304.83465696 -42.86303711 307.47338867 C-42.12687751 309.22207642 -41.32980643 310.9447913 -40.52734375 312.6640625 C-37.88676461 318.43146553 -35.81521478 323.61934783 -35.125 330 C-34.39389729 335.9778398 -32.36277314 339.74458882 -29.1484375 344.76953125 C-26.29202466 349.45110584 -24.25661358 354.5220648 -22.125 359.5625 C-21.72337646 360.50867188 -21.32175293 361.45484375 -20.90795898 362.4296875 C-18.0625 369.21077697 -18.0625 369.21077697 -18.0625 370.375 C-38.53222395 371.73070952 -38.53222395 371.73070952 -45.62890625 365.51953125 C-46.43199219 364.81183594 -47.23507813 364.10414063 -48.0625 363.375 C-50.45215881 361.71495496 -52.91026349 360.17063366 -55.375 358.625 C-56.53783866 357.8803305 -57.70060243 357.13554404 -58.86328125 356.390625 C-60.85805158 355.13384663 -62.87369847 353.90892153 -64.91796875 352.734375 C-67.0625 351.375 -67.0625 351.375 -68.0625 349.375 C-68.2689743 347.08657647 -68.42897108 344.79383607 -68.5625 342.5 C-68.78770628 338.64736407 -69.05868928 335.09661808 -70.0625 331.375 C-71.92455078 331.82552734 -71.92455078 331.82552734 -73.82421875 332.28515625 C-75.46602033 332.66980691 -77.10795452 333.05389184 -78.75 333.4375 C-79.56662109 333.63666016 -80.38324219 333.83582031 -81.22460938 334.04101562 C-89.26105183 335.89557927 -89.26105183 335.89557927 -93.0625 334.375 C-95.2890625 332.58203125 -95.2890625 332.58203125 -97.6875 330.1875 C-109.75222601 318.83820249 -123.5977864 309.3970758 -138.0625 301.375 C-138.76149414 300.98441406 -139.46048828 300.59382813 -140.18066406 300.19140625 C-142.38408118 298.96804562 -144.59580913 297.76162467 -146.8125 296.5625 C-147.47330566 296.20115967 -148.13411133 295.83981934 -148.81494141 295.4675293 C-154.36425547 292.52881272 -160.13085004 290.41494561 -166.0625 288.375 C-165.41925781 288.7467334 -164.77601563 289.1184668 -164.11328125 289.50146484 C-116.22575579 317.21099055 -116.22575579 317.21099055 -98.77734375 333.80078125 C-97.13497503 335.45351868 -97.13497503 335.45351868 -95.0625 336.375 C-95.0625 337.035 -95.0625 337.695 -95.0625 338.375 C-91.81654339 339.43866506 -89.78832954 339.28553386 -86.515625 338.37890625 C-85.24912109 338.03569336 -85.24912109 338.03569336 -83.95703125 337.68554688 C-83.08433594 337.43869141 -82.21164063 337.19183594 -81.3125 336.9375 C-79.98025391 336.57301758 -79.98025391 336.57301758 -78.62109375 336.20117188 C-76.43251155 335.60107676 -74.24717317 334.98917368 -72.0625 334.375 C-72.0625 340.315 -72.0625 346.255 -72.0625 352.375 C-70.4125 353.035 -68.7625 353.695 -67.0625 354.375 C-65.46916675 355.25802412 -63.89507097 356.17646917 -62.33984375 357.125 C-61.47166016 357.6509375 -60.60347656 358.176875 -59.70898438 358.71875 C-58.81501953 359.2653125 -57.92105469 359.811875 -57 360.375 C-55.2182512 361.45965397 -53.43572751 362.54303632 -51.65234375 363.625 C-50.86722412 364.10453125 -50.08210449 364.5840625 -49.27319336 365.078125 C-47.23885872 366.27154141 -45.18522434 367.34888044 -43.0625 368.375 C-43.3925 369.035 -43.7225 369.695 -44.0625 370.375 C-67.42251169 365.51851648 -87.42550904 358.37092669 -107.9375 346.1640625 C-117.86623735 340.47986037 -128.31382738 335.29756754 -139.0625 331.375 C-140.11695313 330.98183594 -141.17140625 330.58867187 -142.2578125 330.18359375 C-162.45513643 323.69966537 -184.10635367 326.1516594 -202.8125 335.5625 C-204.1427467 336.26029304 -205.47103349 336.96184149 -206.796875 337.66796875 C-210.0625 339.375 -210.0625 339.375 -213.0625 340.375 C-209.87942899 320.66444488 -197.84385386 300.70012271 -185.44311523 285.37353516 C-183.97294116 283.24535744 -183.57995649 281.90022458 -183.1875 279.37109375 C-181.99682655 273.36729509 -179.54383628 268.00632757 -177.0625 262.4375 C-176.61132812 261.39787109 -176.16015625 260.35824219 -175.6953125 259.28710938 C-172.33549289 251.64799289 -172.33549289 251.64799289 -170.0625 249.375 C-168.7425 249.375 -167.4225 249.375 -166.0625 249.375 C-165.88074219 248.68792969 -165.69898438 248.00085938 -165.51171875 247.29296875 C-165.13466797 245.94138672 -165.13466797 245.94138672 -164.75 244.5625 C-164.50636719 243.66917969 -164.26273438 242.77585937 -164.01171875 241.85546875 C-163.01838493 239.25971987 -162.31544852 237.98577792 -160.0625 236.375 C-158.7425 236.375 -157.4225 236.375 -156.0625 236.375 C-154.97379464 218.83474702 -159.70908168 203.87350921 -166.29492188 187.75512695 C-169.24055531 180.44220286 -171.23367757 173.30973861 -171.0625 165.375 C-172.0525 165.045 -173.0425 164.715 -174.0625 164.375 C-174.92773438 161.9699707 -174.92773438 161.9699707 -175.65625 158.80078125 C-178.2799547 146.53822729 -178.2799547 146.53822729 -185.21142578 136.65576172 C-189.91268041 134.43259834 -194.87069599 133.60548011 -199.97705078 132.80273438 C-205.53483323 131.6628099 -208.91007465 127.99559814 -212.0625 123.5625 C-213.75378388 118.17153264 -214.07105444 113.57548241 -211.6875 108.375 C-205.13823863 100.89012987 -197.57774907 95.19576563 -189.37670898 89.67529297 C-184.4409367 86.34867348 -179.62784706 82.89549492 -174.875 79.3125 C-173.87194824 78.55682739 -173.87194824 78.55682739 -172.84863281 77.78588867 C-169.812454 75.48792825 -166.7926311 73.17180971 -163.80078125 70.81640625 C-142.56664746 54.16479569 -120.24037639 41.56640876 -94.62033081 32.96533203 C-89.34950699 31.19364423 -84.09887359 29.3639894 -78.84765625 27.53515625 C-77.82007706 27.17817657 -76.79249786 26.8211969 -75.73377991 26.45339966 C-64.00578486 22.35174437 -52.61402454 17.58278143 -41.19384766 12.69628906 C-35.89307007 10.45959732 -30.54436292 8.34807968 -25.1875 6.25 C-24.25929443 5.88326172 -23.33108887 5.51652344 -22.37475586 5.13867188 C-14.90059018 2.22124402 -8.11136931 0.01543553 0 0 Z M-92.78210449 51.9005127 C-122.14464846 69.82675882 -152.24181715 86.13228723 -183.42602539 100.67260742 C-188.2559877 102.93894533 -192.72974753 105.25425701 -197.0625 108.375 C-196.4025 108.705 -195.7425 109.035 -195.0625 109.375 C-192.5576832 108.53901944 -192.5576832 108.53901944 -189.68359375 107.19140625 C-188.55099121 106.68391846 -187.41838867 106.17643066 -186.25146484 105.65356445 C-185.00071556 105.08211389 -183.75023488 104.51007511 -182.5 103.9375 C-181.20528377 103.35040997 -179.91052384 102.76341632 -178.61572266 102.17651367 C-163.29261983 95.19985428 -148.14515169 87.85509862 -133.0625 80.375 C-132.12229004 79.91029297 -131.18208008 79.44558594 -130.21337891 78.96679688 C-118.17256715 72.97133251 -106.73812539 66.01881138 -95.27584839 59.00109863 C-73.95350407 45.9472855 -52.44612424 33.53588483 -30.0625 22.375 C-28.88349121 21.78356201 -28.88349121 21.78356201 -27.68066406 21.18017578 C-18.71975945 16.71631006 -9.62053428 13.31697651 -0.0625 10.375 C-0.0625 10.045 -0.0625 9.715 -0.0625 9.375 C-30.30515557 7.22527973 -68.182673 36.88203658 -92.78210449 51.9005127 Z M-160.0625 119.375 C-159.4025 119.705 -158.7425 120.035 -158.0625 120.375 C-155.63451894 119.4559122 -155.63451894 119.4559122 -152.875 118.015625 C-151.79806885 117.48259766 -150.7211377 116.94957031 -149.61157227 116.40039062 C-148.44037842 115.81451172 -147.26918457 115.22863281 -146.0625 114.625 C-108.49348485 96.16885898 -68.67960966 81.56278988 -28.0625 71.375 C-28.0625 71.045 -28.0625 70.715 -28.0625 70.375 C-68.29744759 69.18057448 -127.74666675 96.70568414 -160.0625 119.375 Z M-73.0625 105.375 C-75.30198548 106.12138741 -77.54156747 106.86748533 -79.78125 107.61328125 C-81.54169859 108.20042512 -83.30212734 108.78762852 -85.0625 109.375 C-84.7325 110.695 -84.4025 112.015 -84.0625 113.375 C-76.97673439 111.51751395 -69.98576073 109.43748783 -63.00610352 107.21582031 C-38.9457509 99.57371006 -14.9919525 94.19649015 9.9375 90.375 C9.4425 88.89 9.4425 88.89 8.9375 87.375 C-18.6072083 86.02034221 -47.34447992 96.74569821 -73.0625 105.375 Z M-83.0625 119.375 C-83.3925 121.025 -83.7225 122.675 -84.0625 124.375 C-78.86190459 122.84558065 -73.68233604 121.26742077 -68.53125 119.578125 C-41.85264375 110.82898991 -15.04011824 103.34469132 12.9375 100.375 C12.4425 98.395 12.4425 98.395 11.9375 96.375 C-19.34990157 94.96729398 -53.95457275 109.28170362 -83.0625 119.375 Z M-99.4375 113 C-101.35072408 115.31663123 -101.35072408 115.31663123 -101.0625 118.4375 C-100.26892601 121.40312617 -100.26892601 121.40312617 -98.3125 123.3125 C-96.09078127 124.56753336 -96.09078127 124.56753336 -93.5 124.3125 C-90.50226299 123.15952423 -89.49687395 122.2437479 -88.0625 119.375 C-88.20169208 116.52156236 -88.69327853 114.91037114 -90.3125 112.5625 C-93.7099564 110.25708315 -96.15271189 110.7525134 -99.4375 113 Z M31.48046875 124.83984375 C20.07144926 126.29792922 8.54705626 126.59375224 -2.9375 126.9375 C-4.31901843 126.98086532 -5.70052893 127.02448404 -7.08203125 127.06835938 C-10.40878541 127.17304744 -13.7355955 127.27522495 -17.0625 127.375 C-17.0625 127.705 -17.0625 128.035 -17.0625 128.375 C13.67024263 129.55802791 13.67024263 129.55802791 43.9375 125.375 C44.2675 124.715 44.5975 124.055 44.9375 123.375 C40.39530958 123.375 35.97071812 124.19012921 31.48046875 124.83984375 Z M-62.0625 130.375 C-61.93875 131.674375 -61.93875 131.674375 -61.8125 133 C-62.29271124 139.48285177 -66.71711421 143.22421947 -71.37890625 147.2734375 C-76.02643253 153.074758 -76.58754178 159.73946489 -76.5 166.9375 C-76.49315186 167.80938965 -76.48630371 168.6812793 -76.47924805 169.57958984 C-76.18939536 181.43641019 -72.97792303 192.07149677 -67.0625 202.375 C-66.7325 201.055 -66.4025 199.735 -66.0625 198.375 C-63.65674393 200.56017099 -62.26714419 202.63419671 -60.875 205.5625 C-60.53082031 206.27792969 -60.18664062 206.99335938 -59.83203125 207.73046875 C-59.57808594 208.27316406 -59.32414062 208.81585938 -59.0625 209.375 C-58.7325 209.375 -58.4025 209.375 -58.0625 209.375 C-58.0625 207.725 -58.0625 206.075 -58.0625 204.375 C-57.4025 204.375 -56.7425 204.375 -56.0625 204.375 C-55.815 205.014375 -55.5675 205.65375 -55.3125 206.3125 C-53.65438428 210.37488351 -51.8589416 214.37224906 -50.0625 218.375 C-49.7325 218.375 -49.4025 218.375 -49.0625 218.375 C-49.0625 215.735 -49.0625 213.095 -49.0625 210.375 C-48.4025 210.375 -47.7425 210.375 -47.0625 210.375 C-46.91554687 210.931875 -46.76859375 211.48875 -46.6171875 212.0625 C-44.23824216 220.15638301 -40.15128094 226.58528315 -33.0625 231.375 C-29.58924819 232.5327506 -26.70182552 232.44366652 -23.0625 232.375 C-23.59875 232.148125 -24.135 231.92125 -24.6875 231.6875 C-29.21732518 229.18417556 -33.17744225 226.29608825 -35.0625 221.375 C-35.27294481 217.32744478 -34.97974654 213.58576543 -32.5 210.3125 C-28.9177808 208.93472339 -25.88850906 209.18369955 -22.0625 209.375 C-22.3925 210.035 -22.7225 210.695 -23.0625 211.375 C-25.625 212 -25.625 212 -28.0625 212.375 C-29.16279599 215.88980683 -29.16279599 215.88980683 -28.0625 219.25 C-24.82289271 221.0722791 -22.5827944 220.2699901 -19.0625 219.375 C-15.37736752 217.37888657 -12.6282847 214.99076939 -9.75 212 C-5.96862948 208.07449653 -1.67976082 205.23330431 2.9375 202.375 C2.31875 202.106875 1.7 201.83875 1.0625 201.5625 C-1.0625 200.375 -1.0625 200.375 -3.0625 197.375 C-3 193.9375 -3 193.9375 -2.0625 190.375 C0.5 187.9375 0.5 187.9375 2.9375 186.375 C2.586875 186.890625 2.23625 187.40625 1.875 187.9375 C0.5759359 191.31506667 1.26532319 193.87968057 1.9375 197.375 C3.77450789 198.14742269 3.77450789 198.14742269 5.9375 198.375 C6.35 197.900625 6.7625 197.42625 7.1875 196.9375 C9.33526572 195.01985204 10.18180678 195.14023348 13 195.125 C16.9375 195.375 16.9375 195.375 18.9375 196.375 C18.9375 197.365 18.9375 198.355 18.9375 199.375 C20.41949902 198.92590939 21.89805236 198.46543436 23.375 198 C24.19871094 197.74476563 25.02242188 197.48953125 25.87109375 197.2265625 C28.11548016 196.56617773 28.11548016 196.56617773 28.9375 194.375 C29.38160528 189.44775492 28.35445058 186.56992626 25.98046875 182.27734375 C25.05331055 180.58061523 25.05331055 180.58061523 24.10742188 178.84960938 C23.44681682 177.67045959 22.78600775 176.49142409 22.125 175.3125 C21.47478005 174.13017881 20.82568064 172.94724064 20.17773438 171.76367188 C16.84002397 165.66856949 16.84002397 165.66856949 13.2512207 159.72094727 C11.40859166 156.4305138 11.53961238 154.08861779 11.9375 150.375 C12.4325 149.570625 12.9275 148.76625 13.4375 147.9375 C15.59681811 144.24866489 15.21985872 141.61038087 14.9375 137.375 C12.8467642 135.2842642 8.35357938 136.04530852 5.4609375 135.9453125 C3.66737863 135.87347457 1.87384091 135.8011068 0.08032227 135.72827148 C-0.86253632 135.69128143 -1.8053949 135.65429138 -2.77682495 135.61618042 C-18.21778175 134.99985025 -33.39605128 134.1060928 -48.67529297 131.70654297 C-53.11971647 131.08928718 -57.5912429 130.73833249 -62.0625 130.375 Z M-128.0625 154.375 C-132.60693799 158.68025704 -133.79870754 163.57879993 -134.375 169.6875 C-133.02363549 185.63360123 -123.33952224 196.04811361 -112.0625 206.375 C-109.22166359 207.79541821 -107.20772722 207.68952272 -104.0625 207.375 C-101.8125 205.625 -101.8125 205.625 -100.0625 203.375 C-99.06973735 202.36781465 -98.0709861 201.36644127 -97.0625 200.375 C-97.31912245 201.81510481 -97.59340821 203.2520687 -97.875 204.6875 C-98.02582031 205.48800781 -98.17664063 206.28851563 -98.33203125 207.11328125 C-99.15430193 209.65924235 -99.97815426 210.72892744 -102.0625 212.375 C-107.28507407 214.03672811 -110.2581218 212.73186478 -115.0625 210.375 C-116.0525 210.045 -117.0425 209.715 -118.0625 209.375 C-118.75830267 208.05663705 -119.42112316 206.72068123 -120.0625 205.375 C-121.73674338 203.42403111 -121.73674338 203.42403111 -123.625 201.625 C-124.24503906 201.01140625 -124.86507812 200.3978125 -125.50390625 199.765625 C-126.83872963 198.26404074 -126.83872963 198.26404074 -128.0625 198.375 C-128.19527344 199.18324219 -128.32804687 199.99148437 -128.46484375 200.82421875 C-128.72974609 202.42716797 -128.72974609 202.42716797 -129 204.0625 C-129.26103516 205.64611328 -129.26103516 205.64611328 -129.52734375 207.26171875 C-129.99417121 209.97749604 -130.50672616 212.67624235 -131.0625 215.375 C-131.7225 215.375 -132.3825 215.375 -133.0625 215.375 C-133.3925 214.715 -133.7225 214.055 -134.0625 213.375 C-134.36542969 213.90609375 -134.66835937 214.4371875 -134.98046875 214.984375 C-137.9696235 220.02454978 -140.68406872 224.43170507 -146.63671875 226.09375 C-149.3573572 227.17163623 -149.3573572 227.17163623 -149.98828125 230.1953125 C-150.11589844 231.28585938 -150.24351562 232.37640625 -150.375 233.5 C-150.51550781 234.59570312 -150.65601563 235.69140625 -150.80078125 236.8203125 C-150.88714844 237.66335937 -150.97351563 238.50640625 -151.0625 239.375 C-150.3411084 239.74560547 -149.6197168 240.11621094 -148.87646484 240.49804688 C-139.92640395 245.10053295 -130.98923212 249.72743906 -122.0625 254.375 C-121.07576294 254.8885202 -121.07576294 254.8885202 -120.0690918 255.41241455 C-103.32151936 264.13619846 -86.91946056 273.16847016 -70.92480469 283.23022461 C-69.0708828 284.40722755 -69.0708828 284.40722755 -67.0625 285.375 C-68.51918783 282.40716871 -70.07482086 279.51084687 -71.6875 276.625 C-72.13351563 275.82578125 -72.57953125 275.0265625 -73.0390625 274.203125 C-73.54566406 273.29820312 -73.54566406 273.29820312 -74.0625 272.375 C-74.3925 273.035 -74.7225 273.695 -75.0625 274.375 C-75.7225 274.375 -76.3825 274.375 -77.0625 274.375 C-77.0625 273.715 -77.0625 273.055 -77.0625 272.375 C-77.805 271.653125 -78.5475 270.93125 -79.3125 270.1875 C-84.17574311 265.21372863 -86.4232563 260.06857845 -88.0625 253.375 C-88.7225 254.035 -89.3825 254.695 -90.0625 255.375 C-89.7439823 257.48320797 -89.7439823 257.48320797 -89.0625 259.375 C-91.28884767 257.31356697 -92.76694028 255.39812122 -94.125 252.6875 C-94.44597656 252.06488281 -94.76695313 251.44226563 -95.09765625 250.80078125 C-100.33118784 237.64279293 -98.50674548 224.42999893 -95.5625 211 C-92.4981251 196.91515015 -90.25418902 181.14284826 -96.0625 167.375 C-97.4389666 165.55374598 -97.4389666 165.55374598 -99.0625 164.375 C-99.7225 164.375 -100.3825 164.375 -101.0625 164.375 C-102.46484375 162.73046875 -102.46484375 162.73046875 -104 160.5625 C-108.04664942 154.88063163 -110.45191011 152.74667547 -117.42578125 151.53515625 C-121.52887306 151.28593141 -124.58398678 152.22508558 -128.0625 154.375 Z M9.9375 199.375 C9.9375 199.705 9.9375 200.035 9.9375 200.375 C12.5775 200.375 15.2175 200.375 17.9375 200.375 C17.9375 200.045 17.9375 199.715 17.9375 199.375 C15.2975 199.375 12.6575 199.375 9.9375 199.375 Z M-158.0625 243.375 C-158.7225 246.345 -159.3825 249.315 -160.0625 252.375 C-159.13953125 252.88546875 -158.2165625 253.3959375 -157.265625 253.921875 C-128.10782977 270.13373067 -100.13165153 287.70923567 -75.3984375 310.2578125 C-73.29331252 312.16580203 -71.15636366 314.02547069 -69 315.875 C-65.09397304 319.25598057 -61.51807085 322.92397745 -57.9453125 326.65234375 C-56.24189784 328.6000104 -56.24189784 328.6000104 -54.0625 328.375 C-53.55744737 325.47996617 -53.0582978 322.58412047 -52.5625 319.6875 C-52.41941406 318.87087891 -52.27632813 318.05425781 -52.12890625 317.21289062 C-50.98247335 311.31495652 -50.98247335 311.31495652 -51.0625 305.375 C-71.84729705 279.01662608 -116.75840688 263.18596146 -146.16824341 248.33514404 C-147.52890787 247.64546246 -148.88598706 246.94869041 -150.24069214 246.24737549 C-150.95653473 245.88037537 -151.67237732 245.51337524 -152.40991211 245.13525391 C-153.06100449 244.79861725 -153.71209686 244.46198059 -154.38291931 244.11514282 C-156.06162452 243.24058229 -156.06162452 243.24058229 -158.0625 243.375 Z M27.9375 274.375 C28.9375 276.375 28.9375 276.375 28.9375 276.375 Z " fill="#2A2A2A" transform="translate(213.0625,13.625)"/>
<path d="M0 0 C7.0970165 5.80664986 9.45817048 12.76231463 10.375 21.625 C10.10056757 31.60257905 5.53533969 41.78555081 2 51 C3.09054687 50.855625 4.18109375 50.71125 5.3046875 50.5625 C38.31789721 46.39797265 38.31789721 46.39797265 50 54 C53.15296552 56.6977603 54.71198644 59.15797919 55.35546875 63.2734375 C55.48126588 66.87962181 55.22450954 69.46826689 53.8125 72.8125 C53.544375 73.534375 53.27625 74.25625 53 75 C53.47050781 75.55042969 53.94101562 76.10085938 54.42578125 76.66796875 C56.65641993 79.97241364 56.3983169 82.55167084 56.375 86.5 C56.38273438 87.8096875 56.39046875 89.119375 56.3984375 90.46875 C55.99356315 94.05704815 55.46291002 95.44587109 53 98 C53.33 98.495 53.66 98.99 54 99.5 C55.40610868 103.0152717 55.59649628 106.30030281 55 110 C52 115.5 52 115.5 49 117 C48.76122765 119.65404651 48.74913471 122.28118442 48.734375 124.9453125 C47.66979962 129.37349309 45.48236351 132.10315838 42 135 C39.30808404 136.33181904 36.6143372 136.99346613 33.6875 137.625 C32.0736825 138.01733198 30.46041133 138.4119171 28.84765625 138.80859375 C28.03570801 139.00179199 27.22375977 139.19499023 26.38720703 139.39404297 C24.13795454 139.96498229 21.95042346 140.62425553 19.74609375 141.34765625 C10.97578432 144.21618765 2.6460293 145.73759912 -6.57763672 146.36791992 C-11.26771068 146.48944445 -11.26771068 146.48944445 -15 149 C-14.34 149.99 -13.68 150.98 -13 152 C-13.32896484 155.44363192 -14.96738345 157.57538312 -17.0625 160.25 C-17.61035156 160.95640625 -18.15820312 161.6628125 -18.72265625 162.390625 C-19.14417969 162.92171875 -19.56570313 163.4528125 -20 164 C-17.45395403 167.52381687 -17.45395403 167.52381687 -14 170 C-14.64080129 171.3459554 -15.31781989 172.67453687 -16 174 C-16.27990028 174.56519915 -16.55980057 175.13039829 -16.84818268 175.71272469 C-20.0559248 181.7829356 -23.88308266 187.71792937 -30.71385193 189.84513474 C-38.89565408 191.15031533 -47.17176811 190.71910516 -55.421875 190.46484375 C-58.0953419 190.4368322 -60.768204 190.41475999 -63.44171143 190.40052795 C-69.73309084 190.35414262 -76.02049941 190.23140824 -82.31013989 190.08028561 C-89.47779472 189.91185456 -96.64565271 189.82996411 -103.81479788 189.75485408 C-118.54521765 189.59861149 -133.27253926 189.33526444 -148 189 C-147.04526287 187.87914166 -146.08952922 186.7591321 -145.13337708 185.63948059 C-144.60126019 185.01568418 -144.06914331 184.39188776 -143.52090168 183.74918842 C-141.74429755 181.70591672 -139.88123312 179.78329687 -137.94921875 177.88671875 C-137.25119141 177.19642578 -136.55316406 176.50613281 -135.83398438 175.79492188 C-135.12564453 175.09947266 -134.41730469 174.40402344 -133.6875 173.6875 C-132.2516235 172.27705975 -130.81791441 170.8644085 -129.38671875 169.44921875 C-128.75983154 168.83393311 -128.13294434 168.21864746 -127.48706055 167.5847168 C-125.90696216 166.05219373 -125.90696216 166.05219373 -125 164 C-124.34 164 -123.68 164 -123 164 C-123 163.34 -123 162.68 -123 162 C-121.37616255 160.26855886 -119.71528638 158.63841502 -118 157 C-116.60424129 155.62104526 -115.21125263 154.2392838 -113.8203125 152.85546875 C-113.05589844 152.09556641 -112.29148438 151.33566406 -111.50390625 150.55273438 C-110.71886719 149.77220703 -109.93382812 148.99167969 -109.125 148.1875 C-108.34769531 147.41857422 -107.57039063 146.64964844 -106.76953125 145.85742188 C-102.58062564 141.6861167 -98.5717353 137.43722718 -94.71533203 132.95776367 C-91.72210862 129.54150142 -88.56152315 126.29759819 -85.375 123.0625 C-84.41207031 122.05606445 -84.41207031 122.05606445 -83.4296875 121.02929688 C-82.800625 120.39185547 -82.1715625 119.75441406 -81.5234375 119.09765625 C-80.6869165 118.23926147 -80.6869165 118.23926147 -79.83349609 117.36352539 C-77.59461053 115.69852195 -75.72287619 115.45950793 -73 115 C-71.13810974 113.4715121 -71.13810974 113.4715121 -69.5625 111.5625 C-66.32766634 108.09760274 -66.32766634 108.09760274 -63.0625 107.125 C-56.67391213 104.7781718 -52.10702233 97.87651298 -49 92 C-48.19081864 89.64450631 -47.44718152 87.26603804 -46.75 84.875 C-44.82187408 78.47503847 -42.71532067 72.15919161 -40.4375 65.875 C-40.15680664 65.08206543 -39.87611328 64.28913086 -39.58691406 63.47216797 C-37.14835913 56.82349468 -33.54453154 51.67999337 -29.1875 46.125 C-24.90171925 40.30114466 -22.17568315 34.14827265 -19.4453125 27.50390625 C-18 24 -18 24 -16.859375 22.02734375 C-15.25150221 18.23422567 -15.26801994 13.9255368 -14.96484375 9.84375 C-14.62682141 6.42525989 -14.23923451 4.30971439 -12.1171875 1.5625 C-7.9664619 -1.50076612 -4.87485459 -1.17668904 0 0 Z M-6 5 C-5.79375 6.19625 -5.5875 7.3925 -5.375 8.625 C-4.89062075 12.59129386 -5.2134883 15.34190461 -7 19 C-8.33333333 20 -9.66666667 21 -11 22 C-12.56714195 24.86754034 -12.56714195 24.86754034 -13 28 C-11.75651531 30.38305196 -11.75651531 30.38305196 -10 32 C-11.65 31.67 -13.3 31.34 -15 31 C-14.505 31.99 -14.505 31.99 -14 33 C-13.01 33 -12.02 33 -11 33 C-11 33.66 -11 34.32 -11 35 C-12.65 35 -14.3 35 -16 35 C-16.49628906 35.90621094 -16.99257813 36.81242187 -17.50390625 37.74609375 C-18.18970981 38.97678234 -18.87593062 40.20723848 -19.5625 41.4375 C-19.88541016 42.02982422 -20.20832031 42.62214844 -20.54101562 43.23242188 C-22.56723615 46.84102415 -24.76438492 49.94957024 -27.44140625 53.109375 C-31.92142991 58.74747545 -34.03850698 65.06869692 -36.375 71.8125 C-36.81199219 73.02615234 -37.24898437 74.23980469 -37.69921875 75.49023438 C-42.38207875 88.36419162 -42.38207875 88.36419162 -40.8125 101.6875 C-37.42747791 107.98019112 -37.42747791 107.98019112 -31.6875 111.875 C-31.130625 111.91625 -30.57375 111.9575 -30 112 C-30 112.66 -30 113.32 -30 114 C-38.3600532 111.6533184 -42.27091898 107.09362153 -47 100 C-49.97 103.63 -52.94 107.26 -56 111 C-52.34007914 114.65992086 -49.100404 117.53332654 -45 120.5625 C-39.42411975 124.74562058 -34.2805455 129.2674554 -29.2265625 134.06469727 C-26.89354642 136.27657031 -24.68408535 138.21060977 -22 140 C-22.42925781 138.92685547 -22.42925781 138.92685547 -22.8671875 137.83203125 C-24.578125 133.5546875 -26.2890625 129.27734375 -28 125 C-25.71413086 127.21660037 -23.66801808 129.55947162 -21.625 132 C-16.33206771 138.06018508 -12.02798327 139.67516264 -4.125 140.3125 C2.78073888 140.27732646 9.43125763 137.93860117 16 136 C14.32141819 131.10144635 12.33007314 129.79650557 8 127 C5.50066661 123.81903023 6.00924614 120.86647451 6.125 116.9453125 C5.94339251 114.11904588 4.50817354 112.35275072 3 110 C2.3125 106.1875 2.3125 106.1875 2 103 C1.55269531 103.39832031 1.10539062 103.79664063 0.64453125 104.20703125 C-4.60872419 108.81063036 -9.23507346 111.95478965 -16 114 C-16 113.34 -16 112.68 -16 112 C-15.278125 111.773125 -14.55625 111.54625 -13.8125 111.3125 C-7.7340291 108.47588025 -3.41795291 102.64189012 -0.8125 96.5625 C2.56964291 86.87311762 3.26908194 72.87370731 -1 63.375 C-1.36222656 62.64925781 -1.72445312 61.92351562 -2.09765625 61.17578125 C-5.31122049 53.42705709 -2.4612292 44.57413987 0 37 C-0.99 37 -1.98 37 -3 37 C-2 35 -2 35 -0.0625 34.3125 C2.54811616 32.6511988 3.00443144 31.00605507 3.68359375 28.05078125 C4.77647866 20.96726795 4.17669319 14.5014526 1 8 C-0.82271927 5.87644433 -0.82271927 5.87644433 -3 5 C-3.99 5 -4.98 5 -6 5 Z M-9 7 C-9 9.64 -9 12.28 -9 15 C-8.67 15 -8.34 15 -8 15 C-8 12.36 -8 9.72 -8 7 C-8.33 7 -8.66 7 -9 7 Z M13.5 55.5 C11.83710938 55.71462891 11.83710938 55.71462891 10.140625 55.93359375 C7.42649713 56.28455856 4.71316368 56.64165763 2 57 C2.66 60.3 3.32 63.6 4 67 C6.57327433 65.78969026 6.57327433 65.78969026 9 64 C9 62.68 9 61.36 9 60 C9.66 60 10.32 60 11 60 C11 60.66 11 61.32 11 62 C13.64 61.67 16.28 61.34 19 61 C19.33 59.68 19.66 58.36 20 57 C20.66 57.33 21.32 57.66 22 58 C22.33 58.99 22.66 59.98 23 61 C23.99 60.525625 24.98 60.05125 26 59.5625 C29.99189495 57.83186252 33.68114582 57.37884686 38 57 C38 57.66 38 58.32 38 59 C37.39671875 59.18175781 36.7934375 59.36351562 36.171875 59.55078125 C34.97304688 59.92783203 34.97304688 59.92783203 33.75 60.3125 C32.56664062 60.67794922 32.56664062 60.67794922 31.359375 61.05078125 C28.96127948 61.88036455 28.96127948 61.88036455 27.15625 63.5 C24.17030921 65.5771762 21.30278961 65.9966798 17.75 66.6875 C15.85507812 67.06455078 15.85507812 67.06455078 13.921875 67.44921875 C12.95765625 67.63097656 11.9934375 67.81273437 11 68 C11.80824219 68.59296875 12.61648438 69.1859375 13.44921875 69.796875 C16 72 16 72 16.8125 75.25 C16.874375 76.1575 16.93625 77.065 17 78 C19.97 78.33 22.94 78.66 26 79 C25.01 76.36 24.02 73.72 23 71 C25 72 25 72 26.125 75.0625 C26.41375 76.031875 26.7025 77.00125 27 78 C38.9544087 76.14413652 38.9544087 76.14413652 49 70 C49.53698345 65.32057276 49.75475088 63.13212633 47.125 59.1875 C36.80131124 51.96091787 25.2745592 53.93663149 13.5 55.5 Z M9 72 C8.3185177 73.89179203 8.3185177 73.89179203 8 76 C8.66 76.66 9.32 77.32 10 78 C11.32 78 12.64 78 14 78 C13.67 76.35 13.34 74.7 13 73 C11.68 72.67 10.36 72.34 9 72 Z M36.6875 80.9375 C28.64804241 83.83580127 20.45531871 83.81210403 12 84 C12.99 84.495 12.99 84.495 14 85 C14.31532249 87.55411213 14.37953701 90.08082828 14.4609375 92.65234375 C14.76288566 95.09161616 14.76288566 95.09161616 16.64453125 96.296875 C25.94190359 99.07221003 38.90734268 97.27290982 48 94 C50.42422125 91.66124809 51.86351395 90.22177031 52.2421875 86.83203125 C51.53932117 82.47540268 51.53932117 82.47540268 49 79 C44.28473109 78.38496493 41.10901438 79.25106941 36.6875 80.9375 Z M7 87 C7 88.65 7 90.3 7 92 C8.98 92.99 8.98 92.99 11 94 C11.93423645 90.98968256 12.04449911 90.13349732 11 87 C9.68 87 8.36 87 7 87 Z M37.4375 101 C29.57198655 102.35413602 21.84646247 102.69653243 14 101 C14.33 101.66 14.66 102.32 15 103 C15.13415472 105.6723621 15.04318541 108.32250488 15 111 C20.91484267 113.54358422 25.65013593 114.47289869 32.0625 114.375 C32.82626953 114.38660156 33.59003906 114.39820313 34.37695312 114.41015625 C39.62483093 114.38322103 43.35467771 113.47669979 48 111 C49.50662097 107.98675805 49.17770373 105.31713623 49 102 C48.34 101.34 47.68 100.68 47 100 C43.55519951 100 40.79113603 100.35695927 37.4375 101 Z M9 102 C8.34 102.66 7.68 103.32 7 104 C7.3185177 106.10820797 7.3185177 106.10820797 8 108 C9.98 108.495 9.98 108.495 12 109 C12 107.02 12 105.04 12 103 C11.01 102.67 10.02 102.34 9 102 Z M-65 115 C-67.21168225 117.94236782 -67.21168225 117.94236782 -69 121 C-68.00742187 121.79921875 -67.01484375 122.5984375 -65.9921875 123.421875 C-40.85902691 143.71335265 -40.85902691 143.71335265 -31 154 C-30.00245398 155.00244797 -29.00277391 156.00278163 -28 157 C-27.34 157.66 -26.68 158.32 -26 159 C-22.57552315 157.85850772 -21.6641239 157.15307687 -20 154 C-21.13965474 150.06855461 -22.94201978 147.66498182 -25.7890625 144.77734375 C-26.55847168 143.99681641 -27.32788086 143.21628906 -28.12060547 142.41210938 C-28.94705566 141.59548828 -29.77350586 140.77886719 -30.625 139.9375 C-31.47078613 139.09638672 -32.31657227 138.25527344 -33.18798828 137.38867188 C-47.27675529 122.72209744 -47.27675529 122.72209744 -65 115 Z M11 118 C11 119.32 11 120.64 11 122 C12.32 122 13.64 122 15 122 C14.67 120.68 14.34 119.36 14 118 C13.01 118 12.02 118 11 118 Z M18 118 C17.5359375 119.423125 17.5359375 119.423125 17.0625 120.875 C16 124 16 124 15 126 C25.77687231 129.70409074 25.77687231 129.70409074 37 131 C40.10847573 129.63057551 40.10847573 129.63057551 42 127 C43.06340185 123.95957066 43.06340185 123.95957066 43 121 C41.15328288 118.71075586 41.15328288 118.71075586 38.3125 118.83984375 C36.6728125 118.88818359 36.6728125 118.88818359 35 118.9375 C29.24950086 119.03344826 23.70168305 118.72075452 18 118 Z M18 133 C18.33 133.66 18.66 134.32 19 135 C19.33 134.34 19.66 133.68 20 133 C19.34 133 18.68 133 18 133 Z M-20 142 C-19 144 -19 144 -19 144 Z " fill="#2A2A2A" transform="translate(344,195)"/>
<path d="M0 0 C1.76537109 -0.00386719 1.76537109 -0.00386719 3.56640625 -0.0078125 C6.4375 0.125 6.4375 0.125 7.4375 1.125 C8.75468985 15.47638217 7.15391143 30.23355921 3.4375 44.125 C-3.39912643 44.73541307 -7.25419399 43.49009461 -12.5625 39.125 C-18.11944829 33.83852265 -20.56002512 28.97643888 -20.9375 21.25 C-20.76807753 14.97195609 -18.99230414 10.60282399 -14.5859375 6.109375 C-9.48336322 1.54489037 -6.95684305 -0.01527298 0 0 Z " fill="#E9E9E9" transform="translate(227.5625,33.875)"/>
<path d="M0 0 C-0.1640625 3.28515625 -0.1640625 3.28515625 -1 7 C-3.3984375 8.99609375 -3.3984375 8.99609375 -6.375 10.4375 C-7.35210937 10.93121094 -8.32921875 11.42492187 -9.3359375 11.93359375 C-12 13 -12 13 -15 13 C-14.94779297 14.24716797 -14.94779297 14.24716797 -14.89453125 15.51953125 C-14.86746094 16.60621094 -14.84039062 17.69289062 -14.8125 18.8125 C-14.76029297 20.43091797 -14.76029297 20.43091797 -14.70703125 22.08203125 C-15 25 -15 25 -16.38671875 26.88671875 C-18 28 -18 28 -20 28 C-19.34 26.02 -18.68 24.04 -18 22 C-18.61746094 21.93941406 -19.23492187 21.87882812 -19.87109375 21.81640625 C-20.71800781 21.73261719 -21.56492188 21.64882812 -22.4375 21.5625 C-23.35144531 21.47226563 -24.26539063 21.38203125 -25.20703125 21.2890625 C-27.68404379 21.03270036 -30.15325845 20.73945796 -32.625 20.4375 C-36.7742892 19.9641408 -40.82609814 19.92411088 -45 20 C-45 19.34 -45 18.68 -45 18 C-43.63875 17.443125 -43.63875 17.443125 -42.25 16.875 C-38.76103234 15.39590418 -35.42618536 13.68115946 -32.0625 11.9375 C-27.37880734 9.56325076 -23.14582598 7.98958192 -18 7 C-22.73033602 4.35783033 -26.67679724 4.2045027 -32 5 C-36.2884924 6.29575776 -40.41728577 7.98901909 -44.55859375 9.6875 C-48 11 -48 11 -51 11 C-47.58309289 3.15313292 -39.44831396 -1.444789 -32 -5 C-21.69193101 -8.436023 -9.79455937 -3.40734992 0 0 Z " fill="#2A2A2A" transform="translate(222,156)"/>
<path d="M0 0 C5.41780793 4.36434527 6.43268883 10.18538653 7.25 16.8125 C7.23732498 18.41715764 7.19725903 20.02192002 7.125 21.625 C6.98067587 25.94712801 8.43338225 27.54158906 11.25 30.8125 C11 33.625 11 33.625 10.25 35.8125 C8.765 36.3075 8.765 36.3075 7.25 36.8125 C5.76887501 35.59468612 4.29265178 34.36887804 2.87109375 33.08203125 C0.57188332 31.28144477 -1.99178647 30.6901134 -4.75 29.8125 C-7.41777958 25.81083063 -7.58537677 22.51873152 -6.75 17.8125 C-4.375 14.875 -4.375 14.875 -1.75 12.8125 C-1.09 12.1525 -0.43 11.4925 0.25 10.8125 C0.25 10.1525 0.25 9.4925 0.25 8.8125 C-2.06 9.4725 -4.37 10.1325 -6.75 10.8125 C-6.09 8.5025 -5.43 6.1925 -4.75 3.8125 C-8.88341295 5.47239563 -8.88341295 5.47239563 -11.90625 8.5625 C-12.92083021 11.26804723 -13.16934326 13.6833056 -13.375 16.5625 C-13.44976562 17.54734375 -13.52453125 18.5321875 -13.6015625 19.546875 C-13.65054688 20.29453125 -13.69953125 21.0421875 -13.75 21.8125 C-16.75 19.8125 -16.75 19.8125 -17.3671875 17.45703125 C-17.92707061 11.30680016 -18.07066351 7.12556162 -14.75 1.8125 C-10.26592684 -2.04878522 -5.37957074 -2.32299646 0 0 Z " fill="#2A2A2A" transform="translate(100.75,171.1875)"/>
<path d="M0 0 C0.33 0.99 0.66 1.98 1 3 C2.32 2.01 3.64 1.02 5 0 C5 2.64 5 5.28 5 8 C2.69 8 0.38 8 -2 8 C-2 8.33 -2 8.66 -2 9 C0.31 9 2.62 9 5 9 C5 11.97 5 14.94 5 18 C2.36 18 -0.28 18 -3 18 C-3.33 16.35 -3.66 14.7 -4 13 C-5.37564931 18.961147 -5.81190764 24.9650547 -2.59375 30.35546875 C-1.12818903 32.30839787 0.37609231 34.17744917 2 36 C1.34 34.02 0.68 32.04 0 30 C3.63 30 7.26 30 11 30 C10.34 33.63 9.68 37.26 9 41 C2.16337357 41.61041307 -1.69169399 40.36509461 -7 36 C-12.68453847 30.5921426 -15.04368976 25.72105925 -15.25 17.8125 C-15.27269705 14.11855436 -15.13610235 13.20415353 -13 10 C-12.175 9.690625 -11.35 9.38125 -10.5 9.0625 C-7.88091917 8.26828021 -7.88091917 8.26828021 -7.0625 6.125 C-5.49125961 2.98251922 -2.94072492 1.79000648 0 0 Z " fill="#DADADA" transform="translate(222,37)"/>
<path d="M0 0 C0.33 0.99 0.66 1.98 1 3 C2.32 2.01 3.64 1.02 5 0 C5 2.64 5 5.28 5 8 C2.69 8 0.38 8 -2 8 C-2 8.33 -2 8.66 -2 9 C0.31 9 2.62 9 5 9 C5 11.97 5 14.94 5 18 C2.36 18 -0.28 18 -3 18 C-3.33 16.35 -3.66 14.7 -4 13 C-4.33 14.32 -4.66 15.64 -5 17 C-7.31 17 -9.62 17 -12 17 C-11.71848913 15.68528432 -11.42446661 14.37324233 -11.125 13.0625 C-10.96257812 12.33160156 -10.80015625 11.60070312 -10.6328125 10.84765625 C-10 9 -10 9 -8 8 C-7.7525 7.401875 -7.505 6.80375 -7.25 6.1875 C-5.48768848 3.10345483 -2.98940478 1.81963769 0 0 Z " fill="#C6C6C6" transform="translate(222,37)"/>
<path d="M0 0 C2.31 0 4.62 0 7 0 C7.11252453 6.10132987 6.98678883 11.96962381 6 18 C5 19 5 19 2.05859375 19.09765625 C0.86363281 19.08605469 -0.33132812 19.07445313 -1.5625 19.0625 C-3.35880859 19.04896484 -3.35880859 19.04896484 -5.19140625 19.03515625 C-6.11824219 19.02355469 -7.04507813 19.01195313 -8 19 C-8.33 16.03 -8.66 13.06 -9 10 C-6.36 9.67 -3.72 9.34 -1 9 C-0.67 6.03 -0.34 3.06 0 0 Z " fill="#9C9C9C" transform="translate(228,46)"/>
<path d="M0 0 C0.33 0 0.66 0 1 0 C1.33 1.98 1.66 3.96 2 6 C3.98 6 5.96 6 8 6 C8 6.66 8 7.32 8 8 C5.69 8 3.38 8 1 8 C1 10.97 1 13.94 1 17 C0.67 17 0.34 17 0 17 C0 14.03 0 11.06 0 8 C-2.64 8.33 -5.28 8.66 -8 9 C-7.67 8.01 -7.34 7.02 -7 6 C-4.69 6.33 -2.38 6.66 0 7 C0 4.69 0 2.38 0 0 Z M-9 10 C-8.67 10 -8.34 10 -8 10 C-8 12.31 -8 14.62 -8 17 C-5.36 17 -2.72 17 0 17 C0 17.33 0 17.66 0 18 C-2.64 18 -5.28 18 -8 18 C-7.67 20.97 -7.34 23.94 -7 27 C-4.69 27 -2.38 27 0 27 C0 24.36 0 21.72 0 19 C0.33 19 0.66 19 1 19 C1 21.64 1 24.28 1 27 C2.65 27 4.3 27 6 27 C6 27.66 6 28.32 6 29 C4.35 29 2.7 29 1 29 C1 30.98 1 32.96 1 35 C0.67 35 0.34 35 0 35 C0 33.02 0 31.04 0 29 C-1.65 29 -3.3 29 -5 29 C-4.484375 29.78375 -3.96875 30.5675 -3.4375 31.375 C-2.7259375 32.674375 -2.7259375 32.674375 -2 34 C-2.33 34.66 -2.66 35.32 -3 36 C-8 30.25 -8 30.25 -8 28 C-9.98 28 -11.96 28 -14 28 C-14 27.67 -14 27.34 -14 27 C-12.35 27 -10.7 27 -9 27 C-9.33 24.03 -9.66 21.06 -10 18 C-11.98 18 -13.96 18 -16 18 C-16 17.67 -16 17.34 -16 17 C-14.02 17 -12.04 17 -10 17 C-9.67 14.69 -9.34 12.38 -9 10 Z " fill="#ECECEC" transform="translate(227,38)"/>
<path d="M0 0 C2.31 0 4.62 0 7 0 C7 2.97 7 5.94 7 9 C4.36 9 1.72 9 -1 9 C-0.67 6.03 -0.34 3.06 0 0 Z " fill="#4B4B4B" transform="translate(220,46)"/>
<path d="M0 0 C0.33 0 0.66 0 1 0 C1.33 1.98 1.66 3.96 2 6 C3.98 6 5.96 6 8 6 C8 6.66 8 7.32 8 8 C5.69 8 3.38 8 1 8 C1 10.97 1 13.94 1 17 C0.67 17 0.34 17 0 17 C0 14.03 0 11.06 0 8 C-2.64 8.33 -5.28 8.66 -8 9 C-7.67 8.01 -7.34 7.02 -7 6 C-4.69 6.33 -2.38 6.66 0 7 C0 4.69 0 2.38 0 0 Z M-9 10 C-8.67 10 -8.34 10 -8 10 C-8 12.31 -8 14.62 -8 17 C-5.36 17 -2.72 17 0 17 C0 17.33 0 17.66 0 18 C-2.97 18 -5.94 18 -9 18 C-9.33 18.66 -9.66 19.32 -10 20 C-10 19.34 -10 18.68 -10 18 C-11.98 18 -13.96 18 -16 18 C-16 17.67 -16 17.34 -16 17 C-14.02 17 -12.04 17 -10 17 C-9.67 14.69 -9.34 12.38 -9 10 Z " fill="#FCFCFC" transform="translate(227,38)"/>
<path d="M0 0 C-1.3554488 4.0663464 -3.26489579 4.13244789 -7 6 C-8.85315257 8.04946399 -8.85315257 8.04946399 -10 10 C-8.68 10.33 -7.36 10.66 -6 11 C-8.97 11.66 -11.94 12.32 -15 13 C-14.00774315 9.03097259 -13.29798256 7.81528657 -10.6875 4.875 C-10.09324219 4.19179688 -9.49898437 3.50859375 -8.88671875 2.8046875 C-5.76862355 -0.17783834 -4.21528702 -1.40509567 0 0 Z " fill="#F2F2F2" transform="translate(224,35)"/>
<path d="M0 0 C2.31 0 4.62 0 7 0 C7.33 2.64 7.66 5.28 8 8 C6.02 8 4.04 8 2 8 C0.74335022 5.09399739 0 3.20395416 0 0 Z " fill="#383838" transform="translate(210,57)"/>
<path d="M0 0 C1.98 0 3.96 0 6 0 C5.67 2.64 5.34 5.28 5 8 C2.69 8 0.38 8 -2 8 C-1.34 5.36 -0.68 2.72 0 0 Z " fill="#383838" transform="translate(212,46)"/>
<path d="M0 0 C2.31 0 4.62 0 7 0 C7 2.31 7 4.62 7 7 C5.02 7 3.04 7 1 7 C0.67 4.69 0.34 2.38 0 0 Z " fill="#2D2D2D" transform="translate(219,57)"/>
<path d="M0 0 C1.98 0 3.96 0 6 0 C6 2.31 6 4.62 6 7 C4.02 7 2.04 7 0 7 C0 4.69 0 2.38 0 0 Z " fill="#2A2A2A" transform="translate(229,47)"/>
<path d="M0 0 C0.04254356 1.99954746 0.04080783 4.00041636 0 6 C-1 7 -1 7 -3.5625 7.0625 C-4.366875 7.041875 -5.17125 7.02125 -6 7 C-6 4.69 -6 2.38 -6 0 C-3 -1 -3 -1 0 0 Z " fill="#B6B6B6" transform="translate(235,38)"/>
<path d="M0 0 C1.65 0 3.3 0 5 0 C5 2.31 5 4.62 5 7 C3.35 7 1.7 7 0 7 C0 4.69 0 2.38 0 0 Z " fill="#2A2A2A" transform="translate(229,57)"/>
<path d="M0 0 C1.13199353 0.9080162 2.25532363 1.82683826 3.375 2.75 C4.00148438 3.26046875 4.62796875 3.7709375 5.2734375 4.296875 C7.08312318 6.08199481 8.00117455 7.67949644 9 10 C5.54537888 9.74410214 4.72618453 8.71373837 2.25 6.125 C0 3 0 3 0 0 Z " fill="#2A2A2A" transform="translate(88,197)"/>
<path d="M0 0 C0.33 0 0.66 0 1 0 C1 2.64 1 5.28 1 8 C2.65 8 4.3 8 6 8 C6 8.66 6 9.32 6 10 C4.35 10 2.7 10 1 10 C1 11.98 1 13.96 1 16 C0.67 16 0.34 16 0 16 C0 13.69 0 11.38 0 9 C-0.66 8.67 -1.32 8.34 -2 8 C-1.34 8 -0.68 8 0 8 C0 5.36 0 2.72 0 0 Z " fill="#F8F8F8" transform="translate(227,57)"/>
<path d="M0 0 C2.25 -0.3125 2.25 -0.3125 5 0 C7.3125 2.5 7.3125 2.5 9 5 C8.67 5.66 8.34 6.32 8 7 C2.25 3.375 2.25 3.375 0 0 Z " fill="#373737" transform="translate(214,67)"/>
<path d="M0 0 C0 3 0 3 -1.1875 5.1875 C-3 7 -3 7 -5.6875 7.25 C-6.450625 7.1675 -7.21375 7.085 -8 7 C-5.61042731 3.75700849 -3.7952131 1.49097658 0 0 Z " fill="#383838" transform="translate(222,37)"/>
<path d="M0 0 C0.66 0 1.32 0 2 0 C2.33 2.64 2.66 5.28 3 8 C2.01 8 1.02 8 0 8 C-0.38063221 5.6739143 -0.71269945 3.33944736 -1 1 C-0.67 0.67 -0.34 0.34 0 0 Z " fill="#2A2A2A" transform="translate(365,283)"/>
<path d="M0 0 C1.32 0 2.64 0 4 0 C2.25 4.875 2.25 4.875 0 6 C0 4.02 0 2.04 0 0 Z " fill="#313131" transform="translate(229,67)"/>
<path d="M0 0 C1.32 0 2.64 0 4 0 C4 1.98 4 3.96 4 6 C2.62437146 4.71034824 1.29233607 3.37310707 0 2 C0 1.34 0 0.68 0 0 Z " fill="#323232" transform="translate(222,67)"/>
<path d="M0 0 C1.37562854 1.28965176 2.70766393 2.62689293 4 4 C4 4.66 4 5.32 4 6 C2.68 6 1.36 6 0 6 C0 4.02 0 2.04 0 0 Z " fill="#323232" transform="translate(229,38)"/>
<path d="M0 0 C0.33 0 0.66 0 1 0 C1 1.98 1 3.96 1 6 C-0.32 6 -1.64 6 -3 6 C-1.125 1.125 -1.125 1.125 0 0 Z " fill="#333333" transform="translate(225,38)"/>
<path d="M0 0 C0.66 0 1.32 0 2 0 C2 2.31 2 4.62 2 7 C1.34 6.67 0.68 6.34 0 6 C0 4.02 0 2.04 0 0 Z " fill="#2A2A2A" transform="translate(365,300)"/>
<path d="M0 0 C0.66 0 1.32 0 2 0 C1.67 1.65 1.34 3.3 1 5 C0.67 5 0.34 5 0 5 C0 3.35 0 1.7 0 0 Z " fill="#2A2A2A" transform="translate(366,316)"/>
</svg>
